SplineFontDB: 3.2
FontName: Minecraft-Regular
FullName: Minecraft Regular
FamilyName: Minecraft
Weight: Regular
Copyright: Copyright \\(c\\) 2017 by Jacob Debono.
Version: 001.000
ItalicAngle: 0
UnderlinePosition: -100
UnderlineWidth: 50
Ascent: 800
Descent: 200
InvalidEm: 0
sfntRevision: 0x00010000
LayerCount: 2
Layer: 0 0 "Back" 1
Layer: 1 0 "Fore" 0
XUID: [1021 920 -1476719002 6561126]
StyleMap: 0x0040
FSType: 8
OS2Version: 4
OS2_WeightWidthSlopeOnly: 0
OS2_UseTypoMetrics: 1
CreationTime: 1509971478
ModificationTime: 1732142131
PfmFamily: 81
TTFWeight: 400
TTFWidth: 5
LineGap: 0
VLineGap: 0
Panose: 0 0 5 0 0 0 0 0 0 0
OS2TypoAscent: 800
OS2TypoAOffset: 0
OS2TypoDescent: -200
OS2TypoDOffset: 0
OS2TypoLinegap: 200
OS2WinAscent: 1000
OS2WinAOffset: 0
OS2WinDescent: 200
OS2WinDOffset: 0
HheadAscent: 1000
HheadAOffset: 0
HheadDescent: -200
HheadDOffset: 0
OS2SubXSize: 650
OS2SubYSize: 600
OS2SubXOff: 0
OS2SubYOff: 75
OS2SupXSize: 650
OS2SupYSize: 600
OS2SupXOff: 0
OS2SupYOff: 350
OS2StrikeYSize: 50
OS2StrikeYPos: 300
OS2CapHeight: 700
OS2XHeight: 500
OS2Vendor: 'UKWN'
OS2CodePages: 00000001.00000000
OS2UnicodeRanges: 00000003.00000000.00000000.00000000
DEI: 91125
LangName: 1033 "Copyright +AKkA 2017 by Jacob Debono." "" "" "1.000;UKWN;Minecraft-Regular" "" "Version 1.000;PS 001.000;hotconv 1.0.88;makeotf.lib2.5.64775" "" "" "JDGraphics Fonts" "Jacob Debono" "" "" "" "Free for Commercial Use"
Encoding: UnicodeBmp
UnicodeInterp: none
NameList: AGL For New Fonts
DisplaySize: -96
AntiAlias: 1
FitToEm: 0
WinInfo: 12293 19 8
BeginPrivate: 9
BlueValues 21 [0 0 500 500 700 700]
OtherBlues 11 [-100 -100]
BlueScale 5 0.037
BlueShift 1 0
BlueFuzz 1 0
StdHW 5 [100]
StdVW 5 [100]
StemSnapH 17 [100 200 300 700]
StemSnapV 17 [100 200 300 500]
EndPrivate
BeginChars: 65537 329

StartChar: exclam
Encoding: 33 33 2
Width: 200
GlyphClass: 1
Flags: MW
HStem: 0 100<0 100 0 100>
VStem: 0 100<0 100 0 100 200 700>
LayerCount: 2
Fore
SplineSet
0 700 m 1
 100 700 l 1
 100 200 l 1
 0 200 l 1
 0 700 l 1
0 0 m 1
 0 100 l 1
 100 100 l 1
 100 0 l 1
 0 0 l 1
EndSplineSet
EndChar

StartChar: quotedbl
Encoding: 34 34 3
Width: 500
GlyphClass: 1
Flags: MW
HStem: 400 100<0 100 0 100 200 300> 500 200<0 200 100 200 100 200 100 200 100 300 100 300 100 300 300 400>
VStem: 0 100<400 500 400 500> 100 100<400 500 400 500 500 700> 200 100<400 500 400 500 500 700 400 500> 300 100<400 700 500 700 500 700>
LayerCount: 2
Fore
SplineSet
200 700 m 1x54
 200 500 l 1
 100 500 l 1
 100 700 l 1
 200 700 l 1x54
300 700 m 1
 400 700 l 1
 400 500 l 1
 300 500 l 1
 300 700 l 1
0 400 m 1xa8
 0 500 l 1
 100 500 l 1
 100 400 l 1
 0 400 l 1xa8
200 400 m 1
 200 500 l 1
 300 500 l 1
 300 400 l 1
 200 400 l 1
EndSplineSet
EndChar

StartChar: numbersign
Encoding: 35 35 4
Width: 600
GlyphClass: 1
Flags: MW
HStem: 200 100<0 100 0 100 200 300 400 500> 400 100<0 100 0 100 200 300 400 500>
VStem: 100 100<0 200 0 200 300 400 500 700> 300 100<0 200 0 200 300 400 500 700>
LayerCount: 2
Fore
SplineSet
500 400 m 1
 400 400 l 1
 400 300 l 1
 500 300 l 1
 500 200 l 1
 400 200 l 1
 400 0 l 1
 300 0 l 1
 300 200 l 1
 200 200 l 1
 200 0 l 1
 100 0 l 1
 100 200 l 1
 0 200 l 1
 0 300 l 1
 100 300 l 1
 100 400 l 1
 0 400 l 1
 0 500 l 1
 100 500 l 1
 100 700 l 1
 200 700 l 1
 200 500 l 1
 300 500 l 1
 300 700 l 1
 400 700 l 1
 400 500 l 1
 500 500 l 1
 500 400 l 1
300 300 m 1
 300 400 l 1
 200 400 l 1
 200 300 l 1
 300 300 l 1
EndSplineSet
EndChar

StartChar: dollar
Encoding: 36 36 5
Width: 600
GlyphClass: 1
Flags: MW
HStem: 100 100<0 200 0 400 300 400 300 300> 200 100<100 100 100 400 400 500> 300 100<0 100 100 400> 400 100<0 100 0 100 100 400 400 400> 500 100<0 200 100 200 100 200 100 200 300 500>
VStem: 0 100<400 500> 100 300<300 400 100 400 100 500 100 400> 200 100<0 100 0 100 600 700> 400 100<100 200 200 300>
LayerCount: 2
Fore
SplineSet
100 500 m 1xad80
 100 600 l 1
 200 600 l 1
 200 700 l 1
 300 700 l 1
 300 600 l 1
 500 600 l 1
 500 500 l 1
 100 500 l 1xad80
0 500 m 1x9580
 100 500 l 1
 100 400 l 1
 0 400 l 1
 0 500 l 1x9580
100 300 m 1xaa
 100 400 l 1
 400 400 l 1
 400 300 l 1
 100 300 l 1xaa
500 200 m 1x4d80
 400 200 l 1
 400 300 l 1
 500 300 l 1
 500 200 l 1x4d80
400 200 m 1xad80
 400 100 l 1
 300 100 l 1
 300 0 l 1
 200 0 l 1
 200 100 l 1
 0 100 l 1
 0 200 l 1
 400 200 l 1xad80
EndSplineSet
EndChar

StartChar: percent
Encoding: 37 37 6
Width: 600
GlyphClass: 1
Flags: MW
HStem: 0 100<0 100 0 100> 0 200<400 500 400 500> 100 200<0 200 100 200 100 200 100 200> 300 100<100 300 200 300 200 300 200 300> 400 200<200 400 300 400 300 400 300 400> 500 200<0 100 0 100> 600 100<400 500>
VStem: 0 100<0 100 0 100 500 700> 100 100<0 300 100 300 100 300> 200 100<100 400 300 400 300 400> 300 100<400 600> 400 100<0 200 0 200 600 700>
LayerCount: 2
Fore
SplineSet
100 500 m 1x05
 0 500 l 1
 0 700 l 1
 100 700 l 1
 100 500 l 1x05
400 700 m 1x0210
 500 700 l 1
 500 600 l 1
 400 600 l 1
 400 700 l 1x0210
300 600 m 1x0820
 400 600 l 1
 400 400 l 1
 300 400 l 1
 300 600 l 1x0820
200 300 m 1x1040
 200 400 l 1
 300 400 l 1
 300 300 l 1
 200 300 l 1x1040
100 300 m 1x2080
 200 300 l 1
 200 100 l 1
 100 100 l 1
 100 300 l 1x2080
400 200 m 1x4010
 500 200 l 1
 500 0 l 1
 400 0 l 1
 400 200 l 1x4010
0 0 m 1x81
 0 100 l 1
 100 100 l 1
 100 0 l 1
 0 0 l 1x81
EndSplineSet
EndChar

StartChar: ampersand
Encoding: 38 38 7
Width: 600
GlyphClass: 1
Flags: MW
HStem: 0 100<100 300 0 100 400 500> 200 100<200 200 300 300> 300 100<0 200 100 200 100 200 100 200 400 500> 500 100<100 200 100 200 200 300 300 400> 600 100<100 300 200 300 200 300 200 300 200 400>
VStem: 0 100<100 300> 100 100<200 300 200 300 200 400 500 600> 200 100<400 500 500 600 600 700> 300 100<0 100 0 100 100 200 200 200 300 400 500 600> 400 100<0 100 300 400>
LayerCount: 2
Fore
SplineSet
300 700 m 1x09
 300 600 l 1
 200 600 l 1
 200 700 l 1
 300 700 l 1x09
100 600 m 1x5280
 200 600 l 1
 200 500 l 1
 100 500 l 1
 100 600 l 1x5280
400 500 m 1
 300 500 l 1
 300 600 l 1
 400 600 l 1
 400 500 l 1
400 300 m 1
 400 100 l 1
 300 100 l 1
 300 200 l 1x4080
 200 200 l 1x41
 200 300 l 1x21
 100 300 l 1
 100 400 l 1x22
 200 400 l 1
 200 500 l 1
 300 500 l 1x21
 300 300 l 1x41
 400 300 l 1
500 400 m 1x2040
 500 300 l 1
 400 300 l 1
 400 400 l 1
 500 400 l 1x2040
100 300 m 1xc540
 100 100 l 1
 0 100 l 1
 0 300 l 1
 100 300 l 1xc540
100 100 m 1
 300 100 l 1
 300 0 l 1
 100 0 l 1
 100 100 l 1
500 0 m 1
 400 0 l 1
 400 100 l 1
 500 100 l 1
 500 0 l 1
EndSplineSet
EndChar

StartChar: quotesingle
Encoding: 39 39 8
Width: 300
GlyphClass: 1
Flags: MW
HStem: 400 100<0 100 0 100> 500 200<0 200 100 200 100 200 100 200>
VStem: 0 100<400 500 400 500> 100 100<400 700 500 700 500 700>
LayerCount: 2
Fore
SplineSet
100 700 m 1x50
 200 700 l 1
 200 500 l 1
 100 500 l 1
 100 700 l 1x50
0 400 m 1xa0
 0 500 l 1
 100 500 l 1
 100 400 l 1
 0 400 l 1xa0
EndSplineSet
EndChar

StartChar: parenleft
Encoding: 40 40 9
Width: 500
GlyphClass: 1
Flags: MW
HStem: 0 100<100 200 200 400> 100 100<100 200 0 100> 200 300<0 100 0 100 100 200 0 200> 500 100<0 200 100 200 100 200 100 200> 600 100<100 400 200 400 200 400 200 400>
VStem: 0 100<200 500> 100 100<100 200 500 600> 200 200<0 100 0 100 0 100 0 200 600 700>
LayerCount: 2
Fore
SplineSet
400 600 m 1x8d
 200 600 l 1
 200 700 l 1
 400 700 l 1
 400 600 l 1x8d
200 600 m 1x92
 200 500 l 1
 100 500 l 1
 100 600 l 1
 200 600 l 1x92
100 200 m 1xad
 0 200 l 1
 0 500 l 1
 100 500 l 1
 100 200 l 1xad
200 100 m 1x4a
 100 100 l 1
 100 200 l 1
 200 200 l 1
 200 100 l 1x4a
200 0 m 1x8d
 200 100 l 1
 400 100 l 1
 400 0 l 1
 200 0 l 1x8d
EndSplineSet
EndChar

StartChar: parenright
Encoding: 41 41 10
Width: 500
GlyphClass: 1
Flags: MW
HStem: 0 100<0 200 0 200> 100 100<0 300 200 300 200 300 200 300> 200 300<200 300 200 300 300 400 200 300> 500 100<200 300 0 200> 600 100<0 200 0 200 0 300>
VStem: 0 200<0 100 0 100 600 700> 200 100<0 200 100 200 100 200 500 600> 300 100<100 500 200 500 200 600 200 500 200 500>
LayerCount: 2
Fore
SplineSet
200 700 m 1x8d
 200 600 l 1
 0 600 l 1
 0 700 l 1
 200 700 l 1x8d
200 600 m 1x92
 300 600 l 1
 300 500 l 1
 200 500 l 1
 200 600 l 1x92
300 500 m 1xad
 400 500 l 1
 400 200 l 1
 300 200 l 1
 300 500 l 1xad
200 100 m 1x4a
 200 200 l 1
 300 200 l 1
 300 100 l 1
 200 100 l 1x4a
0 100 m 1x8d
 200 100 l 1
 200 0 l 1
 0 0 l 1
 0 100 l 1x8d
EndSplineSet
EndChar

StartChar: asterisk
Encoding: 42 42 11
Width: 500
GlyphClass: 1
Flags: MW
HStem: 200 100<0 100 0 100 300 400> 300 100<0 100 0 100 100 300 0 100 300 400> 400 100<0 100 0 100 0 300 300 400>
VStem: 0 100<200 300 200 300 400 500> 100 200<200 300 200 300 300 400 200 400 400 500 200 400> 300 100<200 300 400 500>
LayerCount: 2
Fore
SplineSet
0 500 m 1x34
 100 500 l 1
 100 400 l 1
 0 400 l 1
 0 500 l 1x34
400 500 m 1
 400 400 l 1
 300 400 l 1
 300 500 l 1
 400 500 l 1
300 400 m 1x48
 300 300 l 1
 100 300 l 1
 100 400 l 1
 300 400 l 1x48
0 200 m 1x94
 0 300 l 1
 100 300 l 1
 100 200 l 1
 0 200 l 1x94
400 200 m 1
 300 200 l 1
 300 300 l 1
 400 300 l 1
 400 200 l 1
EndSplineSet
EndChar

StartChar: plus
Encoding: 43 43 12
Width: 600
GlyphClass: 1
Flags: MW
HStem: 300 100<0 200 0 200 300 500>
VStem: 200 100<100 300 100 300 400 600>
LayerCount: 2
Fore
SplineSet
500 400 m 1
 500 300 l 1
 300 300 l 1
 300 100 l 1
 200 100 l 1
 200 300 l 1
 0 300 l 1
 0 400 l 1
 200 400 l 1
 200 600 l 1
 300 600 l 1
 300 400 l 1
 500 400 l 1
EndSplineSet
EndChar

StartChar: comma
Encoding: 44 44 13
Width: 200
GlyphClass: 1
Flags: MW
HStem: -100 300<0 100 0 100>
VStem: 0 100<-100 200 -100 200>
LayerCount: 2
Fore
SplineSet
0 200 m 1
 100 200 l 1
 100 -100 l 1
 0 -100 l 1
 0 200 l 1
EndSplineSet
EndChar

StartChar: hyphen
Encoding: 45 45 14
Width: 600
GlyphClass: 1
Flags: MW
HStem: 300 100<0 500 0 500>
VStem: 0 500<300 400 300 400>
LayerCount: 2
Fore
SplineSet
500 400 m 1
 500 300 l 1
 0 300 l 1
 0 400 l 1
 500 400 l 1
EndSplineSet
EndChar

StartChar: period
Encoding: 46 46 15
Width: 200
GlyphClass: 1
Flags: MW
HStem: 0 200<0 100 0 100>
VStem: 0 100<0 200 0 200>
LayerCount: 2
Fore
SplineSet
0 200 m 1
 100 200 l 1
 100 0 l 1
 0 0 l 1
 0 200 l 1
EndSplineSet
EndChar

StartChar: slash
Encoding: 47 47 16
Width: 600
GlyphClass: 1
Flags: MW
HStem: 0 100<0 100 0 100> 100 200<0 200 100 200 100 200 100 200> 300 100<100 300 200 300 200 300 200 300> 400 200<200 400 300 400 300 400 300 400> 600 100<300 500 400 500 400 500 400 500>
VStem: 0 100<0 100 0 100> 100 100<0 300 100 300 100 300> 200 100<100 400 300 400 300 400> 300 100<300 600 400 600 400 600> 400 100<400 700 600 700 600 700>
LayerCount: 2
Fore
SplineSet
400 700 m 1xaa40
 500 700 l 1
 500 600 l 1
 400 600 l 1
 400 700 l 1xaa40
300 600 m 1x9280
 400 600 l 1
 400 400 l 1
 300 400 l 1
 300 600 l 1x9280
200 300 m 1xa9
 200 400 l 1
 300 400 l 1
 300 300 l 1
 200 300 l 1xa9
100 300 m 1x4a80
 200 300 l 1
 200 100 l 1
 100 100 l 1
 100 300 l 1x4a80
0 0 m 1xac80
 0 100 l 1
 100 100 l 1
 100 0 l 1
 0 0 l 1xac80
EndSplineSet
EndChar

StartChar: zero
Encoding: 48 48 17
Width: 600
GlyphClass: 1
Flags: MW
HStem: 0 100<100 400 0 100> 200 100<100 200 100 200> 300 100<100 300 200 300 200 300 200 300> 400 100<200 400 300 400 300 400 300 400> 600 100<0 400 100 400 100 400 100 400 100 500>
VStem: 0 100<100 200 300 600> 100 100<100 200 300 400> 200 100<200 400 300 400 300 400> 300 100<300 400 300 300> 400 100<0 600 100 400 400 400 500 600 100 700 100 600 100 600>
LayerCount: 2
Fore
SplineSet
100 600 m 1xda80
 100 700 l 1
 400 700 l 1
 400 600 l 1
 100 600 l 1xda80
200 200 m 1
 100 200 l 1
 100 100 l 1
 0 100 l 1
 0 600 l 1
 100 600 l 1
 100 300 l 1xdd40
 200 300 l 1
 200 200 l 1
400 600 m 1
 500 600 l 1
 500 100 l 1
 400 100 l 1
 400 400 l 1xdd40
 300 400 l 1
 300 500 l 1xdc80
 400 500 l 1
 400 600 l 1
200 300 m 1xad40
 200 400 l 1
 300 400 l 1
 300 300 l 1
 200 300 l 1xad40
400 100 m 1xda40
 400 0 l 1
 100 0 l 1
 100 100 l 1
 400 100 l 1xda40
EndSplineSet
EndChar

StartChar: one
Encoding: 49 49 18
Width: 600
GlyphClass: 1
Flags: MW
HStem: 0 100<0 200 300 500 0 200> 500 100<100 200 100 200>
VStem: 200 100<100 500 500 500 600 700 100 700>
LayerCount: 2
Fore
SplineSet
500 100 m 1
 500 0 l 1
 0 0 l 1
 0 100 l 1
 200 100 l 1
 200 500 l 1
 100 500 l 1
 100 600 l 1
 200 600 l 1
 200 700 l 1
 300 700 l 1
 300 100 l 1
 500 100 l 1
EndSplineSet
EndChar

StartChar: two
Encoding: 50 50 19
Width: 600
GlyphClass: 1
Flags: MW
HStem: 0 100<100 400 100 500> 200 100<0 200 100 200 100 200 100 200> 300 100<100 400 200 400 200 400 200 400> 400 200<200 400 400 500> 500 100<0 100 0 100> 600 100<0 400 100 400 100 400 100 400 100 500>
VStem: 0 100<100 200 100 200 100 200 500 600> 100 100<100 300 200 300 200 300> 100 300<100 200 100 200 100 300 100 300 500 600 500 500 600 700> 200 200<100 300 100 200 300 400> 400 100<100 200 0 200 400 600>
LayerCount: 2
Fore
SplineSet
400 700 m 1x0480
 400 600 l 1
 100 600 l 1
 100 700 l 1
 400 700 l 1x0480
0 500 m 1x0a
 0 600 l 1
 100 600 l 1
 100 500 l 1
 0 500 l 1x0a
400 600 m 1x1020
 500 600 l 1
 500 400 l 1
 400 400 l 1
 400 600 l 1x1020
200 400 m 1x2040
 400 400 l 1
 400 300 l 1
 200 300 l 1
 200 400 l 1x2040
100 200 m 1x41
 100 300 l 1
 200 300 l 1
 200 200 l 1
 100 200 l 1x41
0 200 m 1xc220
 100 200 l 1
 100 100 l 1
 400 100 l 1
 400 200 l 1
 500 200 l 1
 500 0 l 1
 0 0 l 1
 0 200 l 1xc220
EndSplineSet
EndChar

StartChar: three
Encoding: 51 51 20
Width: 600
GlyphClass: 1
Flags: MW
HStem: 0 100<100 400 0 100> 100 100<0 100 0 100 0 400> 100 200<0 400 200 400 200 400 200 400 200 400 400 500> 300 100<200 400 200 400 400 500> 400 200<200 400 400 500> 500 100<0 100 0 100> 600 100<0 400 100 400 100 400 100 400 100 500>
VStem: 0 100<100 200 500 600> 100 300<0 100 0 100 100 200 0 100 500 600 500 500 600 700> 200 200<300 400> 400 100<0 300 100 300 100 300 100 400 100 300 400 600>
LayerCount: 2
Fore
SplineSet
400 700 m 1x0280
 400 600 l 1
 100 600 l 1
 100 700 l 1
 400 700 l 1x0280
0 500 m 1x05
 0 600 l 1
 100 600 l 1
 100 500 l 1
 0 500 l 1x05
400 600 m 1x0820
 500 600 l 1
 500 400 l 1
 400 400 l 1
 400 600 l 1x0820
200 400 m 1x1040
 400 400 l 1
 400 300 l 1
 200 300 l 1
 200 400 l 1x1040
400 100 m 1x2020
 400 300 l 1
 500 300 l 1
 500 100 l 1
 400 100 l 1x2020
0 200 m 1x41
 100 200 l 1
 100 100 l 1
 0 100 l 1
 0 200 l 1x41
400 100 m 1x8080
 400 0 l 1
 100 0 l 1
 100 100 l 1
 400 100 l 1x8080
EndSplineSet
EndChar

StartChar: four
Encoding: 52 52 21
Width: 600
GlyphClass: 1
Flags: MW
HStem: 200 100<100 400 100 400> 400 100<0 200 100 200 100 200 100 200> 500 100<100 300 200 300 200 300 200 300> 600 100<200 500 300 400 300 500 300 500>
VStem: 0 100<300 400 300 400 300 400> 100 100<300 500 400 500 400 500> 200 100<400 600 500 600 500 600> 400 100<0 200 200 200 300 600 600 600>
LayerCount: 2
Fore
SplineSet
500 700 m 1xdb
 500 0 l 1
 400 0 l 1
 400 200 l 1
 0 200 l 1
 0 400 l 1
 100 400 l 1
 100 300 l 1
 400 300 l 1
 400 600 l 1
 300 600 l 1
 300 700 l 1
 500 700 l 1xdb
300 600 m 1xab
 300 500 l 1
 200 500 l 1
 200 600 l 1
 300 600 l 1xab
200 500 m 1xd5
 200 400 l 1
 100 400 l 1
 100 500 l 1
 200 500 l 1xd5
EndSplineSet
EndChar

StartChar: five
Encoding: 53 53 22
Width: 600
GlyphClass: 1
Flags: MW
HStem: 0 100<100 400 0 100> 100 100<0 100 0 100 0 400> 100 300<0 100 0 400 100 400 0 400 400 500 0 400> 400 100<100 400 100 400 100 500> 600 100<100 100 100 500>
VStem: 0 100<100 200 500 600> 100 300<0 100 0 100 100 200 0 100> 400 100<0 400 100 400 100 500 100 400 100 400>
LayerCount: 2
Fore
SplineSet
100 600 m 1x9d
 100 500 l 1
 400 500 l 1
 400 400 l 1
 0 400 l 1
 0 700 l 1
 500 700 l 1
 500 600 l 1
 100 600 l 1x9d
400 400 m 1x2d
 500 400 l 1
 500 100 l 1
 400 100 l 1
 400 400 l 1x2d
0 200 m 1x5d
 100 200 l 1
 100 100 l 1
 0 100 l 1
 0 200 l 1x5d
400 100 m 1x9a
 400 0 l 1
 100 0 l 1
 100 100 l 1
 400 100 l 1x9a
EndSplineSet
EndChar

StartChar: six
Encoding: 54 54 23
Width: 600
GlyphClass: 1
Flags: MW
HStem: 0 100<100 400 0 100> 100 200<0 100 0 100 100 400 400 500> 300 100<100 400 100 400 100 500> 500 100<0 200 100 200 100 200 100 200> 600 100<100 400 200 400 200 400 200 400>
VStem: 0 100<100 300 400 500> 100 100<400 600 500 600 500 600> 100 300<0 100 0 100 100 300 0 100> 200 200<600 700> 400 100<0 300 100 300 100 400 100 300 100 300>
LayerCount: 2
Fore
SplineSet
400 600 m 1xac80
 200 600 l 1
 200 700 l 1
 400 700 l 1
 400 600 l 1xac80
200 600 m 1xb240
 200 500 l 1
 100 500 l 1
 100 600 l 1
 200 600 l 1xb240
100 300 m 1xac40
 100 100 l 1
 0 100 l 1
 0 500 l 1
 100 500 l 1
 100 400 l 1
 400 400 l 1
 400 300 l 1
 100 300 l 1xac40
400 300 m 1x4c40
 500 300 l 1
 500 100 l 1
 400 100 l 1
 400 300 l 1x4c40
400 100 m 1xa9
 400 0 l 1
 100 0 l 1
 100 100 l 1
 400 100 l 1xa9
EndSplineSet
EndChar

StartChar: seven
Encoding: 55 55 24
Width: 600
GlyphClass: 1
Flags: MW
HStem: 0 300<200 300 200 300> 300 100<200 400 300 400 300 400 300 400> 600 100<100 400 100 100>
VStem: 0 100<500 600 500 700> 200 100<0 300 0 300> 300 100<0 400 300 400 300 400> 400 100<300 700 400 600 600 600>
LayerCount: 2
Fore
SplineSet
500 700 m 1x7a
 500 400 l 1
 400 400 l 1
 400 600 l 1
 100 600 l 1
 100 500 l 1
 0 500 l 1
 0 700 l 1
 500 700 l 1x7a
300 300 m 1x74
 300 400 l 1
 400 400 l 1
 400 300 l 1
 300 300 l 1x74
200 300 m 1xba
 300 300 l 1
 300 0 l 1
 200 0 l 1
 200 300 l 1xba
EndSplineSet
EndChar

StartChar: eight
Encoding: 56 56 25
Width: 600
GlyphClass: 1
Flags: MW
HStem: 0 100<100 400 0 100> 100 200<0 100 0 100 100 400 400 500> 300 100<0 100 100 400 0 100 0 100 400 500> 400 200<0 100 0 100 100 400 400 500> 600 100<0 400 100 400 100 400 100 400 100 500>
VStem: 0 100<100 300 400 600> 100 300<0 100 0 100 100 300 0 100 300 400 400 600 600 700> 400 100<0 300 100 300 100 300 100 400 100 300 400 600>
LayerCount: 2
Fore
SplineSet
100 600 m 1x0a
 100 700 l 1
 400 700 l 1
 400 600 l 1
 100 600 l 1x0a
100 600 m 1
 100 400 l 1
 0 400 l 1
 0 600 l 1x15
 100 600 l 1
400 600 m 1
 500 600 l 1
 500 400 l 1
 400 400 l 1
 400 600 l 1
400 400 m 1x22
 400 300 l 1
 100 300 l 1
 100 400 l 1
 400 400 l 1x22
100 300 m 1x45
 100 100 l 1
 0 100 l 1
 0 300 l 1
 100 300 l 1x45
400 100 m 1
 400 300 l 1
 500 300 l 1
 500 100 l 1
 400 100 l 1
400 100 m 1
 400 0 l 1
 100 0 l 1
 100 100 l 1x82
 400 100 l 1
EndSplineSet
EndChar

StartChar: nine
Encoding: 57 57 26
Width: 600
GlyphClass: 1
Flags: MW
HStem: 0 100<100 300 100 300> 100 100<100 400 300 400 300 400 300 400> 300 100<100 400 0 100> 400 200<0 100 0 100 100 400> 600 100<0 400 100 400 100 400 100 400 100 500>
VStem: 0 100<400 600> 100 200<0 100 0 100> 100 300<0 200 100 200 100 400 100 400 400 600 100 400 600 700> 300 100<0 200 100 200 100 200> 400 100<100 600 200 300 300 300 400 600 200 700 200 600 200 600>
LayerCount: 2
Fore
SplineSet
100 600 m 1xa9
 100 700 l 1
 400 700 l 1
 400 600 l 1
 100 600 l 1xa9
100 600 m 1
 100 400 l 1
 0 400 l 1
 0 600 l 1x9440
 100 600 l 1
400 600 m 1
 500 600 l 1
 500 200 l 1
 400 200 l 1
 400 300 l 1
 100 300 l 1
 100 400 l 1
 400 400 l 1xac40
 400 600 l 1
300 100 m 1x6c80
 300 200 l 1
 400 200 l 1
 400 100 l 1
 300 100 l 1x6c80
100 100 m 1xaa40
 300 100 l 1
 300 0 l 1
 100 0 l 1
 100 100 l 1xaa40
EndSplineSet
EndChar

StartChar: colon
Encoding: 58 58 27
Width: 200
GlyphClass: 1
Flags: MW
HStem: 0 200<0 100 0 100> 400 200<0 100 0 100>
VStem: 0 100<0 200 0 200 400 600>
LayerCount: 2
Fore
SplineSet
0 600 m 1
 100 600 l 1
 100 400 l 1
 0 400 l 1
 0 600 l 1
0 200 m 1
 100 200 l 1
 100 0 l 1
 0 0 l 1
 0 200 l 1
EndSplineSet
EndChar

StartChar: semicolon
Encoding: 59 59 28
Width: 200
GlyphClass: 1
Flags: MW
HStem: -100 300<0 100 0 100> 400 200<0 100 0 100>
VStem: 0 100<-100 200 -100 200 400 600>
LayerCount: 2
Fore
SplineSet
0 600 m 1
 100 600 l 1
 100 400 l 1
 0 400 l 1
 0 600 l 1
0 200 m 1
 100 200 l 1
 100 -100 l 1
 0 -100 l 1
 0 200 l 1
EndSplineSet
EndChar

StartChar: less
Encoding: 60 60 29
Width: 500
GlyphClass: 1
Flags: MW
HStem: 0 100<300 400> 100 100<200 300> 200 100<100 200> 300 100<0 100 0 100 100 200> 400 100<0 200 100 200 100 200 100 200> 500 100<100 300 200 300 200 300 200 300> 600 100<200 400 300 400 300 400 300 400>
VStem: 0 100<300 400> 100 100<200 300 400 500> 200 100<100 200 500 600> 300 100<0 100 0 100 0 200 0 100 600 700>
LayerCount: 2
Fore
SplineSet
300 600 m 1xaaa0
 300 700 l 1
 400 700 l 1
 400 600 l 1
 300 600 l 1xaaa0
200 500 m 1x0440
 200 600 l 1
 300 600 l 1
 300 500 l 1
 200 500 l 1x0440
100 400 m 1x0880
 100 500 l 1
 200 500 l 1
 200 400 l 1
 100 400 l 1x0880
0 300 m 1x11
 0 400 l 1
 100 400 l 1
 100 300 l 1
 0 300 l 1x11
100 200 m 1x2080
 100 300 l 1
 200 300 l 1
 200 200 l 1
 100 200 l 1x2080
200 100 m 1x4040
 200 200 l 1
 300 200 l 1
 300 100 l 1
 200 100 l 1x4040
300 0 m 1x8020
 300 100 l 1
 400 100 l 1
 400 0 l 1
 300 0 l 1x8020
EndSplineSet
EndChar

StartChar: equal
Encoding: 61 61 30
Width: 600
GlyphClass: 1
Flags: MW
HStem: 100 100<0 500 0 500> 400 100<0 500 0 500>
VStem: 0 500<100 200 100 200 400 500 100 500>
LayerCount: 2
Fore
SplineSet
500 500 m 1
 500 400 l 1
 0 400 l 1
 0 500 l 1
 500 500 l 1
500 200 m 1
 500 100 l 1
 0 100 l 1
 0 200 l 1
 500 200 l 1
EndSplineSet
EndChar

StartChar: greater
Encoding: 62 62 31
Width: 500
GlyphClass: 1
Flags: MW
HStem: 0 100<0 100 0 100> 100 100<0 200 100 200 100 200 100 200> 200 100<100 300 200 300 200 300 200 300> 300 100<200 300 300 400> 400 100<200 300> 500 100<100 200> 600 100<0 100 0 100 0 200>
VStem: 0 100<0 100 0 100 600 700> 100 100<0 200 100 200 100 200 500 600> 200 100<100 300 200 300 200 300 400 500> 300 100<200 400 300 400 300 400 300 500 300 400>
LayerCount: 2
Fore
SplineSet
0 600 m 1xab40
 0 700 l 1
 100 700 l 1
 100 600 l 1
 0 600 l 1xab40
100 500 m 1x0480
 100 600 l 1
 200 600 l 1
 200 500 l 1
 100 500 l 1x0480
200 400 m 1x0840
 200 500 l 1
 300 500 l 1
 300 400 l 1
 200 400 l 1x0840
300 300 m 1x1020
 300 400 l 1
 400 400 l 1
 400 300 l 1
 300 300 l 1x1020
200 200 m 1x2040
 200 300 l 1
 300 300 l 1
 300 200 l 1
 200 200 l 1x2040
100 100 m 1x4080
 100 200 l 1
 200 200 l 1
 200 100 l 1
 100 100 l 1x4080
0 0 m 1x81
 0 100 l 1
 100 100 l 1
 100 0 l 1
 0 0 l 1x81
EndSplineSet
EndChar

StartChar: question
Encoding: 63 63 32
Width: 600
GlyphClass: 1
Flags: MW
HStem: 0 100<200 300 200 300> 200 100<200 300 200 300> 300 100<200 400 300 400 300 400 300 400> 400 200<300 400 400 500> 500 100<0 100 0 100> 600 100<0 400 100 400 100 400 100 400 100 500>
VStem: 0 100<500 600 500 600> 100 300<500 600 500 500 600 700> 200 100<0 100 0 100 200 300> 300 100<200 400 300 400 300 400> 400 100<300 600 400 600 400 700 400 600 400 600>
LayerCount: 2
Fore
SplineSet
400 700 m 1x05
 400 600 l 1
 100 600 l 1
 100 700 l 1
 400 700 l 1x05
0 500 m 1x0a
 0 600 l 1
 100 600 l 1
 100 500 l 1
 0 500 l 1x0a
400 600 m 1x1020
 500 600 l 1
 500 400 l 1
 400 400 l 1
 400 600 l 1x1020
300 300 m 1x2040
 300 400 l 1
 400 400 l 1
 400 300 l 1
 300 300 l 1x2040
200 200 m 1xc080
 200 300 l 1
 300 300 l 1
 300 200 l 1
 200 200 l 1xc080
200 0 m 1
 200 100 l 1
 300 100 l 1
 300 0 l 1
 200 0 l 1
EndSplineSet
EndChar

StartChar: at
Encoding: 64 64 33
Width: 700
GlyphClass: 1
Flags: MW
HStem: 0 100<0 100 100 500> 200 100<400 500 400 600> 600 100<0 500 100 500 100 500 100 500 100 600>
VStem: 0 100<100 600> 200 200<300 500 300 500 300 500> 500 100<300 600 200 700 200 600 200 600>
LayerCount: 2
Fore
SplineSet
500 700 m 1
 500 600 l 1
 100 600 l 1
 100 700 l 1
 500 700 l 1
0 600 m 1
 100 600 l 1
 100 100 l 1
 0 100 l 1
 0 600 l 1
500 600 m 1
 600 600 l 1
 600 200 l 1
 200 200 l 1
 200 500 l 1
 400 500 l 1
 400 300 l 1
 500 300 l 1
 500 600 l 1
100 0 m 1
 100 100 l 1
 500 100 l 1
 500 0 l 1
 100 0 l 1
EndSplineSet
EndChar

StartChar: A
Encoding: 65 65 34
Width: 600
GlyphClass: 1
Flags: MW
HStem: 400 100<100 400 100 400> 600 100<0 400 100 400 100 400 100 400 100 500>
VStem: 0 100<0 400 500 600> 100 300<0 400 0 400 0 500 500 600 600 700> 400 100<0 400 400 400 500 600 0 700 0 600 0 600>
LayerCount: 2
Fore
SplineSet
100 600 m 1xd0
 100 700 l 1
 400 700 l 1
 400 600 l 1
 100 600 l 1xd0
400 600 m 1xe8
 500 600 l 1
 500 0 l 1
 400 0 l 1
 400 400 l 1
 100 400 l 1
 100 0 l 1
 0 0 l 1
 0 600 l 1
 100 600 l 1
 100 500 l 1
 400 500 l 1
 400 600 l 1xe8
EndSplineSet
EndChar

StartChar: B
Encoding: 66 66 35
Width: 600
GlyphClass: 1
Flags: MW
HStem: 0 100<100 400 100 400> 100 300<100 400 100 400 400 500 100 400> 400 100<100 400 100 400 400 500> 500 100<100 400 100 400 400 500 100 400> 600 100<100 400 100 100 0 500>
VStem: 0 100<100 400 500 600> 400 100<0 400 100 400 100 400 100 500 100 400 500 600>
LayerCount: 2
Fore
SplineSet
400 500 m 1xae
 400 400 l 1
 100 400 l 1
 100 100 l 1
 400 100 l 1
 400 0 l 1
 0 0 l 1
 0 700 l 1
 400 700 l 1
 400 600 l 1
 100 600 l 1
 100 500 l 1
 400 500 l 1xae
500 500 m 1x56
 400 500 l 1
 400 600 l 1
 500 600 l 1
 500 500 l 1x56
400 400 m 1
 500 400 l 1
 500 100 l 1
 400 100 l 1
 400 400 l 1
EndSplineSet
EndChar

StartChar: C
Encoding: 67 67 36
Width: 600
GlyphClass: 1
Flags: MW
HStem: 0 100<0 100 100 400> 100 100<100 500 400 500 400 500 400 500> 500 100<400 500> 600 100<0 400 100 400 100 400 100 400 100 500>
VStem: 0 100<100 600> 100 300<0 100 0 100 100 200 500 600 0 100 600 700> 400 100<0 200 100 200 100 200 500 600>
LayerCount: 2
Fore
SplineSet
400 700 m 1x94
 400 600 l 1
 100 600 l 1
 100 700 l 1
 400 700 l 1x94
0 600 m 1x9a
 100 600 l 1
 100 100 l 1
 0 100 l 1
 0 600 l 1x9a
500 500 m 1x6a
 400 500 l 1
 400 600 l 1
 500 600 l 1
 500 500 l 1x6a
500 200 m 1
 500 100 l 1
 400 100 l 1
 400 200 l 1
 500 200 l 1
100 0 m 1x94
 100 100 l 1
 400 100 l 1
 400 0 l 1
 100 0 l 1x94
EndSplineSet
EndChar

StartChar: D
Encoding: 68 68 37
Width: 600
GlyphClass: 1
Flags: MW
HStem: 0 100<100 400 100 400> 600 100<100 400 100 100 0 500>
VStem: 0 100<100 600 100 700> 400 100<0 600 100 600 100 600 100 600 100 700>
LayerCount: 2
Fore
SplineSet
400 100 m 1
 400 0 l 1
 0 0 l 1
 0 700 l 1
 400 700 l 1
 400 600 l 1
 100 600 l 1
 100 100 l 1
 400 100 l 1
400 600 m 1
 500 600 l 1
 500 100 l 1
 400 100 l 1
 400 600 l 1
EndSplineSet
EndChar

StartChar: E
Encoding: 69 69 38
Width: 600
GlyphClass: 1
Flags: MW
HStem: 0 100<100 500 100 500> 400 100<100 300 100 300> 600 100<100 100 100 500>
VStem: 0 100<100 400 500 600>
LayerCount: 2
Fore
SplineSet
100 600 m 1
 100 500 l 1
 300 500 l 1
 300 400 l 1
 100 400 l 1
 100 100 l 1
 500 100 l 1
 500 0 l 1
 0 0 l 1
 0 700 l 1
 500 700 l 1
 500 600 l 1
 100 600 l 1
EndSplineSet
EndChar

StartChar: F
Encoding: 70 70 39
Width: 600
GlyphClass: 1
Flags: MW
HStem: 400 100<100 300 100 300> 600 100<100 500 100 100>
VStem: 0 100<0 400 500 600>
LayerCount: 2
Fore
SplineSet
500 700 m 1
 500 600 l 1
 100 600 l 1
 100 500 l 1
 300 500 l 1
 300 400 l 1
 100 400 l 1
 100 0 l 1
 0 0 l 1
 0 700 l 1
 500 700 l 1
EndSplineSet
EndChar

StartChar: G
Encoding: 71 71 40
Width: 600
GlyphClass: 1
Flags: MW
HStem: 0 100<0 100 100 400> 400 100<300 400 300 500> 600 100<0 500 100 500 100 500 100 500>
VStem: 0 100<100 600> 100 300<0 100 0 100 0 100 100 400> 400 100<0 100 100 400 400 400>
LayerCount: 2
Fore
SplineSet
100 600 m 1xf4
 100 700 l 1
 500 700 l 1
 500 600 l 1
 100 600 l 1xf4
100 100 m 1
 0 100 l 1
 0 600 l 1
 100 600 l 1
 100 100 l 1
500 100 m 1
 400 100 l 1
 400 400 l 1
 300 400 l 1
 300 500 l 1
 500 500 l 1
 500 100 l 1
100 0 m 1xe8
 100 100 l 1
 400 100 l 1
 400 0 l 1
 100 0 l 1xe8
EndSplineSet
EndChar

StartChar: H
Encoding: 72 72 41
Width: 600
GlyphClass: 1
Flags: MW
HStem: 400 100<100 400 100 400>
VStem: 0 100<0 400 500 700> 400 100<0 400 400 400 500 700 0 700>
LayerCount: 2
Fore
SplineSet
400 700 m 1
 500 700 l 1
 500 0 l 1
 400 0 l 1
 400 400 l 1
 100 400 l 1
 100 0 l 1
 0 0 l 1
 0 700 l 1
 100 700 l 1
 100 500 l 1
 400 500 l 1
 400 700 l 1
EndSplineSet
EndChar

StartChar: I
Encoding: 73 73 42
Width: 400
GlyphClass: 1
Flags: MW
HStem: 0 100<0 100 200 300 0 100> 600 100<0 100 0 300 200 200 200 300>
VStem: 100 100<100 600>
LayerCount: 2
Fore
SplineSet
200 100 m 1
 300 100 l 1
 300 0 l 1
 0 0 l 1
 0 100 l 1
 100 100 l 1
 100 600 l 1
 0 600 l 1
 0 700 l 1
 300 700 l 1
 300 600 l 1
 200 600 l 1
 200 100 l 1
EndSplineSet
EndChar

StartChar: J
Encoding: 74 74 43
Width: 600
GlyphClass: 1
Flags: MW
HStem: 0 100<100 400 0 100> 100 100<0 100 0 100 0 400>
VStem: 0 100<100 200> 100 300<0 100 0 100 100 200 0 100> 400 100<0 700 100 700 100 700>
LayerCount: 2
Fore
SplineSet
400 700 m 1xa8
 500 700 l 1
 500 100 l 1
 400 100 l 1
 400 700 l 1xa8
0 200 m 1x68
 100 200 l 1
 100 100 l 1
 0 100 l 1
 0 200 l 1x68
400 100 m 1x90
 400 0 l 1
 100 0 l 1
 100 100 l 1
 400 100 l 1x90
EndSplineSet
EndChar

StartChar: K
Encoding: 75 75 44
Width: 600
GlyphClass: 1
Flags: MW
HStem: 0 300<0 400 300 400 400 500> 300 100<300 400 100 300> 400 100<100 300 100 300 300 400> 500 100<100 400 300 400 300 400 300 400> 600 100<400 500>
VStem: 0 100<0 400 500 700> 300 100<300 400 500 600> 400 100<0 300 0 300 0 300 0 400 600 700>
LayerCount: 2
Fore
SplineSet
300 500 m 1x2d
 300 400 l 1
 100 400 l 1
 100 0 l 1
 0 0 l 1
 0 700 l 1
 100 700 l 1
 100 500 l 1
 300 500 l 1x2d
500 700 m 1
 500 600 l 1
 400 600 l 1
 400 700 l 1
 500 700 l 1
400 600 m 1x56
 400 500 l 1
 300 500 l 1
 300 600 l 1
 400 600 l 1x56
400 300 m 1
 300 300 l 1
 300 400 l 1
 400 400 l 1
 400 300 l 1
400 300 m 1
 500 300 l 1
 500 0 l 1
 400 0 l 1xad
 400 300 l 1
EndSplineSet
EndChar

StartChar: L
Encoding: 76 76 45
Width: 600
GlyphClass: 1
Flags: MW
HStem: 0 100<100 500 100 500>
VStem: 0 100<100 700 100 700 100 700>
LayerCount: 2
Fore
SplineSet
500 100 m 1
 500 0 l 1
 0 0 l 1
 0 700 l 1
 100 700 l 1
 100 100 l 1
 500 100 l 1
EndSplineSet
EndChar

StartChar: M
Encoding: 77 77 46
Width: 600
GlyphClass: 1
Flags: MW
HStem: 400 100<100 200 200 300> 500 100<100 200 100 200 100 300 300 400>
VStem: 0 100<0 500 600 700> 200 100<400 500 400 500 500 600 400 500> 400 100<0 500 500 500 600 700 0 700>
LayerCount: 2
Fore
SplineSet
100 600 m 1x78
 200 600 l 1
 200 500 l 1
 100 500 l 1
 100 0 l 1
 0 0 l 1
 0 700 l 1
 100 700 l 1
 100 600 l 1x78
400 700 m 1
 500 700 l 1
 500 0 l 1
 400 0 l 1
 400 500 l 1
 300 500 l 1
 300 600 l 1
 400 600 l 1
 400 700 l 1
200 400 m 1xb8
 200 500 l 1
 300 500 l 1
 300 400 l 1
 200 400 l 1xb8
EndSplineSet
EndChar

StartChar: N
Encoding: 78 78 47
Width: 600
GlyphClass: 1
Flags: MW
HStem: 300 100<300 400 200 300> 400 100<200 300 100 200> 500 100<100 200 100 200 100 300>
VStem: 0 100<0 500 600 700> 200 100<400 500> 400 100<0 300 300 300 400 700 0 700>
LayerCount: 2
Fore
SplineSet
100 600 m 1xbc
 200 600 l 1
 200 500 l 1
 100 500 l 1
 100 0 l 1
 0 0 l 1
 0 700 l 1
 100 700 l 1
 100 600 l 1xbc
400 700 m 1
 500 700 l 1
 500 0 l 1
 400 0 l 1
 400 300 l 1
 300 300 l 1
 300 400 l 1
 400 400 l 1
 400 700 l 1
200 500 m 1x5c
 300 500 l 1
 300 400 l 1
 200 400 l 1
 200 500 l 1x5c
EndSplineSet
EndChar

StartChar: O
Encoding: 79 79 48
Width: 600
GlyphClass: 1
Flags: MW
HStem: 0 100<100 400 0 100> 600 100<0 400 100 400 100 400 100 400 100 500>
VStem: 0 100<100 600> 100 300<0 100 0 100 0 100 100 600 600 700> 400 100<0 600 100 600 100 700 100 600 100 600>
LayerCount: 2
Fore
SplineSet
100 600 m 1xd0
 100 700 l 1
 400 700 l 1
 400 600 l 1
 100 600 l 1xd0
100 100 m 1xe8
 0 100 l 1
 0 600 l 1
 100 600 l 1
 100 100 l 1xe8
400 600 m 1
 500 600 l 1
 500 100 l 1
 400 100 l 1
 400 600 l 1
400 100 m 1xd0
 400 0 l 1
 100 0 l 1
 100 100 l 1
 400 100 l 1xd0
EndSplineSet
EndChar

StartChar: P
Encoding: 80 80 49
Width: 600
GlyphClass: 1
Flags: MW
HStem: 400 100<100 400 100 400> 500 100<100 400 100 400 400 500 100 400> 600 100<100 400 100 100 0 500>
VStem: 0 100<0 400 500 600> 400 100<400 600 500 600 500 600 500 600 500 700>
LayerCount: 2
Fore
SplineSet
400 500 m 1xb8
 400 400 l 1
 100 400 l 1
 100 0 l 1
 0 0 l 1
 0 700 l 1
 400 700 l 1
 400 600 l 1
 100 600 l 1
 100 500 l 1
 400 500 l 1xb8
400 600 m 1x58
 500 600 l 1
 500 500 l 1
 400 500 l 1
 400 600 l 1x58
EndSplineSet
EndChar

StartChar: Q
Encoding: 81 81 50
Width: 600
GlyphClass: 1
Flags: MW
HStem: 0 100<100 300 0 100 400 500> 100 100<100 400 300 400 300 400 300 400 400 500> 600 100<0 400 100 400 100 400 100 400 100 500>
VStem: 0 100<100 600> 100 200<0 100 0 100 0 100 100 200 0 600> 100 300<0 100 0 100 0 100 100 200 200 600 600 700> 300 100<0 100 0 100 100 200> 400 100<0 100 200 600>
LayerCount: 2
Fore
SplineSet
100 600 m 1x24
 100 700 l 1
 400 700 l 1
 400 600 l 1
 100 600 l 1x24
100 100 m 1x91
 0 100 l 1
 0 600 l 1
 100 600 l 1
 100 100 l 1x91
400 600 m 1
 500 600 l 1
 500 200 l 1
 400 200 l 1
 400 600 l 1
300 100 m 1x42
 300 200 l 1
 400 200 l 1
 400 100 l 1
 300 100 l 1x42
100 100 m 1x89
 300 100 l 1
 300 0 l 1
 100 0 l 1
 100 100 l 1x89
500 0 m 1
 400 0 l 1
 400 100 l 1
 500 100 l 1
 500 0 l 1
EndSplineSet
EndChar

StartChar: R
Encoding: 82 82 51
Width: 600
GlyphClass: 1
Flags: MW
HStem: 400 100<100 400 100 400 400 500> 500 100<100 400 100 400 400 500 100 400> 600 100<100 400 100 100 0 500>
VStem: 0 100<0 400 500 600> 400 100<0 400 0 500 0 400 0 400 500 600>
LayerCount: 2
Fore
SplineSet
400 500 m 1xb8
 400 400 l 1
 100 400 l 1
 100 0 l 1
 0 0 l 1
 0 700 l 1
 400 700 l 1
 400 600 l 1
 100 600 l 1
 100 500 l 1
 400 500 l 1xb8
500 500 m 1x58
 400 500 l 1
 400 600 l 1
 500 600 l 1
 500 500 l 1x58
400 400 m 1
 500 400 l 1
 500 0 l 1
 400 0 l 1
 400 400 l 1
EndSplineSet
EndChar

StartChar: S
Encoding: 83 83 52
Width: 600
GlyphClass: 1
Flags: MW
HStem: 0 100<100 400 0 100> 100 100<0 100 0 100 0 400> 100 300<0 100 0 100 100 400 400 500> 400 100<0 100 100 400> 500 100<0 100 0 100 100 400 400 400> 600 100<0 500 100 500 100 500 100 500>
VStem: 0 100<100 200 500 600> 100 300<0 100 0 100 100 200 0 100 400 500> 400 100<0 400 100 400 100 500 100 400 100 400>
LayerCount: 2
Fore
SplineSet
100 600 m 1x9680
 100 700 l 1
 500 700 l 1
 500 600 l 1
 100 600 l 1x9680
0 600 m 1x0a
 100 600 l 1
 100 500 l 1
 0 500 l 1
 0 600 l 1x0a
100 400 m 1x11
 100 500 l 1
 400 500 l 1
 400 400 l 1
 100 400 l 1x11
400 400 m 1x2080
 500 400 l 1
 500 100 l 1
 400 100 l 1
 400 400 l 1x2080
0 200 m 1x42
 100 200 l 1
 100 100 l 1
 0 100 l 1
 0 200 l 1x42
400 100 m 1x81
 400 0 l 1
 100 0 l 1
 100 100 l 1
 400 100 l 1x81
EndSplineSet
EndChar

StartChar: T
Encoding: 84 84 53
Width: 600
GlyphClass: 1
Flags: MW
HStem: 600 100<0 200 0 500 300 500 300 300>
VStem: 200 100<0 600 0 600>
LayerCount: 2
Fore
SplineSet
500 700 m 1
 500 600 l 1
 300 600 l 1
 300 0 l 1
 200 0 l 1
 200 600 l 1
 0 600 l 1
 0 700 l 1
 500 700 l 1
EndSplineSet
EndChar

StartChar: U
Encoding: 85 85 54
Width: 600
GlyphClass: 1
Flags: MW
HStem: 0 100<100 400 0 100>
VStem: 0 100<100 700> 100 300<0 100 0 100 0 100 100 700> 400 100<0 700 100 700 100 700>
LayerCount: 2
Fore
SplineSet
100 100 m 1xd0
 0 100 l 1
 0 700 l 1
 100 700 l 1
 100 100 l 1xd0
400 700 m 1
 500 700 l 1
 500 100 l 1
 400 100 l 1
 400 700 l 1
400 100 m 1xa0
 400 0 l 1
 100 0 l 1
 100 100 l 1
 400 100 l 1xa0
EndSplineSet
EndChar

StartChar: V
Encoding: 86 86 55
Width: 600
GlyphClass: 1
Flags: MW
HStem: 0 100<100 200 200 300> 100 200<100 200 0 100 0 300 300 400>
VStem: 0 100<300 700> 100 100<100 300> 200 100<0 100 0 100 100 300 0 100> 300 100<0 300 100 300 100 300> 400 100<100 700 300 700 300 700>
LayerCount: 2
Fore
SplineSet
100 300 m 1xaa
 0 300 l 1
 0 700 l 1
 100 700 l 1
 100 300 l 1xaa
400 700 m 1
 500 700 l 1
 500 300 l 1
 400 300 l 1
 400 700 l 1
200 300 m 1x54
 200 100 l 1
 100 100 l 1
 100 300 l 1
 200 300 l 1x54
300 300 m 1
 400 300 l 1
 400 100 l 1
 300 100 l 1
 300 300 l 1
200 0 m 1xaa
 200 100 l 1
 300 100 l 1
 300 0 l 1
 200 0 l 1xaa
EndSplineSet
EndChar

StartChar: W
Encoding: 87 87 56
Width: 600
GlyphClass: 1
Flags: MW
HStem: 100 100<100 200 100 200 300 400> 200 100<100 300 200 300 200 300 200 300 200 400>
VStem: 0 100<0 100 200 700> 200 100<100 200 100 200 200 300> 400 100<0 100 100 100 200 700 0 700>
LayerCount: 2
Fore
SplineSet
100 200 m 1xb8
 200 200 l 1
 200 100 l 1
 100 100 l 1
 100 0 l 1
 0 0 l 1
 0 700 l 1
 100 700 l 1
 100 200 l 1xb8
400 700 m 1
 500 700 l 1
 500 0 l 1
 400 0 l 1
 400 100 l 1
 300 100 l 1
 300 200 l 1
 400 200 l 1
 400 700 l 1
200 300 m 1x78
 300 300 l 1
 300 200 l 1
 200 200 l 1
 200 300 l 1x78
EndSplineSet
EndChar

StartChar: X
Encoding: 88 88 57
Width: 600
GlyphClass: 1
Flags: MW
HStem: 0 300<0 100 0 100 400 500> 300 100<0 200 100 200 100 200 100 200 300 400> 400 100<100 200 100 200 200 300 100 200 300 400> 500 100<100 200 0 100 300 400> 600 100<0 100 0 100 0 200 400 500>
VStem: 0 100<0 300 0 300 600 700> 100 100<0 400 300 400 300 400 500 600> 200 100<300 400 300 400 400 500 500 600> 300 100<300 400 500 600> 400 100<0 300 0 300 0 300 0 400 600 700>
LayerCount: 2
Fore
SplineSet
0 700 m 1x0c40
 100 700 l 1
 100 600 l 1
 0 600 l 1
 0 700 l 1x0c40
500 700 m 1
 500 600 l 1
 400 600 l 1
 400 700 l 1
 500 700 l 1
100 600 m 1x1280
 200 600 l 1
 200 500 l 1
 100 500 l 1
 100 600 l 1x1280
400 600 m 1
 400 500 l 1
 300 500 l 1
 300 600 l 1
 400 600 l 1
200 500 m 1x21
 300 500 l 1
 300 400 l 1
 200 400 l 1
 200 500 l 1x21
100 300 m 1x4280
 100 400 l 1
 200 400 l 1
 200 300 l 1
 100 300 l 1x4280
400 300 m 1
 300 300 l 1
 300 400 l 1
 400 400 l 1
 400 300 l 1
0 300 m 1x8440
 100 300 l 1
 100 0 l 1
 0 0 l 1
 0 300 l 1x8440
400 300 m 1
 500 300 l 1
 500 0 l 1
 400 0 l 1
 400 300 l 1
EndSplineSet
EndChar

StartChar: Y
Encoding: 89 89 58
Width: 600
GlyphClass: 1
Flags: MW
HStem: 500 100<100 200 0 100 300 400> 600 100<0 100 0 100 0 200 400 500>
VStem: 0 100<600 700> 100 100<500 600> 200 100<0 500 500 600 0 500 0 500> 300 100<0 600 500 600 500 600> 400 100<500 700 600 700 600 700>
LayerCount: 2
Fore
SplineSet
0 700 m 1x6a
 100 700 l 1
 100 600 l 1
 0 600 l 1
 0 700 l 1x6a
400 700 m 1
 500 700 l 1
 500 600 l 1
 400 600 l 1
 400 700 l 1
100 600 m 1x94
 200 600 l 1
 200 500 l 1
 100 500 l 1
 100 600 l 1x94
300 500 m 1
 300 600 l 1
 400 600 l 1
 400 500 l 1
 300 500 l 1
200 500 m 1xaa
 300 500 l 1
 300 0 l 1
 200 0 l 1
 200 500 l 1xaa
EndSplineSet
EndChar

StartChar: Z
Encoding: 90 90 59
Width: 600
GlyphClass: 1
Flags: MW
HStem: 0 100<100 500 100 500> 200 100<0 200 100 200 100 200 100 200> 300 100<100 300 200 300 200 300 200 300> 400 100<200 400 300 400 300 400 300 400> 600 100<0 400 0 500>
VStem: 0 100<100 200 100 200 100 200> 100 100<100 300 200 300 200 300> 200 100<200 400 300 400 300 400> 300 100<300 500 400 500 400 500> 400 100<500 600 600 600>
LayerCount: 2
Fore
SplineSet
500 700 m 1xdd40
 500 500 l 1
 400 500 l 1
 400 600 l 1
 0 600 l 1
 0 700 l 1
 500 700 l 1xdd40
300 400 m 1xdc80
 300 500 l 1
 400 500 l 1
 400 400 l 1
 300 400 l 1xdc80
200 300 m 1xad40
 200 400 l 1
 300 400 l 1
 300 300 l 1
 200 300 l 1xad40
100 200 m 1xda40
 100 300 l 1
 200 300 l 1
 200 200 l 1
 100 200 l 1xda40
0 200 m 1xdd40
 100 200 l 1
 100 100 l 1
 500 100 l 1
 500 0 l 1
 0 0 l 1
 0 200 l 1xdd40
EndSplineSet
EndChar

StartChar: bracketleft
Encoding: 91 91 60
Width: 400
GlyphClass: 1
Flags: MW
HStem: 0 100<100 300 100 300> 600 100<100 300 100 100>
VStem: 0 100<100 100 100 600>
LayerCount: 2
Fore
SplineSet
100 100 m 1
 300 100 l 1
 300 0 l 1
 0 0 l 1
 0 700 l 1
 300 700 l 1
 300 600 l 1
 100 600 l 1
 100 100 l 1
EndSplineSet
EndChar

StartChar: backslash
Encoding: 92 92 61
Width: 600
GlyphClass: 1
Flags: MW
HStem: 0 100<400 500 300 400> 100 200<300 400 200 300 200 500> 300 100<200 300 100 200> 400 200<100 200 0 100 0 300> 600 100<0 100 0 100 0 200>
VStem: 0 100<600 700> 100 100<400 600> 200 100<300 400> 300 100<100 300> 400 100<0 100 0 300 0 100 0 100>
LayerCount: 2
Fore
SplineSet
0 700 m 1xac80
 100 700 l 1
 100 600 l 1
 0 600 l 1
 0 700 l 1xac80
200 600 m 1x9280
 200 400 l 1
 100 400 l 1
 100 600 l 1
 200 600 l 1x9280
200 400 m 1xa9
 300 400 l 1
 300 300 l 1
 200 300 l 1
 200 400 l 1xa9
400 300 m 1x4a80
 400 100 l 1
 300 100 l 1
 300 300 l 1
 400 300 l 1x4a80
400 100 m 1xaa40
 500 100 l 1
 500 0 l 1
 400 0 l 1
 400 100 l 1xaa40
EndSplineSet
EndChar

StartChar: bracketright
Encoding: 93 93 62
Width: 400
GlyphClass: 1
Flags: MW
HStem: 0 100<0 200 0 300 0 200> 600 100<0 200 0 300>
VStem: 200 100<100 600 600 600>
LayerCount: 2
Fore
SplineSet
300 700 m 1
 300 0 l 1
 0 0 l 1
 0 100 l 1
 200 100 l 1
 200 600 l 1
 0 600 l 1
 0 700 l 1
 300 700 l 1
EndSplineSet
EndChar

StartChar: asciicircum
Encoding: 94 94 63
Width: 600
GlyphClass: 1
Flags: MW
HStem: 400 100<0 100 0 100 400 500> 500 100<0 200 100 200 100 200 100 200 300 400> 600 100<100 300 200 300 200 300 200 300 200 400>
VStem: 0 100<400 500 400 500> 100 100<400 600 500 600 500 600> 200 100<500 600 500 600 600 700> 300 100<500 600> 400 100<400 500 400 500 400 600 400 500>
LayerCount: 2
Fore
SplineSet
200 600 m 1x35
 200 700 l 1
 300 700 l 1
 300 600 l 1
 200 600 l 1x35
100 500 m 1x4a
 100 600 l 1
 200 600 l 1
 200 500 l 1
 100 500 l 1x4a
300 500 m 1
 300 600 l 1
 400 600 l 1
 400 500 l 1
 300 500 l 1
0 400 m 1x95
 0 500 l 1
 100 500 l 1
 100 400 l 1
 0 400 l 1x95
400 400 m 1
 400 500 l 1
 500 500 l 1
 500 400 l 1
 400 400 l 1
EndSplineSet
EndChar

StartChar: underscore
Encoding: 95 95 64
Width: 600
GlyphClass: 1
Flags: MW
HStem: -100 100<0 500 0 500>
VStem: 0 500<-100 0 -100 0>
LayerCount: 2
Fore
SplineSet
500 0 m 1
 500 -100 l 1
 0 -100 l 1
 0 0 l 1
 500 0 l 1
EndSplineSet
EndChar

StartChar: a
Encoding: 97 97 65
Width: 600
GlyphClass: 1
Flags: MW
HStem: 0 100<100 400 0 100> 100 100<0 100 0 100 100 400> 200 100<0 400 100 400 100 400 100 400> 400 100<100 400 100 400 100 500>
VStem: 0 100<100 200> 100 300<0 200 100 200 100 200 100 200 100 300 100 300 400 500> 400 100<100 200 200 200 300 400 0 500 0 400 0 400>
LayerCount: 2
Fore
SplineSet
400 500 m 1xb4
 400 400 l 1
 100 400 l 1
 100 500 l 1
 400 500 l 1xb4
400 400 m 1xba
 500 400 l 1
 500 0 l 1
 100 0 l 1
 100 100 l 1
 400 100 l 1
 400 200 l 1
 100 200 l 1
 100 300 l 1
 400 300 l 1
 400 400 l 1xba
0 200 m 1x5a
 100 200 l 1
 100 100 l 1
 0 100 l 1
 0 200 l 1x5a
EndSplineSet
EndChar

StartChar: b
Encoding: 98 98 66
Width: 600
GlyphClass: 1
Flags: MW
HStem: 0 100<100 400 100 400> 100 300<100 200 200 400 100 400 400 500 100 400> 300 100<100 200 100 200> 400 100<100 400 200 400 200 400 200 400 200 500>
VStem: 0 100<100 300 400 700> 200 200<300 400 300 300 400 500> 400 100<0 400 100 400 100 400 100 500 100 400>
LayerCount: 2
Fore
SplineSet
400 100 m 1x9a
 400 0 l 1
 0 0 l 1
 0 700 l 1
 100 700 l 1
 100 400 l 1
 200 400 l 1
 200 300 l 1
 100 300 l 1xaa
 100 100 l 1
 400 100 l 1x9a
400 400 m 1x9c
 200 400 l 1
 200 500 l 1
 400 500 l 1
 400 400 l 1x9c
400 400 m 1
 500 400 l 1
 500 100 l 1
 400 100 l 1x4a
 400 400 l 1
EndSplineSet
EndChar

StartChar: c
Encoding: 99 99 67
Width: 600
GlyphClass: 1
Flags: MW
HStem: 0 100<0 100 100 400> 100 100<100 500 400 500 400 500 400 500> 100 300<0 100 0 100 100 400 400 500> 300 100<400 500> 400 100<0 400 100 400 100 400 100 400 100 500>
VStem: 0 100<100 400> 100 300<0 100 0 100 100 200 300 400 0 100 400 500> 400 100<0 200 100 200 100 200 300 400>
LayerCount: 2
Fore
SplineSet
400 500 m 1x8a
 400 400 l 1
 100 400 l 1
 100 500 l 1
 400 500 l 1x8a
0 400 m 1x25
 100 400 l 1
 100 100 l 1
 0 100 l 1
 0 400 l 1x25
500 300 m 1x55
 400 300 l 1
 400 400 l 1
 500 400 l 1
 500 300 l 1x55
500 200 m 1
 500 100 l 1
 400 100 l 1
 400 200 l 1
 500 200 l 1
100 0 m 1x8a
 100 100 l 1
 400 100 l 1
 400 0 l 1
 100 0 l 1x8a
EndSplineSet
EndChar

StartChar: d
Encoding: 100 100 68
Width: 600
GlyphClass: 1
Flags: MW
HStem: 0 100<100 400 0 100> 100 300<0 100 0 100 100 300 300 400> 300 100<300 400> 400 100<0 300 100 300 100 300 100 300 100 400>
VStem: 0 100<100 400> 100 200<300 400 300 400 400 500 300 500> 400 100<100 300 300 300 400 700 0 700>
LayerCount: 2
Fore
SplineSet
400 700 m 1x9a
 500 700 l 1
 500 0 l 1
 100 0 l 1
 100 100 l 1
 400 100 l 1
 400 300 l 1
 300 300 l 1
 300 400 l 1
 400 400 l 1xaa
 400 700 l 1x9a
300 400 m 1x96
 100 400 l 1
 100 500 l 1
 300 500 l 1
 300 400 l 1x96
100 100 m 1x4a
 0 100 l 1
 0 400 l 1
 100 400 l 1
 100 100 l 1x4a
EndSplineSet
EndChar

StartChar: e
Encoding: 101 101 69
Width: 600
GlyphClass: 1
Flags: MW
HStem: 0 100<0 100 100 500> 200 100<100 400 100 500 100 400> 400 100<0 400 100 400 100 400 100 400 100 500>
VStem: 0 100<100 200 300 400> 100 300<0 400 100 400 100 400 100 400 300 400 300 400 400 500 300 500> 400 100<300 400>
LayerCount: 2
Fore
SplineSet
100 400 m 5xe8
 100 500 l 5
 400 500 l 5
 400 400 l 5
 100 400 l 5xe8
400 400 m 5xf4
 500 400 l 5
 500 200 l 5
 100 200 l 5
 100 100 l 5
 0 100 l 5
 0 400 l 5
 100 400 l 5
 100 300 l 5
 400 300 l 5
 400 400 l 5xf4
100 0 m 5
 100 100 l 5
 500 100 l 5
 500 0 l 5
 100 0 l 5
EndSplineSet
EndChar

StartChar: f
Encoding: 102 102 70
Width: 500
GlyphClass: 1
Flags: MW
HStem: 400 100<0 100 0 100 200 400> 600 100<100 400 200 400 200 400 200 400>
VStem: 100 100<0 400 0 400 500 600> 200 200<0 500 400 600 400 500 600 700>
LayerCount: 2
Fore
SplineSet
400 600 m 1xd0
 200 600 l 1
 200 700 l 1
 400 700 l 1
 400 600 l 1xd0
100 600 m 1xe0
 200 600 l 1
 200 500 l 1
 400 500 l 1
 400 400 l 1
 200 400 l 1
 200 0 l 1
 100 0 l 1
 100 400 l 1
 0 400 l 1
 0 500 l 1
 100 500 l 1
 100 600 l 1xe0
EndSplineSet
EndChar

StartChar: g
Encoding: 103 103 71
Width: 600
GlyphClass: 1
Flags: MW
HStem: -100 100<0 400 0 400> 100 100<100 400 0 100> 200 200<0 100 0 100 100 400> 400 100<0 500 100 400 100 500 100 500>
VStem: 0 100<200 400> 400 100<-100 500 0 100 100 100 200 400 400 400>
LayerCount: 2
Fore
SplineSet
500 500 m 1xdc
 500 0 l 1
 400 0 l 1
 400 100 l 1
 100 100 l 1
 100 200 l 1
 400 200 l 1
 400 400 l 1
 100 400 l 1
 100 500 l 1
 500 500 l 1xdc
100 400 m 1xac
 100 200 l 1
 0 200 l 1
 0 400 l 1
 100 400 l 1xac
400 0 m 1
 400 -100 l 1
 0 -100 l 1
 0 0 l 1
 400 0 l 1
EndSplineSet
EndChar

StartChar: h
Encoding: 104 104 72
Width: 600
GlyphClass: 1
Flags: MW
HStem: 300 100<100 200 100 200> 400 100<100 400 200 400 200 400 200 400 200 500>
VStem: 0 100<0 300 400 700> 200 200<300 400 300 300 400 500 0 500> 400 100<0 400 0 500 0 400 0 400>
LayerCount: 2
Fore
SplineSet
100 400 m 1xa8
 200 400 l 1
 200 300 l 1
 100 300 l 1
 100 0 l 1
 0 0 l 1
 0 700 l 1
 100 700 l 1
 100 400 l 1xa8
400 500 m 1x70
 400 400 l 1
 200 400 l 1
 200 500 l 1
 400 500 l 1x70
400 400 m 1x68
 500 400 l 1
 500 0 l 1
 400 0 l 1
 400 400 l 1x68
EndSplineSet
EndChar

StartChar: i
Encoding: 105 105 73
Width: 200
GlyphClass: 1
Flags: MW
HStem: 600 100<0 100 0 100>
VStem: 0 100<0 500 0 500 600 700>
LayerCount: 2
Fore
SplineSet
0 700 m 1
 100 700 l 1
 100 600 l 1
 0 600 l 1
 0 700 l 1
0 500 m 1
 100 500 l 1
 100 0 l 1
 0 0 l 1
 0 500 l 1
EndSplineSet
EndChar

StartChar: j
Encoding: 106 106 74
Width: 600
GlyphClass: 1
Flags: MW
HStem: -100 100<100 400 0 100> 0 100<0 100 0 100 0 400> 600 100<400 500 400 500>
VStem: 0 100<0 100> 100 300<-100 0 -100 0 0 100 -100 0> 400 100<-100 500 0 500 0 500 600 700>
LayerCount: 2
Fore
SplineSet
400 700 m 1xb4
 500 700 l 1
 500 600 l 1
 400 600 l 1
 400 700 l 1xb4
400 500 m 1
 500 500 l 1
 500 0 l 1
 400 0 l 1
 400 500 l 1
0 100 m 1x74
 100 100 l 1
 100 0 l 1
 0 0 l 1
 0 100 l 1x74
400 0 m 1xa8
 400 -100 l 1
 100 -100 l 1
 100 0 l 1
 400 0 l 1xa8
EndSplineSet
EndChar

StartChar: k
Encoding: 107 107 75
Width: 500
GlyphClass: 1
Flags: MW
HStem: 0 100<200 300 300 400> 100 100<200 300 100 200> 200 100<100 200 100 200 200 300> 300 100<100 300 200 300 200 300 200 300> 400 100<200 400 300 400 300 400 300 400>
VStem: 0 100<0 200 300 700> 200 100<100 200 300 400> 300 100<0 100 400 500>
LayerCount: 2
Fore
SplineSet
100 300 m 1xae
 200 300 l 1
 200 200 l 1
 100 200 l 1
 100 0 l 1
 0 0 l 1
 0 700 l 1
 100 700 l 1
 100 300 l 1xae
400 500 m 1xad
 400 400 l 1
 300 400 l 1
 300 500 l 1
 400 500 l 1xad
300 400 m 1x56
 300 300 l 1
 200 300 l 1
 200 400 l 1
 300 400 l 1x56
300 100 m 1
 200 100 l 1
 200 200 l 1
 300 200 l 1
 300 100 l 1
400 0 m 1xad
 300 0 l 1
 300 100 l 1
 400 100 l 1
 400 0 l 1xad
EndSplineSet
EndChar

StartChar: l
Encoding: 108 108 76
Width: 300
GlyphClass: 1
Flags: MW
HStem: 0 100<100 200 0 100>
VStem: 0 100<100 700> 100 100<0 100 0 100 0 100 0 700>
LayerCount: 2
Fore
SplineSet
100 100 m 1xc0
 0 100 l 1
 0 700 l 1
 100 700 l 1
 100 100 l 1xc0
100 100 m 1
 200 100 l 1
 200 0 l 1
 100 0 l 1xa0
 100 100 l 1
EndSplineSet
EndChar

StartChar: m
Encoding: 109 109 77
Width: 600
GlyphClass: 1
Flags: MW
HStem: 200 200<200 300 100 200> 400 100<100 200 100 100 0 300 300 400>
VStem: 0 100<0 400 0 500> 200 100<200 400 400 500 200 400 200 400> 300 100<200 400 200 200 400 500> 400 100<0 400 0 500 0 400 0 400>
LayerCount: 2
Fore
SplineSet
200 500 m 1x74
 200 400 l 1
 100 400 l 1
 100 0 l 1
 0 0 l 1
 0 500 l 1
 200 500 l 1x74
300 500 m 1x68
 400 500 l 1
 400 400 l 1
 300 400 l 1
 300 500 l 1x68
200 400 m 1xb4
 300 400 l 1
 300 200 l 1
 200 200 l 1
 200 400 l 1xb4
400 400 m 1
 500 400 l 1
 500 0 l 1
 400 0 l 1
 400 400 l 1
EndSplineSet
EndChar

StartChar: n
Encoding: 110 110 78
Width: 600
GlyphClass: 1
Flags: MW
HStem: 400 100<100 400 100 100 0 500>
VStem: 0 100<0 400 0 500> 400 100<0 400 0 500 0 400 0 400>
LayerCount: 2
Fore
SplineSet
400 500 m 1
 400 400 l 1
 100 400 l 1
 100 0 l 1
 0 0 l 1
 0 500 l 1
 400 500 l 1
400 400 m 1
 500 400 l 1
 500 0 l 1
 400 0 l 1
 400 400 l 1
EndSplineSet
EndChar

StartChar: o
Encoding: 111 111 79
Width: 600
GlyphClass: 1
Flags: MW
HStem: 0 100<100 400 0 100> 100 300<0 100 0 100 100 400 400 500> 400 100<0 400 100 400 100 400 100 400 100 500>
VStem: 0 100<100 400> 100 300<0 100 0 100 0 100 100 400 400 500> 400 100<0 400 100 400 100 500 100 400 100 400>
LayerCount: 2
Fore
SplineSet
100 400 m 1xa8
 100 500 l 1
 400 500 l 1
 400 400 l 1
 100 400 l 1xa8
100 100 m 1x54
 0 100 l 1
 0 400 l 1
 100 400 l 1
 100 100 l 1x54
400 400 m 1
 500 400 l 1
 500 100 l 1
 400 100 l 1
 400 400 l 1
400 100 m 1xa8
 400 0 l 1
 100 0 l 1
 100 100 l 1
 400 100 l 1xa8
EndSplineSet
EndChar

StartChar: p
Encoding: 112 112 80
Width: 600
GlyphClass: 1
Flags: MW
HStem: 100 100<100 400 100 400> 200 200<100 200 200 400 400 500> 300 100<100 200 100 200> 400 100<0 200 200 400>
VStem: 0 100<-100 100 200 300 400 500> 200 200<300 400 300 300 400 500> 400 100<100 400 200 400 200 400 200 500 200 400>
LayerCount: 2
Fore
SplineSet
400 200 m 1x9a
 400 100 l 1
 100 100 l 1
 100 -100 l 1
 0 -100 l 1
 0 500 l 1
 100 500 l 1x9c
 100 400 l 1
 200 400 l 1
 200 300 l 1
 100 300 l 1xaa
 100 200 l 1
 400 200 l 1x9a
400 400 m 1
 200 400 l 1
 200 500 l 1
 400 500 l 1
 400 400 l 1
400 400 m 1
 500 400 l 1
 500 200 l 1
 400 200 l 1x4a
 400 400 l 1
EndSplineSet
EndChar

StartChar: q
Encoding: 113 113 81
Width: 600
GlyphClass: 1
Flags: MW
HStem: 100 100<100 400 0 100> 300 100<300 400> 400 100<0 300 100 300 100 300 100 300 100 400>
VStem: 0 100<200 400> 100 200<100 400 200 400 300 400 300 400 200 400 400 500 300 500> 400 100<-100 100 100 100 200 300 300 300 400 500 -100 500>
LayerCount: 2
Fore
SplineSet
400 500 m 1xb4
 500 500 l 1xac
 500 -100 l 1
 400 -100 l 1
 400 100 l 1
 100 100 l 1
 100 200 l 1
 400 200 l 1
 400 300 l 1
 300 300 l 1
 300 400 l 1
 400 400 l 1xd4
 400 500 l 1xb4
300 400 m 1
 100 400 l 1
 100 500 l 1
 300 500 l 1
 300 400 l 1
100 400 m 1xd4
 100 200 l 1
 0 200 l 1
 0 400 l 1
 100 400 l 1xd4
EndSplineSet
EndChar

StartChar: r
Encoding: 114 114 82
Width: 600
GlyphClass: 1
Flags: MW
HStem: 300 100<100 200 100 200 400 500> 400 100<0 200 200 400>
VStem: 0 100<0 300 400 500> 200 200<300 400 300 400 400 500 300 500> 400 100<300 400 300 500 300 400 300 400>
LayerCount: 2
Fore
SplineSet
100 500 m 1x68
 100 400 l 1
 200 400 l 1
 200 300 l 1
 100 300 l 1xa8
 100 0 l 1
 0 0 l 1
 0 500 l 1
 100 500 l 1x68
400 500 m 1x70
 400 400 l 1
 200 400 l 1
 200 500 l 1
 400 500 l 1x70
400 400 m 1xa8
 500 400 l 1
 500 300 l 1
 400 300 l 1
 400 400 l 1xa8
EndSplineSet
EndChar

StartChar: s
Encoding: 115 115 83
Width: 600
GlyphClass: 1
Flags: MW
HStem: 0 100<0 400 0 400> 100 100<100 100 100 400 400 500> 200 100<0 100 100 400> 300 100<0 100 0 100 100 400 400 400> 400 100<0 500 100 500 100 500 100 500>
VStem: 0 100<300 400> 100 300<200 300 0 300 0 400 0 300> 400 100<0 100 100 200>
LayerCount: 2
Fore
SplineSet
100 400 m 1xad
 100 500 l 1
 500 500 l 1
 500 400 l 1
 100 400 l 1xad
0 400 m 1x95
 100 400 l 1
 100 300 l 1
 0 300 l 1
 0 400 l 1x95
100 200 m 1xaa
 100 300 l 1
 400 300 l 1
 400 200 l 1
 100 200 l 1xaa
500 100 m 1x4d
 400 100 l 1
 400 200 l 1
 500 200 l 1
 500 100 l 1x4d
400 100 m 1xad
 400 0 l 1
 0 0 l 1
 0 100 l 1
 400 100 l 1xad
EndSplineSet
EndChar

StartChar: t
Encoding: 116 116 84
Width: 400
GlyphClass: 1
Flags: MW
HStem: 0 100<200 300 100 200> 400 100<0 100 0 100 200 300>
VStem: 100 100<100 400 500 700> 200 100<0 100>
LayerCount: 2
Fore
SplineSet
200 100 m 1xe0
 100 100 l 1
 100 400 l 1
 0 400 l 1
 0 500 l 1
 100 500 l 1
 100 700 l 1
 200 700 l 1
 200 500 l 1
 300 500 l 1
 300 400 l 1
 200 400 l 1
 200 100 l 1xe0
300 0 m 1xd0
 200 0 l 1
 200 100 l 1
 300 100 l 1
 300 0 l 1xd0
EndSplineSet
EndChar

StartChar: u
Encoding: 117 117 85
Width: 600
GlyphClass: 1
Flags: MW
HStem: 0 100<100 400 0 100>
VStem: 0 100<100 500> 400 100<100 500 0 500>
LayerCount: 2
Fore
SplineSet
100 100 m 1
 0 100 l 1
 0 500 l 1
 100 500 l 1
 100 100 l 1
400 500 m 1
 500 500 l 1
 500 0 l 1
 100 0 l 1
 100 100 l 1
 400 100 l 1
 400 500 l 1
EndSplineSet
EndChar

StartChar: v
Encoding: 118 118 86
Width: 600
GlyphClass: 1
Flags: MW
HStem: 0 100<100 200 200 300> 100 100<100 200 0 100 300 400> 200 300<0 100 0 100 0 200 0 200 0 400 400 500>
VStem: 0 100<200 500> 100 100<100 200> 200 100<0 100 0 100 100 200 0 100> 300 100<0 200 100 200 100 200> 400 100<100 500 200 500 200 500>
LayerCount: 2
Fore
SplineSet
100 200 m 1x35
 0 200 l 1
 0 500 l 1
 100 500 l 1
 100 200 l 1x35
400 500 m 1
 500 500 l 1
 500 200 l 1
 400 200 l 1
 400 500 l 1
100 200 m 1x4a
 200 200 l 1
 200 100 l 1
 100 100 l 1
 100 200 l 1x4a
300 100 m 1
 300 200 l 1
 400 200 l 1
 400 100 l 1
 300 100 l 1
200 0 m 1x95
 200 100 l 1
 300 100 l 1
 300 0 l 1
 200 0 l 1x95
EndSplineSet
EndChar

StartChar: w
Encoding: 119 119 87
Width: 600
GlyphClass: 1
Flags: MW
HStem: 0 100<100 200 300 400 0 100>
VStem: 0 100<100 500> 200 100<100 300 100 300> 400 100<100 500 0 500>
LayerCount: 2
Fore
SplineSet
100 100 m 1
 0 100 l 1
 0 500 l 1
 100 500 l 1
 100 100 l 1
400 500 m 1
 500 500 l 1
 500 0 l 1
 100 0 l 1
 100 100 l 1
 200 100 l 1
 200 300 l 1
 300 300 l 1
 300 100 l 1
 400 100 l 1
 400 500 l 1
EndSplineSet
EndChar

StartChar: x
Encoding: 120 120 88
Width: 600
GlyphClass: 1
Flags: MW
HStem: 0 100<0 100 0 100 400 500> 100 100<0 200 100 200 100 200 100 200 300 400> 200 100<100 200 200 300 300 400> 300 100<100 200 300 400> 400 100<0 100 0 100 0 200 400 500>
VStem: 0 100<0 100 0 100 400 500> 100 100<0 200 100 200 100 200 300 400> 200 100<100 200 100 200 200 300 300 400> 300 100<100 200 300 400> 400 100<0 100 0 100 0 200 0 100 400 500>
LayerCount: 2
Fore
SplineSet
0 400 m 1x0c40
 0 500 l 1
 100 500 l 1
 100 400 l 1
 0 400 l 1x0c40
400 400 m 1
 400 500 l 1
 500 500 l 1
 500 400 l 1
 400 400 l 1
100 300 m 1x1280
 100 400 l 1
 200 400 l 1
 200 300 l 1
 100 300 l 1x1280
300 300 m 1
 300 400 l 1
 400 400 l 1
 400 300 l 1
 300 300 l 1
200 200 m 1x21
 200 300 l 1
 300 300 l 1
 300 200 l 1
 200 200 l 1x21
100 100 m 1x4280
 100 200 l 1
 200 200 l 1
 200 100 l 1
 100 100 l 1x4280
300 100 m 1
 300 200 l 1
 400 200 l 1
 400 100 l 1
 300 100 l 1
0 0 m 1x8440
 0 100 l 1
 100 100 l 1
 100 0 l 1
 0 0 l 1x8440
400 0 m 1
 400 100 l 1
 500 100 l 1
 500 0 l 1
 400 0 l 1
EndSplineSet
EndChar

StartChar: y
Encoding: 121 121 89
Width: 600
GlyphClass: 1
Flags: MW
HStem: -100 100<0 400 0 400> 100 100<100 400 0 100> 200 300<0 100 0 100 0 400>
VStem: 0 100<200 500> 400 100<-100 500 0 100 100 100 200 500 0 500>
LayerCount: 2
Fore
SplineSet
100 200 m 1xb8
 0 200 l 1
 0 500 l 1
 100 500 l 1
 100 200 l 1xb8
400 500 m 1
 500 500 l 1
 500 0 l 1
 400 0 l 1
 400 100 l 1
 100 100 l 1
 100 200 l 1
 400 200 l 1xd8
 400 500 l 1
400 0 m 1
 400 -100 l 1
 0 -100 l 1
 0 0 l 1
 400 0 l 1
EndSplineSet
EndChar

StartChar: z
Encoding: 122 122 90
Width: 600
GlyphClass: 1
Flags: MW
HStem: 0 100<0 100 200 500 0 100> 200 100<100 300 200 300 200 300 200 300> 400 100<0 300 0 500 400 500 400 400>
VStem: 100 100<100 200 100 200> 200 100<100 300 200 300 200 300> 300 100<200 400 300 400 300 400>
LayerCount: 2
Fore
SplineSet
400 400 m 1xf4
 400 300 l 1
 300 300 l 1
 300 400 l 1
 0 400 l 1
 0 500 l 1
 500 500 l 1
 500 400 l 1
 400 400 l 1xf4
300 300 m 1xe8
 300 200 l 1
 200 200 l 1
 200 300 l 1
 300 300 l 1xe8
100 200 m 1xf4
 200 200 l 1
 200 100 l 1
 500 100 l 1
 500 0 l 1
 0 0 l 1
 0 100 l 1
 100 100 l 1
 100 200 l 1xf4
EndSplineSet
EndChar

StartChar: braceleft
Encoding: 123 123 91
Width: 500
GlyphClass: 1
Flags: MW
HStem: 0 100<200 400> 100 200<0 100 100 200 0 400> 300 100<0 100 0 100 100 200> 400 200<0 200 100 200 100 200 100 200> 600 100<100 400 200 400 200 400 200 400>
VStem: 0 100<300 400> 100 100<100 300 400 600> 200 200<0 100 0 100 0 300 0 100 600 700>
LayerCount: 2
Fore
SplineSet
400 600 m 1xa9
 200 600 l 1
 200 700 l 1
 400 700 l 1
 400 600 l 1xa9
200 400 m 1x92
 100 400 l 1
 100 600 l 1
 200 600 l 1
 200 400 l 1x92
0 400 m 1xac
 100 400 l 1
 100 300 l 1
 0 300 l 1
 0 400 l 1xac
100 100 m 1x4a
 100 300 l 1
 200 300 l 1
 200 100 l 1
 100 100 l 1x4a
200 0 m 1xa9
 200 100 l 1
 400 100 l 1
 400 0 l 1
 200 0 l 1xa9
EndSplineSet
EndChar

StartChar: bar
Encoding: 124 124 92
Width: 200
GlyphClass: 1
Flags: MW
HStem: 0 300<0 100 0 100> 400 300<0 100 0 100>
VStem: 0 100<0 300 0 300 400 700>
LayerCount: 2
Fore
SplineSet
0 700 m 1
 100 700 l 1
 100 400 l 1
 0 400 l 1
 0 700 l 1
0 300 m 1
 100 300 l 1
 100 0 l 1
 0 0 l 1
 0 300 l 1
EndSplineSet
EndChar

StartChar: braceright
Encoding: 125 125 93
Width: 500
GlyphClass: 1
Flags: MW
HStem: 0 100<0 200 0 200> 100 200<0 300 200 300 200 300 200 300> 300 100<200 300 200 300 300 400 200 300> 400 200<200 300 0 200 0 400> 600 100<0 200 0 200 0 300>
VStem: 0 200<0 100 0 100 600 700> 200 100<0 300 100 300 100 300 400 600> 300 100<100 400 300 400 300 600 300 400 300 400>
LayerCount: 2
Fore
SplineSet
200 700 m 1xac
 200 600 l 1
 0 600 l 1
 0 700 l 1
 200 700 l 1xac
300 600 m 1x92
 300 400 l 1
 200 400 l 1
 200 600 l 1
 300 600 l 1x92
300 400 m 1xa9
 400 400 l 1
 400 300 l 1
 300 300 l 1
 300 400 l 1xa9
200 300 m 1x4a
 300 300 l 1
 300 100 l 1
 200 100 l 1
 200 300 l 1x4a
0 100 m 1xac
 200 100 l 1
 200 0 l 1
 0 0 l 1
 0 100 l 1xac
EndSplineSet
EndChar

StartChar: asciitilde
Encoding: 126 126 94
Width: 700
GlyphClass: 1
Flags: MW
HStem: 500 100<0 100 0 100 300 500> 600 100<0 300 100 300 100 300 100 300 100 500 500 600>
VStem: 0 100<500 600 500 600> 100 200<500 600 500 600 600 700 500 700> 300 200<500 600 600 700 500 600 500 600> 500 100<500 700 600 700 600 700>
LayerCount: 2
Fore
SplineSet
300 700 m 1x54
 300 600 l 1
 100 600 l 1
 100 700 l 1
 300 700 l 1x54
500 700 m 1
 600 700 l 1
 600 600 l 1
 500 600 l 1
 500 700 l 1
0 500 m 1xa8
 0 600 l 1
 100 600 l 1
 100 500 l 1
 0 500 l 1xa8
300 600 m 1
 500 600 l 1
 500 500 l 1
 300 500 l 1
 300 600 l 1
EndSplineSet
EndChar

StartChar: exclamdown
Encoding: 161 161 95
Width: 200
GlyphClass: 1
Flags: MW
HStem: 500 100<0 100 0 100>
VStem: 0 100<0 400 0 400 500 600>
LayerCount: 2
Fore
SplineSet
0 600 m 1
 100 600 l 1
 100 500 l 1
 0 500 l 1
 0 600 l 1
0 400 m 1
 100 400 l 1
 100 0 l 1
 0 0 l 1
 0 400 l 1
EndSplineSet
EndChar

StartChar: cent
Encoding: 162 162 96
Width: 500
GlyphClass: 1
Flags: MW
HStem: 100 100<100 200 0 100 300 300 300 400> 200 100<0 100 0 100 100 400> 300 100<0 200 100 200 100 200 100 200 300 400>
VStem: 0 100<200 300> 200 100<0 100 0 100 400 500>
LayerCount: 2
Fore
SplineSet
100 300 m 1xb8
 100 400 l 1
 200 400 l 1
 200 500 l 1
 300 500 l 1
 300 400 l 1
 400 400 l 1
 400 300 l 1
 100 300 l 1xb8
0 300 m 1x58
 100 300 l 1
 100 200 l 1
 0 200 l 1
 0 300 l 1x58
200 100 m 1xb8
 100 100 l 1
 100 200 l 1
 400 200 l 1
 400 100 l 1
 300 100 l 1
 300 0 l 1
 200 0 l 1
 200 100 l 1xb8
EndSplineSet
EndChar

StartChar: sterling
Encoding: 163 163 97
Width: 600
GlyphClass: 1
Flags: MW
HStem: 0 100<0 100 200 500 0 100> 300 100<0 100 0 100 200 400> 500 100<400 500> 600 100<100 400 200 400 200 400 200 400 200 500>
VStem: 100 100<100 300 100 300 400 600> 200 200<100 400 500 600 300 400 600 700> 400 100<500 600>
LayerCount: 2
Fore
SplineSet
400 700 m 1xd4
 400 600 l 1
 200 600 l 1
 200 700 l 1
 400 700 l 1xd4
100 600 m 1xea
 200 600 l 1
 200 400 l 1
 400 400 l 1
 400 300 l 1
 200 300 l 1
 200 100 l 1
 500 100 l 1
 500 0 l 1
 0 0 l 1
 0 100 l 1
 100 100 l 1
 100 300 l 1
 0 300 l 1
 0 400 l 1
 100 400 l 1
 100 600 l 1xea
500 500 m 1
 400 500 l 1
 400 600 l 1
 500 600 l 1
 500 500 l 1
EndSplineSet
EndChar

StartChar: currency
Encoding: 164 164 98
Width: 400
GlyphClass: 1
Flags: MW
HStem: 200 100<0 100 0 100 200 300> 300 100<0 100 100 200 200 300> 400 100<0 100 0 100 0 200 200 300>
VStem: 0 100<200 300 200 300 400 500> 100 100<200 300 200 300 300 400 400 500> 200 100<200 300 200 300 200 400 200 300 400 500>
LayerCount: 2
Fore
SplineSet
0 400 m 1xb4
 0 500 l 1
 100 500 l 1
 100 400 l 1
 0 400 l 1xb4
200 400 m 1
 200 500 l 1
 300 500 l 1
 300 400 l 1
 200 400 l 1
100 300 m 1x48
 100 400 l 1
 200 400 l 1
 200 300 l 1
 100 300 l 1x48
0 200 m 1xb4
 0 300 l 1
 100 300 l 1
 100 200 l 1
 0 200 l 1xb4
200 200 m 1
 200 300 l 1
 300 300 l 1
 300 200 l 1
 200 200 l 1
EndSplineSet
EndChar

StartChar: section
Encoding: 167 167 99
Width: 600
GlyphClass: 1
Flags: MW
HStem: 0 100<0 400 0 400> 100 100<100 400 100 400 400 500 100 400 100 400> 200 100<100 400 0 100 400 500> 300 100<0 100 0 100 100 400 400 500> 400 100<0 100 0 100 0 100 100 400> 500 100<0 100 0 100 100 400 400 400> 600 100<0 500 100 500 100 500 100 500>
VStem: 0 100<300 400 500 600> 100 300<200 300 0 300 300 400 0 300 400 500> 400 100<0 100 100 200 300 400>
LayerCount: 2
Fore
SplineSet
100 600 m 1xab40
 100 700 l 1
 500 700 l 1
 500 600 l 1
 100 600 l 1xab40
0 600 m 1x05
 100 600 l 1
 100 500 l 1
 0 500 l 1
 0 600 l 1x05
100 400 m 1x0880
 100 500 l 1
 400 500 l 1
 400 400 l 1
 100 400 l 1x0880
0 400 m 1x1140
 100 400 l 1
 100 300 l 1
 0 300 l 1
 0 400 l 1x1140
500 300 m 1
 400 300 l 1
 400 400 l 1
 500 400 l 1
 500 300 l 1
400 300 m 1x2080
 400 200 l 1
 100 200 l 1
 100 300 l 1
 400 300 l 1x2080
500 100 m 1x4040
 400 100 l 1
 400 200 l 1
 500 200 l 1
 500 100 l 1x4040
400 100 m 1x8040
 400 0 l 1
 0 0 l 1
 0 100 l 1
 400 100 l 1x8040
EndSplineSet
EndChar

StartChar: guillemotleft
Encoding: 171 171 100
Width: 600
GlyphClass: 1
Flags: MW
HStem: 0 100<200 300 400 500> 100 100<100 200 200 300 300 400> 200 100<0 100 0 100 100 200 200 300 300 400> 300 100<0 200 100 200 100 200 100 200 200 300 300 400> 400 100<100 300 200 300 200 300 200 300 200 400 400 500>
VStem: 0 100<200 300> 100 100<100 200 200 300 300 400> 200 100<0 100 0 100 100 200 0 100 200 300 300 400 400 500> 300 100<0 100 0 100 100 200 300 400 400 500> 400 100<0 100 0 100 0 200 0 100 400 500>
LayerCount: 2
Fore
SplineSet
200 400 m 1xad40
 200 500 l 1
 300 500 l 1
 300 400 l 1
 200 400 l 1xad40
400 400 m 1
 400 500 l 1
 500 500 l 1
 500 400 l 1
 400 400 l 1
100 300 m 1x1280
 100 400 l 1
 200 400 l 1
 200 300 l 1
 100 300 l 1x1280
300 300 m 1
 300 400 l 1
 400 400 l 1
 400 300 l 1
 300 300 l 1
0 200 m 1x25
 0 300 l 1
 100 300 l 1
 100 200 l 1
 0 200 l 1x25
200 200 m 1
 200 300 l 1
 300 300 l 1
 300 200 l 1
 200 200 l 1
100 100 m 1x4280
 100 200 l 1
 200 200 l 1
 200 100 l 1
 100 100 l 1x4280
300 100 m 1
 300 200 l 1
 400 200 l 1
 400 100 l 1
 300 100 l 1
200 0 m 1x8140
 200 100 l 1
 300 100 l 1
 300 0 l 1
 200 0 l 1x8140
400 0 m 1
 400 100 l 1
 500 100 l 1
 500 0 l 1
 400 0 l 1
EndSplineSet
EndChar

StartChar: logicalnot
Encoding: 172 172 101
Width: 600
GlyphClass: 1
Flags: MW
HStem: 200 100<0 400 0 500>
VStem: 400 100<100 200 200 200>
LayerCount: 2
Fore
SplineSet
500 300 m 1
 500 100 l 1
 400 100 l 1
 400 200 l 1
 0 200 l 1
 0 300 l 1
 500 300 l 1
EndSplineSet
EndChar

StartChar: uni00AD
Encoding: 173 173 102
Width: 300
GlyphClass: 1
Flags: MW
HStem: 300 100<0 200 0 200>
VStem: 0 200<300 400 300 400>
LayerCount: 2
Fore
SplineSet
200 400 m 1
 200 300 l 1
 0 300 l 1
 0 400 l 1
 200 400 l 1
EndSplineSet
EndChar

StartChar: registered
Encoding: 174 174 103
Width: 700
GlyphClass: 1
Flags: MW
HStem: 0 100<200 300 400 500 0 100> 100 100<0 200 200 300> 300 100<400 400> 400 100<0 500 100 500 100 200 100 500 400 400 400 500 100 600>
VStem: 0 100<200 400> 100 100<0 200 100 200 100 200 200 400> 200 100<100 200 100 200 200 300> 300 100<100 200 100 200 100 300 100 200> 500 100<0 400 100 400 100 400 100 500 100 400>
LayerCount: 2
Fore
SplineSet
200 400 m 1x9a80
 100 400 l 1
 100 500 l 1x9a80
 500 500 l 1
 500 400 l 1
 400 400 l 1x9980
 400 300 l 1xa980
 300 300 l 1
 300 200 l 1
 200 200 l 1xaa80
 200 400 l 1x9a80
400 200 m 1x5980
 400 100 l 1
 500 100 l 1
 500 0 l 1
 100 0 l 1xa580
 100 100 l 1x5480
 0 100 l 1
 0 400 l 1
 100 400 l 1
 100 200 l 1x5a80
 200 200 l 1x5480
 200 100 l 1
 300 100 l 1x9580
 300 200 l 1
 400 200 l 1x5980
500 400 m 1
 600 400 l 1
 600 100 l 1
 500 100 l 1x6a80
 500 400 l 1
EndSplineSet
EndChar

StartChar: plusminus
Encoding: 177 177 104
Width: 600
GlyphClass: 1
Flags: MW
HStem: 0 100<0 500 0 500> 400 100<0 200 0 200 300 500>
VStem: 200 100<200 400 200 400 500 700>
LayerCount: 2
Fore
SplineSet
500 500 m 1
 500 400 l 1
 300 400 l 1
 300 200 l 1
 200 200 l 1
 200 400 l 1
 0 400 l 1
 0 500 l 1
 200 500 l 1
 200 700 l 1
 300 700 l 1
 300 500 l 1
 500 500 l 1
500 100 m 1
 500 0 l 1
 0 0 l 1
 0 100 l 1
 500 100 l 1
EndSplineSet
EndChar

StartChar: paragraph
Encoding: 182 182 105
Width: 700
GlyphClass: 1
Flags: MW
HStem: 300 100<100 300 0 100> 400 200<0 100 0 100 100 300> 600 100<0 600 100 300 100 600 100 600 400 500 400 400>
VStem: 0 100<400 600> 300 100<0 300 300 300 400 600 0 600> 500 100<0 600 600 600>
LayerCount: 2
Fore
SplineSet
600 700 m 1xbc
 600 0 l 1
 500 0 l 1
 500 600 l 1
 400 600 l 1
 400 0 l 1
 300 0 l 1
 300 300 l 1
 100 300 l 1
 100 400 l 1
 300 400 l 1
 300 600 l 1
 100 600 l 1
 100 700 l 1
 600 700 l 1xbc
100 600 m 1x5c
 100 400 l 1
 0 400 l 1
 0 600 l 1
 100 600 l 1x5c
EndSplineSet
EndChar

StartChar: periodcentered
Encoding: 183 183 106
Width: 300
GlyphClass: 1
Flags: MW
HStem: 200 200<0 200 0 200>
VStem: 0 200<200 400 200 400>
LayerCount: 2
Fore
SplineSet
200 400 m 1
 200 200 l 1
 0 200 l 1
 0 400 l 1
 200 400 l 1
EndSplineSet
EndChar

StartChar: cedilla
Encoding: 184 184 107
Width: 400
GlyphClass: 1
Flags: MW
HStem: -200 100<0 200 0 200> -100 100<0 300 200 300 200 300 200 300>
VStem: 0 200<-200 -100 -200 -100> 200 100<-200 0 -100 0 -100 0>
LayerCount: 2
Fore
SplineSet
200 0 m 1x50
 300 0 l 1
 300 -100 l 1
 200 -100 l 1
 200 0 l 1x50
0 -100 m 1xa0
 200 -100 l 1
 200 -200 l 1
 0 -200 l 1
 0 -100 l 1xa0
EndSplineSet
EndChar

StartChar: guillemotright
Encoding: 187 187 108
Width: 600
GlyphClass: 1
Flags: MW
HStem: 0 100<0 100 0 100 200 300> 100 100<0 200 100 200 100 200 100 200 200 300 300 400> 200 100<100 200 200 300 300 400 400 500> 300 100<100 200 200 300 300 400> 400 100<0 100 0 100 0 200 200 300>
VStem: 0 100<0 100 0 100 400 500> 100 100<0 100 0 100 100 200 300 400 400 500> 200 100<0 100 0 100 100 200 0 100 200 300 300 400 400 500> 300 100<0 200 100 200 100 200 200 300 100 200 300 400> 400 100<100 300 200 300 200 300 200 400 200 300>
LayerCount: 2
Fore
SplineSet
0 400 m 1xad40
 0 500 l 1
 100 500 l 1
 100 400 l 1
 0 400 l 1xad40
200 400 m 1
 200 500 l 1
 300 500 l 1
 300 400 l 1
 200 400 l 1
100 300 m 1x1280
 100 400 l 1
 200 400 l 1
 200 300 l 1
 100 300 l 1x1280
300 300 m 1
 300 400 l 1
 400 400 l 1
 400 300 l 1
 300 300 l 1
200 200 m 1x2140
 200 300 l 1
 300 300 l 1
 300 200 l 1
 200 200 l 1x2140
400 200 m 1
 400 300 l 1
 500 300 l 1
 500 200 l 1
 400 200 l 1
100 100 m 1x4280
 100 200 l 1
 200 200 l 1
 200 100 l 1
 100 100 l 1x4280
300 100 m 1
 300 200 l 1
 400 200 l 1
 400 100 l 1
 300 100 l 1
0 0 m 1x85
 0 100 l 1
 100 100 l 1
 100 0 l 1
 0 0 l 1x85
200 0 m 1
 200 100 l 1
 300 100 l 1
 300 0 l 1
 200 0 l 1
EndSplineSet
EndChar

StartChar: questiondown
Encoding: 191 191 109
Width: 600
GlyphClass: 1
Flags: MW
HStem: 0 100<100 400 0 100> 100 100<100 500 400 500 400 500 400 500> 100 200<0 100 0 100 100 200 0 400> 300 100<0 200 100 200 100 200 100 200> 400 100<100 300 200 300 200 300 200 300> 600 100<200 300 200 300>
VStem: 0 100<100 300> 100 100<100 400 300 400 300 400> 100 300<0 100 0 100 100 200 0 300 0 100 0 400> 200 100<300 500 400 500 400 500 600 700> 400 100<0 200 100 200 100 200>
LayerCount: 2
Fore
SplineSet
300 700 m 1x8e60
 300 600 l 1
 200 600 l 1
 200 700 l 1
 300 700 l 1x8e60
300 500 m 1
 300 400 l 1
 200 400 l 1
 200 500 l 1
 300 500 l 1
200 400 m 1x11
 200 300 l 1
 100 300 l 1
 100 400 l 1
 200 400 l 1x11
100 300 m 1x22
 100 100 l 1
 0 100 l 1
 0 300 l 1
 100 300 l 1x22
400 200 m 1x4020
 500 200 l 1
 500 100 l 1
 400 100 l 1
 400 200 l 1x4020
400 100 m 1x8080
 400 0 l 1
 100 0 l 1
 100 100 l 1
 400 100 l 1x8080
EndSplineSet
EndChar

StartChar: Adieresis
Encoding: 196 196 110
Width: 600
GlyphClass: 1
Flags: MW
HStem: 300 100<100 400 100 400> 500 100<0 100 0 100 100 400 0 100 400 500> 600 100<0 100 0 100 0 400 400 500>
VStem: 0 100<0 300 400 500 600 700> 100 300<0 300 0 300 0 400 400 500 500 600 600 700> 400 100<0 300 300 300 400 500 0 500 0 600 0 500 600 700>
LayerCount: 2
Fore
SplineSet
0 700 m 1xb4
 100 700 l 1
 100 600 l 1
 0 600 l 1
 0 700 l 1xb4
500 700 m 1
 500 600 l 1
 400 600 l 1
 400 700 l 1
 500 700 l 1
400 600 m 1xc8
 400 500 l 1
 100 500 l 1
 100 600 l 1
 400 600 l 1xc8
400 400 m 1xd4
 400 500 l 1
 500 500 l 1
 500 0 l 1
 400 0 l 1
 400 300 l 1
 100 300 l 1
 100 0 l 1
 0 0 l 1
 0 500 l 1
 100 500 l 1
 100 400 l 1
 400 400 l 1xd4
EndSplineSet
EndChar

StartChar: Aring
Encoding: 197 197 111
Width: 600
GlyphClass: 1
Flags: MW
HStem: 200 100<100 400 100 400> 400 100<0 400 100 400 100 400 100 400 100 500> 600 100<200 300 200 300>
VStem: 0 100<0 200 300 400> 100 300<0 200 0 200 0 300 300 400 400 500> 200 100<600 700 600 700> 400 100<0 200 200 200 300 400 0 500 0 400 0 400>
LayerCount: 2
Fore
SplineSet
300 700 m 1xf6
 300 600 l 1
 200 600 l 1
 200 700 l 1
 300 700 l 1xf6
100 400 m 1xe8
 100 500 l 1
 400 500 l 1
 400 400 l 1
 100 400 l 1xe8
400 400 m 1xf6
 500 400 l 1
 500 0 l 1
 400 0 l 1
 400 200 l 1
 100 200 l 1
 100 0 l 1
 0 0 l 1
 0 400 l 1
 100 400 l 1
 100 300 l 1
 400 300 l 1
 400 400 l 1xf6
EndSplineSet
EndChar

StartChar: AE
Encoding: 198 198 112
Width: 600
GlyphClass: 1
Flags: MW
HStem: 0 100<300 500 300 500> 400 100<100 200 100 200 300 400> 600 100<0 500 100 500 100 200 100 500 300 500 300 300>
VStem: 0 100<0 400 500 600> 200 100<100 400 100 400 100 400 500 600>
LayerCount: 2
Fore
SplineSet
300 600 m 1
 300 500 l 1
 400 500 l 1
 400 400 l 1
 300 400 l 1
 300 100 l 1
 500 100 l 1
 500 0 l 1
 200 0 l 1
 200 400 l 1
 100 400 l 1
 100 0 l 1
 0 0 l 1
 0 600 l 1
 100 600 l 1
 100 500 l 1
 200 500 l 1
 200 600 l 1
 100 600 l 1
 100 700 l 1
 500 700 l 1
 500 600 l 1
 300 600 l 1
EndSplineSet
EndChar

StartChar: Ccedilla
Encoding: 199 199 113
Width: 600
GlyphClass: 1
Flags: MW
HStem: -200 100<200 400 200 400> -100 100<200 400 400 500> 0 100<0 100 100 400 400 500> 100 100<100 500 400 500 400 500 400 500> 500 100<400 500> 600 100<0 400 100 400 100 400 100 400 100 500>
VStem: 0 100<100 600> 100 300<0 100 -200 100 100 200 500 600 -200 100 600 700> 200 200<-200 -100 -200 -100> 400 100<-200 -100 -100 0 100 200 500 600>
LayerCount: 2
Fore
SplineSet
400 700 m 1x05
 400 600 l 1
 100 600 l 1
 100 700 l 1
 400 700 l 1x05
0 600 m 1x06
 100 600 l 1
 100 100 l 1
 0 100 l 1
 0 600 l 1x06
500 500 m 1x1840
 400 500 l 1
 400 600 l 1
 500 600 l 1
 500 500 l 1x1840
500 200 m 1
 500 100 l 1
 400 100 l 1
 400 200 l 1
 500 200 l 1
100 0 m 1x21
 100 100 l 1
 400 100 l 1
 400 0 l 1
 100 0 l 1x21
500 -100 m 1x4040
 400 -100 l 1
 400 0 l 1
 500 0 l 1
 500 -100 l 1x4040
200 -100 m 1x8080
 400 -100 l 1
 400 -200 l 1
 200 -200 l 1
 200 -100 l 1x8080
EndSplineSet
EndChar

StartChar: Ntilde
Encoding: 209 209 114
Width: 600
GlyphClass: 1
Flags: MW
HStem: 100 100<300 400 200 300> 200 100<200 300 100 200> 300 100<100 200 100 200 100 300> 600 100<0 500 0 500>
VStem: 0 100<0 300 400 500> 200 100<200 300> 400 100<0 100 100 100 200 500 0 500>
LayerCount: 2
Fore
SplineSet
500 700 m 1xbe
 500 600 l 1
 0 600 l 1
 0 700 l 1
 500 700 l 1xbe
100 400 m 1
 200 400 l 1
 200 300 l 1
 100 300 l 1
 100 0 l 1
 0 0 l 1
 0 500 l 1
 100 500 l 1
 100 400 l 1
400 500 m 1
 500 500 l 1
 500 0 l 1
 400 0 l 1
 400 100 l 1
 300 100 l 1
 300 200 l 1
 400 200 l 1
 400 500 l 1
200 300 m 1x5e
 300 300 l 1
 300 200 l 1
 200 200 l 1
 200 300 l 1x5e
EndSplineSet
EndChar

StartChar: Oslash
Encoding: 216 216 115
Width: 600
GlyphClass: 1
Flags: MW
HStem: 0 100<100 400 0 100> 200 100<100 200 100 200> 300 100<100 300 200 300 200 300 200 300> 400 100<200 400 300 400 300 400 300 400> 600 100<0 400 100 400 100 400 100 400 100 500>
VStem: 0 100<100 200 300 600> 100 100<100 200 300 400> 200 100<200 400 300 400 300 400> 300 100<300 400 300 300> 400 100<0 600 100 400 400 400 500 600 100 700 100 600 100 600>
LayerCount: 2
Fore
SplineSet
100 600 m 1xda80
 100 700 l 1
 400 700 l 1
 400 600 l 1
 100 600 l 1xda80
200 200 m 1
 100 200 l 1
 100 100 l 1
 0 100 l 1
 0 600 l 1
 100 600 l 1
 100 300 l 1xdd40
 200 300 l 1
 200 200 l 1
400 600 m 1
 500 600 l 1
 500 100 l 1
 400 100 l 1
 400 400 l 1xdd40
 300 400 l 1
 300 500 l 1xdc80
 400 500 l 1
 400 600 l 1
200 300 m 1xad40
 200 400 l 1
 300 400 l 1
 300 300 l 1
 200 300 l 1xad40
400 100 m 1xda40
 400 0 l 1
 100 0 l 1
 100 100 l 1
 400 100 l 1xda40
EndSplineSet
EndChar

StartChar: Udieresis
Encoding: 220 220 116
Width: 600
GlyphClass: 1
Flags: MW
HStem: 0 100<100 400 0 100> 600 100<0 100 0 100 400 500>
VStem: 0 100<100 500 600 700> 100 300<0 100 0 100 0 100 100 500 600 700> 400 100<0 500 100 500 100 500 600 700>
LayerCount: 2
Fore
SplineSet
100 700 m 1xe8
 100 600 l 1
 0 600 l 1
 0 700 l 1
 100 700 l 1xe8
400 700 m 1
 500 700 l 1
 500 600 l 1
 400 600 l 1
 400 700 l 1
100 100 m 1
 0 100 l 1
 0 500 l 1
 100 500 l 1
 100 100 l 1
400 500 m 1
 500 500 l 1
 500 100 l 1
 400 100 l 1
 400 500 l 1
400 100 m 1xd0
 400 0 l 1
 100 0 l 1
 100 100 l 1
 400 100 l 1xd0
EndSplineSet
EndChar

StartChar: agrave
Encoding: 224 224 117
Width: 600
GlyphClass: 1
Flags: MW
HStem: 0 100<100 400 0 100> 100 100<0 100 0 100 100 400> 200 100<0 400 100 400 100 400 100 400> 400 100<100 400 100 400 100 500> 600 100<0 200 0 200>
VStem: 0 100<100 200> 0 200<600 700 600 700> 100 300<0 200 100 200 100 200 100 200 100 300 100 300 400 500> 400 100<100 200 200 200 300 400 0 500 0 400 0 400>
LayerCount: 2
Fore
SplineSet
200 600 m 1xba80
 0 600 l 1
 0 700 l 1
 200 700 l 1
 200 600 l 1xba80
400 500 m 1xb9
 400 400 l 1xb9
 100 400 l 1
 100 500 l 1xba80
 400 500 l 1xb9
400 400 m 1xbc80
 500 400 l 1
 500 0 l 1
 100 0 l 1
 100 100 l 1
 400 100 l 1
 400 200 l 1
 100 200 l 1
 100 300 l 1
 400 300 l 1
 400 400 l 1xbc80
0 200 m 1x5c80
 100 200 l 1
 100 100 l 1
 0 100 l 1
 0 200 l 1x5c80
EndSplineSet
EndChar

StartChar: aacute
Encoding: 225 225 118
Width: 600
GlyphClass: 1
Flags: MW
HStem: 0 100<100 400 0 100> 100 100<0 100 0 100 100 400> 200 100<0 400 100 400 100 400 100 400> 400 100<100 400 100 400 100 500> 600 100<300 500 300 500>
VStem: 0 100<100 200> 100 300<0 200 100 200 100 200 100 200 100 300 100 300 400 500> 300 200<600 700> 400 100<100 200 200 200 300 400 0 400 0 500 0 400>
LayerCount: 2
Fore
SplineSet
500 700 m 1xbd
 500 600 l 1
 300 600 l 1
 300 700 l 1
 500 700 l 1xbd
400 500 m 1
 400 400 l 1xbd
 100 400 l 1
 100 500 l 1xba
 400 500 l 1
400 300 m 1xbc80
 400 400 l 1
 500 400 l 1
 500 0 l 1
 100 0 l 1
 100 100 l 1
 400 100 l 1
 400 200 l 1
 100 200 l 1
 100 300 l 1
 400 300 l 1xbc80
0 200 m 1x5c80
 100 200 l 1
 100 100 l 1
 0 100 l 1
 0 200 l 1x5c80
EndSplineSet
EndChar

StartChar: acircumflex
Encoding: 226 226 119
Width: 600
GlyphClass: 1
Flags: MW
HStem: 0 100<100 400 0 100> 100 100<0 100 0 100 100 400> 200 100<0 400 100 400 100 400 100 400> 400 100<100 400 0 100 400 500> 500 100<0 100 0 100 100 400 400 500> 600 100<0 400 100 400 100 400 100 400 100 500>
VStem: 0 100<100 200 500 600> 100 300<0 200 100 200 100 200 100 200 100 300 100 300 400 500 500 600 600 700> 400 100<100 200 200 200 300 400 0 400 0 500 0 400 500 600>
LayerCount: 2
Fore
SplineSet
100 600 m 1x05
 100 700 l 1
 400 700 l 1
 400 600 l 1
 100 600 l 1x05
0 600 m 1x0a80
 100 600 l 1
 100 500 l 1
 0 500 l 1
 0 600 l 1x0a80
500 500 m 1
 400 500 l 1
 400 600 l 1
 500 600 l 1
 500 500 l 1
400 500 m 1x11
 400 400 l 1
 100 400 l 1
 100 500 l 1
 400 500 l 1x11
400 300 m 1xa080
 400 400 l 1
 500 400 l 1
 500 0 l 1
 100 0 l 1
 100 100 l 1
 400 100 l 1
 400 200 l 1
 100 200 l 1
 100 300 l 1
 400 300 l 1xa080
0 200 m 1x42
 100 200 l 1
 100 100 l 1
 0 100 l 1
 0 200 l 1x42
EndSplineSet
EndChar

StartChar: aring
Encoding: 229 229 120
Width: 600
GlyphClass: 1
Flags: MW
HStem: 0 100<100 400 0 100> 100 100<0 100 0 100 100 400> 200 100<0 400 100 400 100 400 100 400> 400 100<100 400 100 400 100 500> 600 100<200 300 200 300>
VStem: 0 100<100 200> 100 300<0 200 100 200 100 200 100 200 100 300 100 300 400 500> 200 100<600 700 600 700> 400 100<100 200 200 200 300 400 0 500 0 400 0 400>
LayerCount: 2
Fore
SplineSet
300 700 m 1xbd80
 300 600 l 1
 200 600 l 1
 200 700 l 1
 300 700 l 1xbd80
400 500 m 1xba
 400 400 l 1
 100 400 l 1
 100 500 l 1
 400 500 l 1xba
400 400 m 1xbd80
 500 400 l 1
 500 0 l 1
 100 0 l 1
 100 100 l 1
 400 100 l 1
 400 200 l 1
 100 200 l 1
 100 300 l 1
 400 300 l 1
 400 400 l 1xbd80
0 200 m 1x5d80
 100 200 l 1
 100 100 l 1
 0 100 l 1
 0 200 l 1x5d80
EndSplineSet
EndChar

StartChar: ae
Encoding: 230 230 121
Width: 1000
GlyphClass: 1
Flags: HMW
HStem: 0 100<100 400 0 100> 100 100<0 100 0 100 100 400> 200 100<0 400 100 400 100 400 100 400> 400 100<100 400 100 400 100 500>
VStem: 0 100<100 200> 100 300<0 200 100 200 100 200 100 200 100 300 100 300 400 500> 400 100<100 200 200 200 300 400 0 500 0 400 0 400>
LayerCount: 2
Fore
SplineSet
500 400 m 5xe8
 500 500 l 5
 800 500 l 5
 800 400 l 5
 500 400 l 5xe8
800 400 m 5xf4
 900 400 l 5
 900 200 l 5
 500 200 l 5
 500 100 l 5
 400 100 l 5
 400 400 l 5
 500 400 l 5
 500 300 l 5
 800 300 l 5
 800 400 l 5xf4
500 0 m 5
 500 100 l 5
 900 100 l 5
 900 0 l 5
 500 0 l 5
400 500 m 1xb4
 400 400 l 1
 100 400 l 1
 100 500 l 1
 400 500 l 1xb4
400 400 m 1xba
 500 400 l 1
 500 0 l 1
 100 0 l 1
 100 100 l 1
 400 100 l 1
 400 200 l 1
 100 200 l 1
 100 300 l 1
 400 300 l 1
 400 400 l 1xba
0 200 m 1x5a
 100 200 l 1
 100 100 l 1
 0 100 l 1
 0 200 l 1x5a
EndSplineSet
EndChar

StartChar: ccedilla
Encoding: 231 231 122
Width: 600
GlyphClass: 1
Flags: MW
HStem: -200 100<200 400 200 400> -100 100<200 400 400 500> 0 100<0 100 100 400 400 500> 100 100<100 500 400 500 400 500 400 500> 100 300<0 100 0 100 100 400 400 500> 300 100<400 500> 400 100<0 400 100 400 100 400 100 400 100 500>
VStem: 0 100<100 400> 100 300<0 100 -200 100 100 200 300 400 -200 100 400 500> 200 200<-200 -100 -200 -100> 400 100<-200 -100 -100 0 100 200 300 400>
LayerCount: 2
Fore
SplineSet
400 500 m 1x0280
 400 400 l 1
 100 400 l 1
 100 500 l 1
 400 500 l 1x0280
0 400 m 1x09
 100 400 l 1
 100 100 l 1
 0 100 l 1
 0 400 l 1x09
500 300 m 1x1420
 400 300 l 1
 400 400 l 1
 500 400 l 1
 500 300 l 1x1420
500 200 m 1
 500 100 l 1
 400 100 l 1
 400 200 l 1
 500 200 l 1
100 0 m 1x2080
 100 100 l 1
 400 100 l 1
 400 0 l 1
 100 0 l 1x2080
500 -100 m 1x4020
 400 -100 l 1
 400 0 l 1
 500 0 l 1
 500 -100 l 1x4020
200 -100 m 1x8040
 400 -100 l 1
 400 -200 l 1
 200 -200 l 1
 200 -100 l 1x8040
EndSplineSet
EndChar

StartChar: ecircumflex
Encoding: 234 234 123
Width: 600
GlyphClass: 1
Flags: MW
HStem: 0 100<0 100 100 500> 200 100<100 400 100 500 100 400> 400 100<0 100 0 100 100 400 0 100 400 500> 500 100<0 100 0 100 100 400 400 500> 600 100<0 400 100 400 100 400 100 400 100 500>
VStem: 0 100<100 200 300 400 500 600> 100 300<0 400 100 400 100 400 100 400 300 400 300 400 400 500 300 500 500 600 300 500 600 700> 400 100<300 400 500 600>
LayerCount: 2
Fore
SplineSet
100 600 m 1x0a
 100 700 l 1
 400 700 l 1
 400 600 l 1
 100 600 l 1x0a
0 600 m 1x15
 100 600 l 1
 100 500 l 1
 0 500 l 1
 0 600 l 1x15
500 500 m 1
 400 500 l 1
 400 600 l 1
 500 600 l 1
 500 500 l 1
400 500 m 1x22
 400 400 l 1
 100 400 l 1
 100 500 l 1
 400 500 l 1x22
400 300 m 1xc5
 400 400 l 1
 500 400 l 1
 500 200 l 1
 100 200 l 1
 100 100 l 1
 0 100 l 1
 0 400 l 1
 100 400 l 1
 100 300 l 1
 400 300 l 1xc5
100 0 m 1
 100 100 l 1
 500 100 l 1
 500 0 l 1
 100 0 l 1
EndSplineSet
EndChar

StartChar: edieresis
Encoding: 235 235 124
Width: 600
GlyphClass: 1
Flags: MW
HStem: 0 100<0 100 100 500> 200 100<100 400 100 500 100 400> 400 100<0 400 100 400 100 400 100 400 100 500> 600 100<100 200 100 200 300 400>
VStem: 0 100<100 200 300 400> 100 100<600 700 600 700> 300 100<600 700> 400 100<300 400>
LayerCount: 2
Fore
SplineSet
200 700 m 1xf6
 200 600 l 1
 100 600 l 1
 100 700 l 1
 200 700 l 1xf6
400 700 m 1
 400 600 l 1
 300 600 l 1
 300 700 l 1
 400 700 l 1
100 400 m 1
 100 500 l 1
 400 500 l 1
 400 400 l 1
 100 400 l 1
400 400 m 1xf9
 500 400 l 1
 500 200 l 1
 100 200 l 1
 100 100 l 1
 0 100 l 1
 0 400 l 1
 100 400 l 1
 100 300 l 1
 400 300 l 1
 400 400 l 1xf9
100 0 m 1
 100 100 l 1
 500 100 l 1
 500 0 l 1
 100 0 l 1
EndSplineSet
EndChar

StartChar: iacute
Encoding: 237 237 125
Width: 300
GlyphClass: 1
Flags: MW
HStem: 600 100<0 200 0 200>
VStem: 0 100<0 500 0 500>
LayerCount: 2
Fore
SplineSet
200 700 m 1
 200 600 l 1
 0 600 l 1
 0 700 l 1
 200 700 l 1
0 500 m 1
 100 500 l 1
 100 0 l 1
 0 0 l 1
 0 500 l 1
EndSplineSet
EndChar

StartChar: icircumflex
Encoding: 238 238 126
Width: 400
GlyphClass: 1
Flags: MW
HStem: 600 100<0 100 0 100 200 300>
VStem: 0 100<600 700> 100 100<0 500 0 500 600 700> 200 100<600 700 600 700>
LayerCount: 2
Fore
SplineSet
100 700 m 1xd0
 100 600 l 1
 0 600 l 1
 0 700 l 1
 100 700 l 1xd0
200 700 m 1
 300 700 l 1
 300 600 l 1
 200 600 l 1
 200 700 l 1
100 500 m 1xa0
 200 500 l 1
 200 0 l 1
 100 0 l 1
 100 500 l 1xa0
EndSplineSet
EndChar

StartChar: ntilde
Encoding: 241 241 127
Width: 600
GlyphClass: 1
Flags: MW
HStem: 400 100<100 400 100 100 0 500> 600 100<0 500 0 500>
VStem: 0 100<0 400 0 500> 400 100<0 400 0 500 0 400 0 400>
LayerCount: 2
Fore
SplineSet
500 700 m 1
 500 600 l 1
 0 600 l 1
 0 700 l 1
 500 700 l 1
400 500 m 1
 400 400 l 1
 100 400 l 1
 100 0 l 1
 0 0 l 1
 0 500 l 1
 400 500 l 1
400 400 m 1
 500 400 l 1
 500 0 l 1
 400 0 l 1
 400 400 l 1
EndSplineSet
EndChar

StartChar: ograve
Encoding: 242 242 128
Width: 600
GlyphClass: 1
Flags: MW
HStem: 0 100<100 400 0 100> 100 300<0 100 0 100 100 400 400 500> 400 100<0 400 100 400 100 400 100 400 100 500> 600 100<0 200 0 200>
VStem: 0 100<100 400> 0 200<600 700 600 700> 100 300<0 100 0 100 0 100 100 400 400 500> 400 100<0 400 100 400 100 500 100 400 100 400>
LayerCount: 2
Fore
SplineSet
200 600 m 1xb5
 0 600 l 1
 0 700 l 1
 200 700 l 1
 200 600 l 1xb5
100 400 m 1
 100 500 l 1xb5
 400 500 l 1
 400 400 l 1xb2
 100 400 l 1
100 100 m 1x59
 0 100 l 1
 0 400 l 1
 100 400 l 1
 100 100 l 1x59
400 400 m 1
 500 400 l 1
 500 100 l 1
 400 100 l 1
 400 400 l 1
400 100 m 1xb2
 400 0 l 1
 100 0 l 1
 100 100 l 1
 400 100 l 1xb2
EndSplineSet
EndChar

StartChar: oacute
Encoding: 243 243 129
Width: 600
GlyphClass: 1
Flags: MW
HStem: 0 100<100 400 0 100> 100 300<0 100 0 100 100 400 400 500> 400 100<0 400 100 400 100 400 100 400 100 500> 600 100<300 500 300 500>
VStem: 0 100<100 400> 100 300<0 100 0 100 0 100 100 400 400 500> 300 200<600 700> 400 100<0 400 100 400 100 500 100 400 100 400>
LayerCount: 2
Fore
SplineSet
500 700 m 1xba
 500 600 l 1
 300 600 l 1
 300 700 l 1
 500 700 l 1xba
100 400 m 1xb4
 100 500 l 1xb4
 400 500 l 1
 400 400 l 1xba
 100 400 l 1xb4
100 100 m 1x59
 0 100 l 1
 0 400 l 1
 100 400 l 1
 100 100 l 1x59
400 400 m 1
 500 400 l 1
 500 100 l 1
 400 100 l 1
 400 400 l 1
400 100 m 1xb4
 400 0 l 1
 100 0 l 1
 100 100 l 1
 400 100 l 1xb4
EndSplineSet
EndChar

StartChar: ocircumflex
Encoding: 244 244 130
Width: 600
GlyphClass: 1
Flags: MW
HStem: 0 100<100 400 0 100> 100 300<0 100 0 100 100 400 400 500> 400 100<0 100 0 100 100 400 0 100 400 500> 500 100<0 100 0 100 100 400 400 500> 600 100<0 400 100 400 100 400 100 400 100 500>
VStem: 0 100<100 400 500 600> 100 300<0 100 0 100 0 100 100 400 400 500 500 600 600 700> 400 100<0 400 100 400 100 500 100 400 100 400 500 600>
LayerCount: 2
Fore
SplineSet
100 600 m 1x0a
 100 700 l 1
 400 700 l 1
 400 600 l 1
 100 600 l 1x0a
0 600 m 1x15
 100 600 l 1
 100 500 l 1
 0 500 l 1
 0 600 l 1x15
500 500 m 1
 400 500 l 1
 400 600 l 1
 500 600 l 1
 500 500 l 1
400 500 m 1x22
 400 400 l 1
 100 400 l 1
 100 500 l 1
 400 500 l 1x22
100 100 m 1x45
 0 100 l 1
 0 400 l 1
 100 400 l 1
 100 100 l 1x45
400 400 m 1
 500 400 l 1
 500 100 l 1
 400 100 l 1
 400 400 l 1
400 100 m 1x82
 400 0 l 1
 100 0 l 1
 100 100 l 1
 400 100 l 1x82
EndSplineSet
EndChar

StartChar: odieresis
Encoding: 246 246 131
Width: 600
GlyphClass: 1
Flags: MW
HStem: 0 100<100 400 0 100> 100 300<0 100 0 100 100 400 400 500> 400 100<0 400 100 400 100 400 100 400 100 500> 600 100<100 200 100 200 300 400>
VStem: 0 100<100 400> 100 100<600 700 600 700> 100 300<0 100 0 100 0 100 100 400 400 500 600 700> 300 100<600 700> 400 100<0 400 100 400 100 500 100 400 100 400>
LayerCount: 2
Fore
SplineSet
200 700 m 1x35
 200 600 l 1
 100 600 l 1
 100 700 l 1
 200 700 l 1x35
400 700 m 1
 400 600 l 1
 300 600 l 1
 300 700 l 1
 400 700 l 1
100 400 m 1
 100 500 l 1
 400 500 l 1
 400 400 l 1
 100 400 l 1
100 100 m 1x4880
 0 100 l 1
 0 400 l 1
 100 400 l 1
 100 100 l 1x4880
400 400 m 1
 500 400 l 1
 500 100 l 1
 400 100 l 1
 400 400 l 1
400 100 m 1x82
 400 0 l 1
 100 0 l 1
 100 100 l 1
 400 100 l 1x82
EndSplineSet
EndChar

StartChar: divide
Encoding: 247 247 132
Width: 600
GlyphClass: 1
Flags: MW
HStem: 100 100<200 300 200 300> 300 100<0 500 0 500> 500 100<200 300 200 300>
VStem: 200 100<100 200 100 200 500 600>
LayerCount: 2
Fore
SplineSet
300 600 m 1
 300 500 l 1
 200 500 l 1
 200 600 l 1
 300 600 l 1
500 400 m 1
 500 300 l 1
 0 300 l 1
 0 400 l 1
 500 400 l 1
200 100 m 1
 200 200 l 1
 300 200 l 1
 300 100 l 1
 200 100 l 1
EndSplineSet
EndChar

StartChar: oslash
Encoding: 248 248 133
Width: 600
GlyphClass: 1
Flags: MW
HStem: 0 100<0 200 0 100 300 400 300 300> 100 100<0 200 200 300> 200 100<100 300 200 300 200 300 200 300> 300 100<200 300> 400 100<0 400 100 400 100 300 100 400 100 500>
VStem: 0 100<200 400> 100 100<-100 100 200 300> 200 100<-100 0 -100 0 200 300> 300 100<-100 100 200 200 200 300> 400 100<0 400 100 300 300 300 100 500 100 400>
LayerCount: 2
Fore
SplineSet
400 400 m 1x9480
 500 400 l 1
 500 100 l 1
 400 100 l 1
 400 300 l 1x9240
 300 300 l 1x9480
 300 400 l 1
 100 400 l 1
 100 500 l 1
 400 500 l 1xaa80
 400 400 l 1x9480
200 100 m 1
 400 100 l 1
 400 0 l 1
 300 0 l 1
 300 -100 l 1
 200 -100 l 1
 200 0 l 1xad40
 100 0 l 1xaa40
 100 100 l 1x4a40
 0 100 l 1
 0 400 l 1
 100 400 l 1
 100 200 l 1x4d40
 200 200 l 1x4a40
 200 100 l 1
200 200 m 1
 200 300 l 1
 300 300 l 1
 300 200 l 1
 200 200 l 1
EndSplineSet
EndChar

StartChar: ugrave
Encoding: 249 249 134
Width: 600
GlyphClass: 1
Flags: MW
HStem: 0 100<100 400 0 100> 600 100<0 200 0 200>
VStem: 0 100<100 500> 400 100<100 500 0 500>
LayerCount: 2
Fore
SplineSet
200 600 m 1
 0 600 l 1
 0 700 l 1
 200 700 l 1
 200 600 l 1
100 100 m 1
 0 100 l 1
 0 500 l 1
 100 500 l 1
 100 100 l 1
400 500 m 1
 500 500 l 1
 500 0 l 1
 100 0 l 1
 100 100 l 1
 400 100 l 1
 400 500 l 1
EndSplineSet
EndChar

StartChar: uacute
Encoding: 250 250 135
Width: 600
GlyphClass: 1
Flags: MW
HStem: 0 100<100 400 0 100> 600 100<300 500 300 500>
VStem: 0 100<100 500> 400 100<100 500 0 500>
LayerCount: 2
Fore
SplineSet
500 700 m 5
 500 600 l 5
 300 600 l 5
 300 700 l 5
 500 700 l 5
100 100 m 1
 0 100 l 1
 0 500 l 1
 100 500 l 1
 100 100 l 1
400 500 m 1
 500 500 l 1
 500 0 l 1
 100 0 l 1
 100 100 l 1
 400 100 l 1
 400 500 l 1
EndSplineSet
EndChar

StartChar: ucircumflex
Encoding: 251 251 136
Width: 600
GlyphClass: 1
Flags: MW
HStem: 0 100<100 400 0 100> 100 300<0 100 0 100 0 400> 500 100<0 100 0 100 400 500> 600 100<0 400 100 400 100 400 100 400 100 500>
VStem: 0 100<100 400 500 600> 100 300<0 400 100 400 100 400 100 400 500 600 100 500 600 700> 400 100<100 400 0 400 500 600>
LayerCount: 2
Fore
SplineSet
400 700 m 1x94
 400 600 l 1
 100 600 l 1
 100 700 l 1
 400 700 l 1x94
0 500 m 1x6a
 0 600 l 1
 100 600 l 1
 100 500 l 1
 0 500 l 1x6a
400 600 m 1
 500 600 l 1
 500 500 l 1
 400 500 l 1
 400 600 l 1
100 100 m 1
 0 100 l 1
 0 400 l 1
 100 400 l 1
 100 100 l 1
400 400 m 1
 500 400 l 1
 500 0 l 1
 100 0 l 1
 100 100 l 1
 400 100 l 1x9a
 400 400 l 1
EndSplineSet
EndChar

StartChar: udieresis
Encoding: 252 252 137
Width: 600
GlyphClass: 1
Flags: MW
HStem: 0 100<100 400 0 100> 600 100<100 200 100 200 300 400>
VStem: 0 100<100 500> 100 100<600 700 600 700> 300 100<600 700> 400 100<100 500 0 500>
LayerCount: 2
Fore
SplineSet
200 700 m 1xd8
 200 600 l 1
 100 600 l 1
 100 700 l 1
 200 700 l 1xd8
400 700 m 1
 400 600 l 1
 300 600 l 1
 300 700 l 1
 400 700 l 1
100 100 m 1xe4
 0 100 l 1
 0 500 l 1
 100 500 l 1
 100 100 l 1xe4
400 500 m 1
 500 500 l 1
 500 0 l 1
 100 0 l 1
 100 100 l 1
 400 100 l 1
 400 500 l 1
EndSplineSet
EndChar

StartChar: ydieresis
Encoding: 255 255 138
Width: 600
GlyphClass: 1
Flags: MW
HStem: -100 100<0 400 0 400> 100 100<100 400 0 100> 200 300<0 100 0 100 0 400> 600 100<100 200 100 200 300 400>
VStem: 0 100<200 500> 100 100<600 700 600 700> 300 100<600 700> 400 100<-100 500 0 100 100 100 200 500 0 500>
LayerCount: 2
Fore
SplineSet
200 700 m 1xd6
 200 600 l 1
 100 600 l 1
 100 700 l 1
 200 700 l 1xd6
400 700 m 1
 400 600 l 1
 300 600 l 1
 300 700 l 1
 400 700 l 1
100 200 m 1xb9
 0 200 l 1
 0 500 l 1
 100 500 l 1
 100 200 l 1xb9
400 500 m 1
 500 500 l 1
 500 0 l 1
 400 0 l 1
 400 100 l 1
 100 100 l 1
 100 200 l 1
 400 200 l 1xd9
 400 500 l 1
400 0 m 1
 400 -100 l 1
 0 -100 l 1
 0 0 l 1
 400 0 l 1
EndSplineSet
EndChar

StartChar: ccaron
Encoding: 269 269 139
Width: 600
GlyphClass: 2
Flags: MW
HStem: 0 100<0 100 100 400> 100 100<100 500 400 500 400 500 400 500> 300 100<400 500> 400 100<0 400 100 400 100 400 100 400 100 500> 600 100<200 300 100 200> 700 100<100 200 100 200 100 300 300 400>
VStem: 0 100<100 400> 100 100<700 800> 200 100<600 700 700 800 600 700 600 700> 300 100<700 800> 400 100<0 200 100 200 100 200 300 400>
LayerCount: 2
Fore
SplineSet
300 800 m 5x0440
 400 800 l 5
 400 700 l 5x0440
 300 700 l 5x0880
 300 800 l 5x0440
100 800 m 5x05
 200 800 l 5x05
 200 700 l 5x09
 100 700 l 5
 100 800 l 5x05
200 700 m 5x09
 300 700 l 5
 300 600 l 5
 200 600 l 5x0880
 200 700 l 5x09
400 500 m 1x1120
 400 400 l 1x2120
 100 400 l 1x1220
 100 500 l 1
 400 500 l 1x1120
0 400 m 1x52
 100 400 l 1
 100 100 l 1x92
 0 100 l 1
 0 400 l 1x52
500 300 m 1x2020
 400 300 l 1
 400 400 l 1
 500 400 l 1
 500 300 l 1x2020
500 200 m 1x4020
 500 100 l 1x4020
 400 100 l 1x8020
 400 200 l 1
 500 200 l 1x4020
100 0 m 1x8120
 100 100 l 1x82
 400 100 l 1
 400 0 l 1
 100 0 l 1x8120
EndSplineSet
EndChar

StartChar: florin
Encoding: 402 402 140
Width: 600
GlyphClass: 1
Flags: MW
HStem: 0 100<0 100 100 200> 100 100<0 100 0 100 0 200> 300 100<100 200 100 200 300 400> 500 100<400 500> 600 100<200 400 300 400 300 400 300 400 300 500>
VStem: 0 100<100 200> 100 100<0 100 0 100 100 200 0 100> 200 100<0 300 100 300 100 300 400 600> 300 100<100 400 500 600 300 400 600 700> 400 100<500 600 500 600 500 700 500 600>
LayerCount: 2
Fore
SplineSet
300 700 m 1x6c80
 400 700 l 1
 400 600 l 1
 300 600 l 1
 300 700 l 1x6c80
200 600 m 1x7540
 300 600 l 1
 300 400 l 1
 400 400 l 1
 400 300 l 1
 300 300 l 1
 300 100 l 1
 200 100 l 1
 200 300 l 1
 100 300 l 1
 100 400 l 1
 200 400 l 1
 200 600 l 1x7540
400 600 m 1
 500 600 l 1
 500 500 l 1
 400 500 l 1
 400 600 l 1
0 200 m 1
 100 200 l 1
 100 100 l 1
 0 100 l 1
 0 200 l 1
100 0 m 1xb240
 100 100 l 1
 200 100 l 1
 200 0 l 1
 100 0 l 1xb240
EndSplineSet
EndChar

StartChar: uni03A9
Encoding: 937 937 141
Width: 600
GlyphClass: 1
Flags: MW
HStem: 0 100<0 100 0 200 0 100 400 500> 600 100<0 400 100 400 100 400 100 400 100 500>
VStem: 0 100<0 200 100 200 200 600> 100 100<100 200 0 200 0 600 0 200> 100 300<100 200 100 200 200 600 100 200 600 700> 300 100<100 200 100 200 100 200> 400 100<0 200 0 100 200 600>
LayerCount: 2
Fore
SplineSet
400 700 m 1xc8
 400 600 l 1
 100 600 l 1
 100 700 l 1
 400 700 l 1xc8
0 600 m 1xe2
 100 600 l 1
 100 200 l 1
 0 200 l 1
 0 600 l 1xe2
400 600 m 1
 500 600 l 1
 500 200 l 1
 400 200 l 1
 400 600 l 1
0 100 m 1
 100 100 l 1
 100 200 l 1
 200 200 l 1
 200 0 l 1xd4
 0 0 l 1
 0 100 l 1
300 200 m 1
 400 200 l 1
 400 100 l 1xe4
 500 100 l 1
 500 0 l 1xe2
 300 0 l 1
 300 200 l 1
EndSplineSet
EndChar

StartChar: emdash
Encoding: 8212 8212 142
Width: 600
GlyphClass: 1
Flags: MW
HStem: 300 100<0 500 0 500>
VStem: 0 500<300 400 300 400>
LayerCount: 2
Fore
SplineSet
500 400 m 1
 500 300 l 1
 0 300 l 1
 0 400 l 1
 500 400 l 1
EndSplineSet
EndChar

StartChar: bullet
Encoding: 8226 8226 143
Width: 300
GlyphClass: 1
Flags: MW
HStem: 200 200<0 200 0 200>
VStem: 0 200<200 400 200 400>
LayerCount: 2
Fore
SplineSet
200 400 m 1
 200 200 l 1
 0 200 l 1
 0 400 l 1
 200 400 l 1
EndSplineSet
EndChar

StartChar: summation
Encoding: 8721 8721 144
Width: 600
GlyphClass: 1
Flags: MW
HStem: 0 100<100 400 100 500> 200 100<0 200 100 200 100 200 100 200> 300 100<100 200 100 200 200 300 100 200> 400 100<100 200 0 100> 600 100<100 400 100 100>
VStem: 0 100<100 200 100 200 100 200 500 600> 100 100<100 300 200 300 200 300 400 500> 200 100<200 300 300 400> 400 100<100 200 0 200 500 600 600 600>
LayerCount: 2
Fore
SplineSet
500 700 m 1xdd80
 500 500 l 1
 400 500 l 1
 400 600 l 1
 100 600 l 1
 100 500 l 1
 0 500 l 1
 0 700 l 1
 500 700 l 1xdd80
200 400 m 1xda80
 100 400 l 1
 100 500 l 1
 200 500 l 1
 200 400 l 1xda80
300 300 m 1xad80
 200 300 l 1
 200 400 l 1
 300 400 l 1
 300 300 l 1xad80
100 200 m 1xda80
 100 300 l 1
 200 300 l 1
 200 200 l 1
 100 200 l 1xda80
0 200 m 1xdd80
 100 200 l 1
 100 100 l 1
 400 100 l 1
 400 200 l 1
 500 200 l 1
 500 0 l 1
 0 0 l 1
 0 200 l 1xdd80
EndSplineSet
EndChar

StartChar: radical
Encoding: 8730 8730 145
Width: 900
GlyphClass: 1
Flags: MW
HStem: 100 100<100 300 100 200> 300 100<0 100 0 300> 600 100<600 800 600 600>
VStem: 200 100<0 200> 400 200<200 600 0 700 0 700>
LayerCount: 2
Fore
SplineSet
800 700 m 1
 800 600 l 1
 600 600 l 1
 600 0 l 1
 300 0 l 1
 300 100 l 1
 200 100 l 1
 200 200 l 1
 100 200 l 1
 100 300 l 1
 0 300 l 1
 0 400 l 1
 300 400 l 1
 300 200 l 1
 400 200 l 1
 400 700 l 1
 800 700 l 1
EndSplineSet
EndChar

StartChar: infinity
Encoding: 8734 8734 146
Width: 800
GlyphClass: 1
Flags: MW
HStem: 100 100<100 300 0 100 400 600> 200 200<0 100 0 100 100 300 300 400 400 600 600 700> 400 100<0 300 100 300 100 300 100 300 100 400 400 600>
VStem: 0 100<200 400> 100 200<100 200 200 400 100 200 100 200 400 500> 300 100<100 200 100 200 200 400 400 500> 400 200<100 200 200 400 100 200 100 200 400 500> 600 100<100 400 200 400 200 400 200 400 200 500>
LayerCount: 2
Fore
SplineSet
300 400 m 1x2a
 100 400 l 1
 100 500 l 1
 300 500 l 1
 300 400 l 1x2a
600 400 m 1
 400 400 l 1
 400 500 l 1
 600 500 l 1
 600 400 l 1
100 400 m 1x55
 100 200 l 1
 0 200 l 1
 0 400 l 1
 100 400 l 1x55
400 400 m 1
 400 200 l 1
 300 200 l 1
 300 400 l 1
 400 400 l 1
600 400 m 1
 700 400 l 1
 700 200 l 1
 600 200 l 1
 600 400 l 1
100 200 m 1x8a
 300 200 l 1
 300 100 l 1
 100 100 l 1
 100 200 l 1x8a
400 200 m 1
 600 200 l 1
 600 100 l 1
 400 100 l 1
 400 200 l 1
EndSplineSet
EndChar

StartChar: approxequal
Encoding: 8776 8776 147
Width: 800
GlyphClass: 1
Flags: MW
HStem: 100 100<0 100 0 200 0 100 400 500> 200 100<0 400 100 400 200 300 200 200 100 500 600 700 600 600> 400 100<0 100 0 200 0 100 400 500> 500 100<0 400 100 400 200 300 200 200 100 500 600 700 600 600>
VStem: 100 100<100 300> 300 100<100 300 200 300> 500 100<100 300>
LayerCount: 2
Fore
SplineSet
700 600 m 1x5e
 700 500 l 1
 600 500 l 1x5e
 600 400 l 1
 300 400 l 1x6e
 300 500 l 1
 200 500 l 1x5e
 200 400 l 1
 0 400 l 1
 0 500 l 1
 100 500 l 1x6e
 100 600 l 1
 400 600 l 1x5e
 400 500 l 1
 500 500 l 1x6e
 500 600 l 1
 700 600 l 1x5e
500 300 m 1
 700 300 l 1
 700 200 l 1
 600 200 l 1x5e
 600 100 l 1
 300 100 l 1x9e
 300 200 l 1
 200 200 l 1x5e
 200 100 l 1
 0 100 l 1
 0 200 l 1
 100 200 l 1x9e
 100 300 l 1
 400 300 l 1x5e
 400 200 l 1
 500 200 l 1x9e
 500 300 l 1
EndSplineSet
EndChar

StartChar: house
Encoding: 8962 8962 148
Width: 600
GlyphClass: 1
Flags: MW
HStem: 0 100<100 400 100 500> 300 100<0 200 100 200 100 200 100 200 300 400> 400 100<100 300 200 300 200 300 200 300 200 400>
VStem: 0 100<100 300 100 300 100 300> 100 100<100 400 300 400 300 400> 200 100<300 400 300 400 400 500> 300 100<300 400> 400 100<100 300 0 300 0 300 0 400>
LayerCount: 2
Fore
SplineSet
300 500 m 1xb5
 300 400 l 1
 200 400 l 1
 200 500 l 1
 300 500 l 1xb5
200 400 m 1xca
 200 300 l 1
 100 300 l 1
 100 400 l 1
 200 400 l 1xca
400 300 m 1
 300 300 l 1
 300 400 l 1
 400 400 l 1
 400 300 l 1
400 300 m 1
 500 300 l 1
 500 0 l 1
 0 0 l 1
 0 300 l 1
 100 300 l 1
 100 100 l 1
 400 100 l 1xd5
 400 300 l 1
EndSplineSet
EndChar

StartChar: smileface
Encoding: 9786 9786 149
Width: 900
GlyphClass: 1
Flags: MW
HStem: -100 100<100 700 0 100> 200 100<200 300 200 600 500 600 500 500> 400 100<200 300 200 300 500 600> 600 100<0 700 100 700 100 700 100 700 100 800>
VStem: 0 100<0 600> 200 100<100 300 400 500> 300 200<100 200 100 200 400 500> 500 100<100 300 400 500> 700 100<-100 600 0 600 0 700 0 600 0 600>
LayerCount: 2
Fore
SplineSet
100 600 m 1xfd80
 100 700 l 1
 700 700 l 1
 700 600 l 1
 100 600 l 1xfd80
100 0 m 1
 0 0 l 1
 0 600 l 1
 100 600 l 1
 100 0 l 1
700 600 m 1
 800 600 l 1
 800 0 l 1
 700 0 l 1
 700 600 l 1
300 500 m 1
 300 400 l 1
 200 400 l 1
 200 500 l 1
 300 500 l 1
500 400 m 1
 500 500 l 1
 600 500 l 1
 600 400 l 1
 500 400 l 1
600 300 m 1
 600 200 l 1xc1
 500 200 l 1
 500 100 l 1
 300 100 l 1
 300 200 l 1x42
 200 200 l 1
 200 300 l 1
 600 300 l 1
700 0 m 1
 700 -100 l 1
 100 -100 l 1
 100 0 l 1
 700 0 l 1
EndSplineSet
EndChar

StartChar: invsmileface
Encoding: 9787 9787 150
Width: 900
GlyphClass: 1
Flags: MW
HStem: -100 200<300 500 300 700> 0 200<0 300> 300 100<200 300 500 600 200 300> 500 200<200 200 200 300 500 500 500 600>
VStem: 0 200<200 300 400 500> 300 200<100 200 100 200 400 500> 600 200<200 300 300 300 400 500 500 500>
LayerCount: 2
Fore
SplineSet
700 600 m 1xba
 800 600 l 1
 800 0 l 1
 700 0 l 1x7e
 700 -100 l 1
 100 -100 l 1xba
 100 0 l 1
 0 0 l 1x7a
 0 600 l 1
 100 600 l 1
 100 700 l 1
 700 700 l 1
 700 600 l 1xba
200 500 m 1
 200 400 l 1
 300 400 l 1
 300 500 l 1
 200 500 l 1
600 400 m 1
 600 500 l 1
 500 500 l 1
 500 400 l 1
 600 400 l 1
600 200 m 1
 600 300 l 1
 200 300 l 1
 200 200 l 1
 300 200 l 1x7e
 300 100 l 1
 500 100 l 1xbe
 500 200 l 1
 600 200 l 1
EndSplineSet
EndChar

StartChar: sun
Encoding: 9788 9788 151
Width: 900
GlyphClass: 1
Flags: MW
HStem: -100 100<0 100 0 100 700 800> 0 100<0 200 100 200 100 200 100 200 600 700> 100 100<100 200 0 200 0 300 0 200 600 700 700 700> 200 200<0 200 0 200 300 500 600 800> 400 100<100 200 100 200 100 200 600 700> 500 100<100 200 0 100 600 700> 600 100<0 100 0 100 0 200 700 800>
VStem: 0 100<-100 0 -100 0 600 700> 100 100<-100 100 0 100 0 100 500 600> 200 100<0 100 0 0 -100 200 500 600> 300 200<-100 100 -100 100 -100 200 200 400 500 700> 500 100<0 100 0 100 500 600> 600 100<0 100 500 600> 700 100<-100 0 600 700>
LayerCount: 2
Fore
SplineSet
0 700 m 1xab54
 100 700 l 1
 100 600 l 1
 0 600 l 1
 0 700 l 1xab54
500 500 m 1x0a20
 600 500 l 1x0a14
 600 400 l 1
 800 400 l 1
 800 200 l 1
 600 200 l 1x1014
 600 100 l 1x2010
 500 100 l 1
 500 -100 l 1
 300 -100 l 1
 300 100 l 1xa020
 200 100 l 1x2040
 200 200 l 1
 0 200 l 1
 0 400 l 1
 200 400 l 1x1140
 200 500 l 1x0840
 300 500 l 1
 300 700 l 1
 500 700 l 1
 500 500 l 1x0a20
800 700 m 1
 800 600 l 1
 700 600 l 1
 700 700 l 1
 800 700 l 1
100 600 m 1x0488
 200 600 l 1
 200 500 l 1
 100 500 l 1
 100 600 l 1x0488
700 600 m 1
 700 500 l 1
 600 500 l 1
 600 600 l 1
 700 600 l 1
500 400 m 1x2850
 300 400 l 1
 300 200 l 1
 500 200 l 1
 500 400 l 1x2850
100 0 m 1x4088
 100 100 l 1
 200 100 l 1
 200 0 l 1
 100 0 l 1x4088
700 0 m 1
 600 0 l 1
 600 100 l 1
 700 100 l 1
 700 0 l 1
0 -100 m 1x8104
 0 0 l 1
 100 0 l 1
 100 -100 l 1
 0 -100 l 1x8104
800 -100 m 1
 700 -100 l 1
 700 0 l 1
 800 0 l 1
 800 -100 l 1
EndSplineSet
EndChar

StartChar: female
Encoding: 9792 9792 152
Width: 600
GlyphClass: 1
Flags: MW
HStem: 0 100<100 200 100 200 300 400> 200 100<100 200 0 100 300 400 300 300> 300 300<0 100 0 100 100 400 400 500> 600 100<0 400 100 400 100 400 100 400 100 500>
VStem: 0 100<300 600> 100 300<0 100 0 100 200 300 0 300 0 300 300 600 600 700> 200 100<-100 0 -100 0 100 200> 400 100<200 600 300 600 300 700 300 600 300 600>
LayerCount: 2
Fore
SplineSet
100 600 m 1xd4
 100 700 l 1
 400 700 l 1
 400 600 l 1
 100 600 l 1xd4
100 300 m 1xab
 0 300 l 1
 0 600 l 1
 100 600 l 1
 100 300 l 1xab
400 600 m 1
 500 600 l 1
 500 300 l 1
 400 300 l 1
 400 600 l 1
400 300 m 1xdb
 400 200 l 1
 300 200 l 1
 300 100 l 1
 400 100 l 1
 400 0 l 1
 300 0 l 1
 300 -100 l 1
 200 -100 l 1
 200 0 l 1
 100 0 l 1
 100 100 l 1
 200 100 l 1
 200 200 l 1
 100 200 l 1
 100 300 l 1
 400 300 l 1xdb
EndSplineSet
EndChar

StartChar: male
Encoding: 9794 9794 153
Width: 800
GlyphClass: 1
Flags: MW
HStem: -100 100<100 400 0 100> 0 300<0 100 0 100 100 400 400 500> 300 100<0 400 100 400 100 400 100 400 400 500> 400 100<100 500 400 500 400 500 400 500> 600 100<400 500 400 700>
VStem: 0 100<0 300> 100 300<-100 0 -100 0 -100 0 0 300 300 400> 400 100<-100 300 0 300 0 400 0 300 0 300 400 500> 600 100<400 500 500 500>
LayerCount: 2
Fore
SplineSet
700 700 m 1xad80
 700 400 l 1
 600 400 l 1
 600 500 l 1
 500 500 l 1x1180
 500 600 l 1
 400 600 l 1
 400 700 l 1
 700 700 l 1xad80
400 400 m 1
 400 500 l 1
 500 500 l 1
 500 400 l 1
 400 400 l 1
400 400 m 1
 400 300 l 1
 100 300 l 1
 100 400 l 1x22
 400 400 l 1
100 0 m 1x45
 0 0 l 1
 0 300 l 1
 100 300 l 1
 100 0 l 1x45
400 300 m 1
 500 300 l 1
 500 0 l 1
 400 0 l 1
 400 300 l 1
400 0 m 1x82
 400 -100 l 1
 100 -100 l 1
 100 0 l 1
 400 0 l 1x82
EndSplineSet
EndChar

StartChar: spade
Encoding: 9824 9824 154
Width: 800
GlyphClass: 1
Flags: MW
HStem: -100 100<100 200 500 600 100 200> 200 100<0 100 0 100 600 700>
VStem: 200 300<0 100 0 100 400 500> 300 100<500 700 500 700>
LayerCount: 2
Fore
SplineSet
600 300 m 1xd0
 700 300 l 1
 700 200 l 1
 600 200 l 1
 600 100 l 1
 500 100 l 1
 500 0 l 1
 600 0 l 1
 600 -100 l 1
 100 -100 l 1
 100 0 l 1
 200 0 l 1
 200 100 l 1
 100 100 l 1
 100 200 l 1xe0
 0 200 l 1
 0 300 l 1
 100 300 l 1
 100 400 l 1
 200 400 l 1
 200 500 l 1
 300 500 l 1
 300 700 l 1
 400 700 l 1
 400 500 l 1
 500 500 l 1
 500 400 l 1
 600 400 l 1
 600 300 l 1xd0
EndSplineSet
EndChar

StartChar: club
Encoding: 9827 9827 155
Width: 800
GlyphClass: 1
Flags: MW
HStem: -100 100<100 200 500 600 100 200> 200 200<0 100 0 200 600 700 600 600> 500 100<100 200 100 200 500 600>
VStem: 200 300<0 100 0 100 400 500 600 700>
LayerCount: 2
Fore
SplineSet
700 400 m 1
 700 200 l 1
 600 200 l 1
 600 100 l 1
 500 100 l 1
 500 0 l 1
 600 0 l 1
 600 -100 l 1
 100 -100 l 1
 100 0 l 1
 200 0 l 1
 200 100 l 1
 100 100 l 1
 100 200 l 1
 0 200 l 1
 0 400 l 1
 200 400 l 1
 200 500 l 1
 100 500 l 1
 100 600 l 1
 200 600 l 1
 200 700 l 1
 500 700 l 1
 500 600 l 1
 600 600 l 1
 600 500 l 1
 500 500 l 1
 500 400 l 1
 700 400 l 1
EndSplineSet
EndChar

StartChar: heart
Encoding: 9829 9829 156
Width: 800
GlyphClass: 1
Flags: MW
HStem: 0 700<100 400 100 300> 300 300<0 100 0 100 600 700>
VStem: 100 200<0 300 600 700> 300 100<0 100 0 100 600 700> 400 200<0 300 600 700>
LayerCount: 2
Fore
SplineSet
600 600 m 1x68
 700 600 l 1
 700 300 l 1
 600 300 l 1
 600 200 l 1
 500 200 l 1
 500 100 l 1x48
 400 100 l 1
 400 0 l 1
 300 0 l 1
 300 100 l 1
 200 100 l 1
 200 200 l 1x90
 100 200 l 1
 100 300 l 1
 0 300 l 1
 0 600 l 1
 100 600 l 1
 100 700 l 1
 300 700 l 1
 300 600 l 1
 400 600 l 1
 400 700 l 1
 600 700 l 1
 600 600 l 1x68
EndSplineSet
EndChar

StartChar: diamond
Encoding: 9830 9830 157
Width: 800
GlyphClass: 1
Flags: MW
HStem: 300 100<0 100 0 100 600 700>
VStem: 300 100<0 100 0 100 600 700>
LayerCount: 2
Fore
SplineSet
600 400 m 1
 700 400 l 1
 700 300 l 1
 600 300 l 1
 600 200 l 1
 500 200 l 1
 500 100 l 1
 400 100 l 1
 400 0 l 1
 300 0 l 1
 300 100 l 1
 200 100 l 1
 200 200 l 1
 100 200 l 1
 100 300 l 1
 0 300 l 1
 0 400 l 1
 100 400 l 1
 100 500 l 1
 200 500 l 1
 200 600 l 1
 300 600 l 1
 300 700 l 1
 400 700 l 1
 400 600 l 1
 500 600 l 1
 500 500 l 1
 600 500 l 1
 600 400 l 1
EndSplineSet
EndChar

StartChar: uring
Encoding: 367 367 158
Width: 600
Flags: W
HStem: 0 100<100 400> 480 20G<0 100 400 500> 500 100<200 300> 600 100<100 200 300 400> 700 100<200 300>
VStem: 0 100<100 500> 100 100<600 700> 200 100<500 600 700 800> 300 100<600 700> 400 100<100 500>
LayerCount: 2
Fore
SplineSet
300 700 m 5x91
 400 700 l 5
 400 600 l 5x9080
 300 600 l 5xa1
 300 700 l 5x91
200 600 m 5xa2
 300 600 l 5
 300 500 l 5
 200 500 l 5xa1
 200 600 l 5xa2
100 700 m 5x92
 200 700 l 5x92
 200 600 l 5xa2
 100 600 l 5
 100 700 l 5x92
200 800 m 5x89
 300 800 l 5x89
 300 700 l 5x91
 200 700 l 5x92
 200 800 l 5x89
100 100 m 1xc4
 0 100 l 1
 0 500 l 1
 100 500 l 1
 100 100 l 1xc4
400 500 m 1xc440
 500 500 l 1
 500 0 l 1
 100 0 l 1xc240
 100 100 l 1
 400 100 l 1
 400 500 l 1xc440
EndSplineSet
EndChar

StartChar: uni0410
Encoding: 1040 1040 159
Width: 600
Flags: W
HStem: 0 21G<0 100 400 500> 200 100<100 400> 480 20G<0 100> 500 100<100 200> 600 100<200 400>
VStem: 0 100<0 200 300 500> 100 100<500 600> 400 100<0 200 300 600>
LayerCount: 2
Fore
SplineSet
100 600 m 1xd3
 200 600 l 1
 200 500 l 5xd3
 100 500 l 5xe5
 100 600 l 1xd3
200 600 m 1
 200 700 l 1
 400 700 l 1
 400 600 l 1xcb
 200 600 l 1
400 600 m 1
 500 600 l 1
 500 0 l 1
 400 0 l 1
 400 200 l 1
 100 200 l 1
 100 0 l 1
 0 0 l 1
 0 500 l 1
 100 500 l 1
 100 300 l 1xed
 400 300 l 1
 400 600 l 1
EndSplineSet
EndChar

StartChar: uni0411
Encoding: 1041 1041 160
Width: 600
Flags: W
HStem: 0 100<100 400> 300 100<100 400> 600 100<100 400>
VStem: 0 400<0 100 300 400 600 700> 0 100<100 300 400 600> 400 100<100 300>
CounterMasks: 1 e0
LayerCount: 2
Fore
SplineSet
400 400 m 1xf0
 400 300 l 5xf0
 100 300 l 1
 100 100 l 1xe8
 400 100 l 1
 400 0 l 1
 0 0 l 1
 0 700 l 1
 400 700 l 1
 400 600 l 1xf0
 100 600 l 1
 100 400 l 1xe8
 400 400 l 1xf0
400 500 m 1025xe4
400 300 m 1xf0
 500 300 l 1
 500 100 l 1xe4
 400 100 l 1
 400 300 l 1xf0
EndSplineSet
EndChar

StartChar: uni0412
Encoding: 1042 1042 161
Width: 600
Flags: W
HStem: 0 100<100 400> 300 100<100 400> 600 100<100 400>
VStem: 0 400<0 100 300 400 600 700> 0 100<100 300 400 600> 400 100<100 300 400 600>
CounterMasks: 1 e0
LayerCount: 2
Fore
SplineSet
400 600 m 1xf0
 500 600 l 1
 500 400 l 1xe4
 400 400 l 1
 400 600 l 1xf0
400 400 m 1xf0
 400 300 l 1xf0
 100 300 l 1
 100 100 l 1xe8
 400 100 l 1
 400 0 l 1
 0 0 l 1
 0 700 l 1
 400 700 l 1
 400 600 l 1xf0
 100 600 l 1
 100 400 l 1xe8
 400 400 l 1xf0
400 500 m 1025xe4
400 300 m 1xf0
 500 300 l 1
 500 100 l 1xe4
 400 100 l 1
 400 300 l 1xf0
EndSplineSet
EndChar

StartChar: uni0413
Encoding: 1043 1043 162
Width: 600
Flags: W
LayerCount: 2
Fore
SplineSet
100 0 m 1
 100 100 l 1
 100 400 l 1
 100 500 l 1
 100 600 l 1
 500 600 l 1
 500 700 l 1
 0 700 l 1
 0 0 l 1
 100 0 l 1
EndSplineSet
EndChar

StartChar: uni0414
Encoding: 1044 1044 163
Width: 600
Flags: W
HStem: -100 200<0 100 400 500> 0 100<100 400>
VStem: 0 100<-100 0> 400 100<-100 0>
LayerCount: 2
Fore
SplineSet
100 100 m 25xb0
 200 100 l 1x70
 200 600 l 25
 100 600 l 1
 100 100 l 25xb0
400 100 m 29xb0
 400 700 l 25
 200 700 l 25
 200 600 l 25
 300 600 l 25
 300 100 l 29x70
 400 100 l 29xb0
0 -100 m 1xb0
 0 100 l 1
 500 100 l 1
 500 -100 l 25
 400 -100 l 25xb0
 400 0 l 1
 100 0 l 1x70
 100 -100 l 1
 0 -100 l 1xb0
EndSplineSet
EndChar

StartChar: uni0415
Encoding: 1045 1045 164
Width: 600
Flags: W
HStem: 0 100<100 500 100 500> 400 100<100 300 100 300> 600 100<100 100 100 500>
VStem: 0 100<100 400 500 600>
LayerCount: 2
Fore
SplineSet
100 600 m 1
 100 500 l 1
 300 500 l 1
 300 400 l 1
 100 400 l 1
 100 100 l 1
 500 100 l 1
 500 0 l 1
 0 0 l 1
 0 700 l 1
 500 700 l 1
 500 600 l 1
 100 600 l 1
EndSplineSet
EndChar

StartChar: uni0416
Encoding: 1046 1046 165
Width: 600
Flags: W
HStem: 0 300<0 100 400 500>
VStem: 0 100<0 300> 400 100<0 300>
LayerCount: 2
Fore
SplineSet
400 300 m 25
 500 300 l 1
 500 0 l 25
 400 0 l 1
 400 300 l 25
400 400 m 25
 500 400 l 1
 500 700 l 25
 400 700 l 5
 400 400 l 25
100 400 m 1
 100 300 l 25
 200 300 l 1
 200 0 l 25
 300 0 l 25
 300 300 l 25
 400 300 l 25
 400 400 l 25
 300 400 l 25
 300 700 l 25
 200 700 l 25
 200 400 l 25
 100 400 l 1
0 0 m 25
 0 300 l 1
 100 300 l 25
 100 0 l 1
 0 0 l 25
0 700 m 25
 0 400 l 1
 100 400 l 25
 100 700 l 1
 0 700 l 25
EndSplineSet
EndChar

StartChar: uni0417
Encoding: 1047 1047 166
Width: 600
Flags: W
HStem: 0 100<100 400 0 100> 100 100<0 100 0 100 0 400> 100 200<0 400 200 400 200 400 200 400 200 400 400 500> 300 100<200 400 200 400 400 500> 400 200<200 400 400 500> 500 100<0 100 0 100> 600 100<0 400 100 400 100 400 100 400 100 500>
VStem: 0 100<100 200 500 600> 100 300<0 100 0 100 100 200 0 100 500 600 500 500 600 700> 200 200<300 400> 400 100<0 300 100 300 100 300 100 400 100 300 400 600>
LayerCount: 2
Fore
SplineSet
400 700 m 1x0280
 400 600 l 1
 100 600 l 1
 100 700 l 1
 400 700 l 1x0280
0 500 m 1x05
 0 600 l 1
 100 600 l 1
 100 500 l 1
 0 500 l 1x05
400 600 m 1x0820
 500 600 l 1
 500 400 l 1
 400 400 l 1
 400 600 l 1x0820
200 400 m 1x1040
 400 400 l 1
 400 300 l 1
 200 300 l 1
 200 400 l 1x1040
400 100 m 1x2020
 400 300 l 1
 500 300 l 1
 500 100 l 1
 400 100 l 1x2020
0 200 m 1x41
 100 200 l 1
 100 100 l 1
 0 100 l 1
 0 200 l 1x41
400 100 m 1x8080
 400 0 l 1
 100 0 l 1
 100 100 l 1
 400 100 l 1x8080
EndSplineSet
EndChar

StartChar: uni0418
Encoding: 1048 1048 167
Width: 600
Flags: W
LayerCount: 2
Fore
SplineSet
100 100 m 1
 200 100 l 1
 200 200 l 1
 100 200 l 1
 100 700 l 1
 0 700 l 1
 0 0 l 1
 100 0 l 1
 100 100 l 1
400 0 m 1
 500 0 l 1
 500 700 l 1
 400 700 l 1
 400 400 l 1
 300 400 l 1
 300 300 l 1
 400 300 l 1
 400 0 l 1
200 200 m 1
 300 200 l 1
 300 300 l 1
 200 300 l 1
 200 200 l 1
EndSplineSet
EndChar

StartChar: uni0419
Encoding: 1049 1049 168
Width: 600
Flags: W
HStem: 600 100<200 300> 700 100<100 200 300 400>
VStem: 100 100<700 800> 200 100<600 700> 300 100<700 800>
LayerCount: 2
Fore
SplineSet
100 800 m 1x60
 200 800 l 1x60
 200 700 l 1xa0
 100 700 l 1
 100 800 l 1x60
300 800 m 1x48
 400 800 l 1
 400 700 l 1x48
 300 700 l 1x90
 300 800 l 1x48
200 700 m 1xa0
 300 700 l 1
 300 600 l 1
 200 600 l 1x90
 200 700 l 1xa0
100 100 m 1x60
 200 100 l 1
 200 200 l 1x50
 100 200 l 1
 100 700 l 1
 0 700 l 1
 0 0 l 1
 100 0 l 1
 100 100 l 1x60
400 0 m 1x48
 500 0 l 1
 500 700 l 1
 400 700 l 1
 400 400 l 1
 300 400 l 1
 300 300 l 1
 400 300 l 1
 400 0 l 1x48
200 200 m 1x10
 300 200 l 1
 300 300 l 1x08
 200 300 l 1
 200 200 l 1x10
EndSplineSet
EndChar

StartChar: uni041A
Encoding: 1050 1050 169
Width: 600
Flags: W
HStem: 0 300<0 400 300 400 400 500> 300 100<300 400 100 300> 400 100<100 300 100 300 300 400> 500 100<100 400 300 400 300 400 300 400> 600 100<400 500>
VStem: 0 100<0 400 500 700> 300 100<300 400 500 600> 400 100<0 300 0 300 0 300 0 400 600 700>
LayerCount: 2
Fore
SplineSet
300 500 m 1x2d
 300 400 l 1
 100 400 l 1
 100 0 l 1
 0 0 l 1
 0 700 l 1
 100 700 l 1
 100 500 l 1
 300 500 l 1x2d
500 700 m 1
 500 600 l 1
 400 600 l 1
 400 700 l 1
 500 700 l 1
400 600 m 1x56
 400 500 l 1
 300 500 l 1
 300 600 l 1
 400 600 l 1x56
400 300 m 1
 300 300 l 1
 300 400 l 1
 400 400 l 1
 400 300 l 1
400 300 m 1
 500 300 l 1
 500 0 l 1
 400 0 l 1xad
 400 300 l 1
EndSplineSet
EndChar

StartChar: uni041B
Encoding: 1051 1051 170
Width: 600
Flags: W
HStem: 0 21G<0 100> 480 20G<100.933 200>
VStem: 0 100<0 200> 100 100<200 500>
LayerCount: 2
Fore
SplineSet
0 200 m 1xe0
 100 200 l 1
 100 0 l 1
 0 0 l 1
 0 200 l 1xe0
101 500 m 1
 200 500 l 1
 200 200 l 1xd0
 100 200 l 1
 101 500 l 1
500 0 m 25
 500 700 l 25
 200 700 l 25
 200 500 l 25
 300 500 l 25
 300 600 l 25
 400 600 l 25
 400 0 l 25
 500 0 l 25
EndSplineSet
EndChar

StartChar: uni041C
Encoding: 1052 1052 171
Width: 600
Flags: W
HStem: 400 100<100 200 200 300> 500 100<100 200 100 200 100 300 300 400>
VStem: 0 100<0 500 600 700> 200 100<400 500 400 500 500 600 400 500> 400 100<0 500 500 500 600 700 0 700>
LayerCount: 2
Fore
SplineSet
100 600 m 1x78
 200 600 l 1
 200 500 l 1
 100 500 l 1
 100 0 l 1
 0 0 l 1
 0 700 l 1
 100 700 l 1
 100 600 l 1x78
400 700 m 1
 500 700 l 1
 500 0 l 1
 400 0 l 1
 400 500 l 1
 300 500 l 1
 300 600 l 1
 400 600 l 1
 400 700 l 1
200 400 m 1xb8
 200 500 l 1
 300 500 l 1
 300 400 l 1
 200 400 l 1xb8
EndSplineSet
EndChar

StartChar: uni041D
Encoding: 1053 1053 172
Width: 600
Flags: W
HStem: 0 21G<0 100 400 500> 300 100<100 400> 680 20G<0 100 400 500>
VStem: 0 100<0 300 400 700> 400 100<0 300 400 700>
LayerCount: 2
Fore
SplineSet
400 700 m 1
 500 700 l 1
 500 0 l 1
 400 0 l 1
 400 300 l 5
 100 300 l 1
 100 0 l 1
 0 0 l 1
 0 700 l 1
 100 700 l 1
 100 400 l 1
 400 400 l 1
 400 700 l 1
EndSplineSet
EndChar

StartChar: uni041E
Encoding: 1054 1054 173
Width: 600
Flags: W
HStem: 0 100<100 400 0 100> 600 100<0 400 100 400 100 400 100 400 100 500>
VStem: 0 100<100 600> 100 300<0 100 0 100 0 100 100 600 600 700> 400 100<0 600 100 600 100 700 100 600 100 600>
LayerCount: 2
Fore
SplineSet
100 600 m 1xd0
 100 700 l 1
 400 700 l 1
 400 600 l 1
 100 600 l 1xd0
100 100 m 1xe8
 0 100 l 1
 0 600 l 1
 100 600 l 1
 100 100 l 1xe8
400 600 m 1
 500 600 l 1
 500 100 l 1
 400 100 l 1
 400 600 l 1
400 100 m 1xd0
 400 0 l 1
 100 0 l 1
 100 100 l 1
 400 100 l 1xd0
EndSplineSet
EndChar

StartChar: uni041F
Encoding: 1055 1055 174
Width: 600
Flags: W
HStem: 0 21G<0 100 400 500> 600 100<100 400>
VStem: 0 100<0 600> 400 100<0 600>
LayerCount: 2
Fore
SplineSet
100 600 m 17
 100 500 l 1
 100 400 l 1
 100 100 l 1
 100 0 l 1
 0 0 l 1
 0 700 l 1
 500 700 l 1
 500 0 l 5
 400 0 l 25
 400 600 l 1
 100 600 l 17
EndSplineSet
EndChar

StartChar: uni0420
Encoding: 1056 1056 175
Width: 600
Flags: W
HStem: 0 21G<0 100> 300 100<100 400> 600 100<100 400>
VStem: 0 100<0 300 400 600> 400 100<400 600>
LayerCount: 2
Fore
SplineSet
400 400 m 1
 400 300 l 1
 100 300 l 1
 100 0 l 1
 0 0 l 1
 0 700 l 1
 400 700 l 1
 400 600 l 1
 100 600 l 1
 100 400 l 1
 400 400 l 1
400 600 m 1
 500 600 l 1
 500 400 l 5
 400 400 l 1
 400 600 l 1
EndSplineSet
EndChar

StartChar: uni0421
Encoding: 1057 1057 176
Width: 600
Flags: W
HStem: 0 100<0 100 100 400> 100 100<100 500 400 500 400 500 400 500> 500 100<400 500> 600 100<0 400 100 400 100 400 100 400 100 500>
VStem: 0 100<100 600> 100 300<0 100 0 100 100 200 500 600 0 100 600 700> 400 100<0 200 100 200 100 200 500 600>
LayerCount: 2
Fore
SplineSet
400 700 m 1x94
 400 600 l 1
 100 600 l 1
 100 700 l 1
 400 700 l 1x94
0 600 m 1x9a
 100 600 l 1
 100 100 l 1
 0 100 l 1
 0 600 l 1x9a
500 500 m 1x6a
 400 500 l 1
 400 600 l 1
 500 600 l 1
 500 500 l 1x6a
500 200 m 1
 500 100 l 1
 400 100 l 1
 400 200 l 1
 500 200 l 1
100 0 m 1x94
 100 100 l 1
 400 100 l 1
 400 0 l 1
 100 0 l 1x94
EndSplineSet
EndChar

StartChar: uni0422
Encoding: 1058 1058 177
Width: 600
Flags: W
HStem: 600 100<0 200 0 500 300 500 300 300>
VStem: 200 100<0 600 0 600>
LayerCount: 2
Fore
SplineSet
500 700 m 1
 500 600 l 1
 300 600 l 1
 300 0 l 1
 200 0 l 1
 200 600 l 1
 0 600 l 1
 0 700 l 1
 500 700 l 1
EndSplineSet
EndChar

StartChar: uni0423
Encoding: 1059 1059 178
Width: 600
Flags: W
HStem: 0 100<0 100> 100 100<100 200> 200 100<200 300> 300 200<100 200 300 400> 500 21G<0 100> 680 20G<0 100>
VStem: 0 100<0 100 500 700> 100 100<100 200 300 500> 200 100<200 300> 300 100<300 500>
LayerCount: 2
Fore
SplineSet
0 100 m 5x86
 100 100 l 25
 100 0 l 1
 0 0 l 25
 0 100 l 5x86
100 200 m 1x45
 200 200 l 25
 200 100 l 1x45
 100 100 l 25x86
 100 200 l 1x45
200 300 m 1x25
 300 300 l 1
 300 200 l 1x2480
 200 200 l 1x45
 200 300 l 1x25
100 500 m 25x16
 200 500 l 1x15
 200 300 l 25x25
 100 300 l 1x15
 100 500 l 25x16
300 500 m 1x1440
 400 500 l 1
 400 300 l 1x1440
 300 300 l 1x2480
 300 500 l 1x1440
0 700 m 25x0e
 100 700 l 25
 100 500 l 25x16
 0 500 l 25
 0 700 l 25x0e
400 700 m 25x0c40
 400 500 l 25x1440
 500 500 l 25
 500 700 l 25
 400 700 l 25x0c40
EndSplineSet
EndChar

StartChar: uni0424
Encoding: 1060 1060 179
Width: 600
Flags: W
HStem: 0 21G<200 300> 200 300<0 100 400 500> 500 100<100 200 300 400> 680 20G<200 300>
VStem: 0 100<200 500> 100 100<500 600> 200 100<0 100 200 500 600 700> 400 100<200 500>
LayerCount: 2
Fore
SplineSet
400 500 m 1xd1
 500 500 l 1
 500 200 l 1
 400 200 l 1
 400 500 l 1xd1
0 500 m 1xd9
 100 500 l 1
 100 200 l 1
 0 200 l 5
 0 500 l 1xd9
300 100 m 25xd3
 400 100 l 25
 400 200 l 25
 300 200 l 25
 300 100 l 25xd3
100 100 m 1xd5
 200 100 l 25
 200 200 l 1
 100 200 l 25xdb
 100 100 l 1xd5
100 600 m 25xb5
 200 600 l 25
 200 500 l 25xb5
 100 500 l 25xd9
 100 600 l 25xb5
300 600 m 25xb3
 400 600 l 25xb3
 400 500 l 25xd3
 300 500 l 25
 300 600 l 25xb3
200 700 m 1
 300 700 l 1
 300 0 l 1
 200 0 l 1
 200 700 l 1
EndSplineSet
EndChar

StartChar: uni0425
Encoding: 1061 1061 180
Width: 600
Flags: W
HStem: 0 300<0 100 0 100 400 500> 300 100<0 200 100 200 100 200 100 200 300 400> 400 100<100 200 100 200 200 300 100 200 300 400> 500 100<100 200 0 100 300 400> 600 100<0 100 0 100 0 200 400 500>
VStem: 0 100<0 300 0 300 600 700> 100 100<0 400 300 400 300 400 500 600> 200 100<300 400 300 400 400 500 500 600> 300 100<300 400 500 600> 400 100<0 300 0 300 0 300 0 400 600 700>
LayerCount: 2
Fore
SplineSet
0 700 m 1x0c40
 100 700 l 1
 100 600 l 1
 0 600 l 1
 0 700 l 1x0c40
500 700 m 1
 500 600 l 1
 400 600 l 1
 400 700 l 1
 500 700 l 1
100 600 m 1x1280
 200 600 l 1
 200 500 l 1
 100 500 l 1
 100 600 l 1x1280
400 600 m 1
 400 500 l 1
 300 500 l 1
 300 600 l 1
 400 600 l 1
200 500 m 1x21
 300 500 l 1
 300 400 l 1
 200 400 l 1
 200 500 l 1x21
100 300 m 1x4280
 100 400 l 1
 200 400 l 1
 200 300 l 1
 100 300 l 1x4280
400 300 m 1
 300 300 l 1
 300 400 l 1
 400 400 l 1
 400 300 l 1
0 300 m 1x8440
 100 300 l 1
 100 0 l 1
 0 0 l 1
 0 300 l 1x8440
400 300 m 1
 500 300 l 1
 500 0 l 1
 400 0 l 1
 400 300 l 1
EndSplineSet
EndChar

StartChar: uni0426
Encoding: 1062 1062 181
Width: 600
Flags: W
HStem: -100 21G<500 600> 0 100<100 400> 680 20G<0 100 400 500>
VStem: 0 100<100 700> 400 100<100 700> 500 100<-100 0>
LayerCount: 2
Fore
SplineSet
0 700 m 25xf4
 100 700 l 25
 100 100 l 25
 400 100 l 25
 400 700 l 25
 500 700 l 25
 500 100 l 25xf8
 600 100 l 25
 600 -100 l 25
 500 -100 l 25
 500 0 l 25
 0 0 l 29
 0 700 l 25xf4
EndSplineSet
EndChar

StartChar: uni0427
Encoding: 1063 1063 182
Width: 600
Flags: W
HStem: 680 20G<0 100>
VStem: 0 100<400 700>
LayerCount: 2
Fore
SplineSet
0 700 m 25
 100 700 l 1
 100 400 l 25
 0 400 l 1
 0 700 l 25
400 0 m 25
 500 0 l 25
 500 700 l 25
 400 700 l 25
 400 400 l 25
 100 400 l 25
 100 300 l 25
 400 300 l 25
 400 0 l 25
EndSplineSet
EndChar

StartChar: uni0428
Encoding: 1064 1064 183
Width: 600
Flags: W
LayerCount: 2
Fore
SplineSet
0 700 m 25
 0 0 l 25
 500 0 l 25
 500 700 l 25
 400 700 l 25
 400 100 l 29
 300 100 l 25
 300 700 l 25
 200 700 l 25
 200 100 l 1
 100 100 l 25
 100 700 l 1
 0 700 l 25
EndSplineSet
EndChar

StartChar: uni0429
Encoding: 1065 1065 184
Width: 600
Flags: W
LayerCount: 2
Fore
SplineSet
500 -100 m 1
 600 -100 l 25
 600 100 l 1
 500 100 l 25
 500 -100 l 1
0 700 m 25
 0 0 l 25
 500 0 l 25
 500 700 l 25
 400 700 l 25
 400 100 l 25
 300 100 l 25
 300 700 l 25
 200 700 l 25
 200 100 l 1
 100 100 l 25
 100 700 l 1
 0 700 l 25
EndSplineSet
EndChar

StartChar: uni042A
Encoding: 1066 1066 185
Width: 600
Flags: W
VStem: 400 100<100 300>
LayerCount: 2
Fore
SplineSet
400 300 m 1
 500 300 l 1
 500 100 l 1
 400 100 l 5
 400 300 l 1
0 700 m 25
 0 600 l 25
 100 600 l 25
 100 0 l 25
 400 0 l 25
 400 100 l 25
 200 100 l 25
 200 300 l 25
 400 300 l 25
 400 400 l 25
 200 400 l 25
 200 700 l 25
 0 700 l 25
EndSplineSet
EndChar

StartChar: uni042B
Encoding: 1067 1067 186
Width: 700
Flags: W
VStem: 300 100<100 300>
LayerCount: 2
Fore
SplineSet
500 700 m 25
 500 0 l 25
 600 0 l 25
 600 700 l 25
 500 700 l 25
300 300 m 5
 400 300 l 5
 400 100 l 5
 300 100 l 5
 300 300 l 5
0 700 m 25
 0 0 l 25
 300 0 l 29
 300 100 l 29
 100 100 l 25
 100 300 l 25
 300 300 l 29
 300 400 l 29
 100 400 l 25
 100 700 l 25
 0 700 l 25
EndSplineSet
EndChar

StartChar: uni042C
Encoding: 1068 1068 187
Width: 600
Flags: W
VStem: 400 100<100 300>
LayerCount: 2
Fore
SplineSet
400 300 m 1
 500 300 l 1
 500 100 l 1
 400 100 l 1
 400 300 l 1
0 700 m 25
 0 0 l 25
 400 0 l 25
 400 100 l 25
 100 100 l 25
 100 300 l 25
 400 300 l 25
 400 400 l 25
 100 400 l 25
 100 700 l 25
 0 700 l 25
EndSplineSet
EndChar

StartChar: uni042D
Encoding: 1069 1069 188
Width: 600
Flags: W
HStem: 0 100<100 400> 100 100<0 100> 300 100<200 400> 500 100<0 100> 600 100<100 400>
VStem: 0 100<100 200 500 600> 100 300<0 100 600 700> 400 100<100 300 400 600>
LayerCount: 2
Fore
SplineSet
500 300 m 1x21
 500 400 l 1
 400 400 l 1
 400 300 l 5
 500 300 l 1x21
400 700 m 1x2a
 400 600 l 1x2a
 100 600 l 1x34
 100 700 l 1
 400 700 l 1x2a
0 500 m 1x34
 0 600 l 1
 100 600 l 1
 100 500 l 1
 0 500 l 1x34
400 600 m 1x2a
 500 600 l 1
 500 400 l 1
 400 400 l 1x29
 400 600 l 1x2a
200 400 m 1
 400 400 l 1
 400 300 l 1
 200 300 l 1
 200 400 l 1
400 100 m 1xa2
 400 300 l 1
 500 300 l 1
 500 100 l 1x61
 400 100 l 1xa2
0 200 m 1x64
 100 200 l 1x64
 100 100 l 1xa4
 0 100 l 1
 0 200 l 1x64
400 100 m 1xa2
 400 0 l 1
 100 0 l 1xa2
 100 100 l 1xa4
 400 100 l 1xa2
EndSplineSet
EndChar

StartChar: uni042E
Encoding: 1070 1070 189
Width: 700
Flags: W
HStem: 600 100<300 500>
LayerCount: 2
Fore
SplineSet
500 100 m 29
 600 100 l 29
 600 600 l 29
 500 600 l 29
 500 100 l 29
300 100 m 1
 300 0 l 1
 500 0 l 5
 500 100 l 5
 300 100 l 1
300 700 m 1
 500 700 l 5
 500 600 l 5
 300 600 l 1
 300 700 l 1
0 700 m 25
 0 0 l 25
 100 0 l 25
 100 300 l 25
 200 300 l 25
 200 100 l 25
 300 100 l 25
 300 600 l 25
 200 600 l 25
 200 400 l 25
 100 400 l 25
 100 700 l 25
 0 700 l 25
EndSplineSet
EndChar

StartChar: uni042F
Encoding: 1071 1071 190
Width: 600
Flags: W
HStem: 0 100<0 100> 100 100<100 200> 200 100<200 300>
VStem: 0 100<0 100 400 600> 100 100<100 200> 200 100<200 300>
LayerCount: 2
Fore
SplineSet
200 300 m 1x24
 300 300 l 1
 300 200 l 1x24
 200 200 l 5x48
 200 300 l 1x24
100 200 m 1x48
 200 200 l 1
 200 100 l 1x48
 100 100 l 1x90
 100 200 l 1x48
0 100 m 1x90
 100 100 l 1
 100 0 l 1
 0 0 l 1
 0 100 l 1x90
0 600 m 1
 100 600 l 1
 100 400 l 1
 0 400 l 1
 0 600 l 1
500 700 m 25
 100 700 l 25xa8
 100 600 l 25
 400 600 l 25
 400 400 l 25
 100 400 l 25xb0
 100 300 l 25
 400 300 l 25xa8
 400 0 l 25
 500 0 l 25
 500 700 l 25
EndSplineSet
EndChar

StartChar: uni0430
Encoding: 1072 1072 191
Width: 600
Flags: W
HStem: 0 100<100 400 0 100> 100 100<0 100 0 100 100 400> 200 100<0 400 100 400 100 400 100 400> 400 100<100 400 100 400 100 500>
VStem: 0 100<100 200> 100 300<0 200 100 200 100 200 100 200 100 300 100 300 400 500> 400 100<100 200 200 200 300 400 0 500 0 400 0 400>
LayerCount: 2
Fore
SplineSet
400 500 m 1xb4
 400 400 l 1
 100 400 l 1
 100 500 l 1
 400 500 l 1xb4
400 400 m 1xba
 500 400 l 1
 500 0 l 1
 100 0 l 1
 100 100 l 1
 400 100 l 1
 400 200 l 1
 100 200 l 1
 100 300 l 1
 400 300 l 1
 400 400 l 1xba
0 200 m 1x5a
 100 200 l 1
 100 100 l 1
 0 100 l 1
 0 200 l 1x5a
EndSplineSet
EndChar

StartChar: uni0431
Encoding: 1073 1073 192
Width: 600
Flags: W
HStem: 0 100<100 400> 100 200<0 100 400 500> 300 100<100 400> 400 100<0 100> 500 100<100 500>
VStem: 0 100<100 300 400 500> 100 300<0 100 300 400> 400 100<100 300>
LayerCount: 2
Fore
SplineSet
100 600 m 1x0a
 500 600 l 1
 500 500 l 1x09
 100 500 l 5x15
 100 600 l 1x0a
0 400 m 1x14
 0 500 l 1
 100 500 l 1x14
 100 400 l 1x24
 0 400 l 1x14
100 300 m 1x44
 100 400 l 1x24
 400 400 l 1x22
 400 300 l 1x42
 100 300 l 1x44
500 100 m 1x41
 400 100 l 1x82
 400 300 l 1x42
 500 300 l 1
 500 100 l 1x41
100 100 m 1x84
 400 100 l 1
 400 0 l 1
 100 0 l 1x82
 100 100 l 1x84
0 300 m 1x44
 100 300 l 1x44
 100 100 l 1x84
 0 100 l 1
 0 300 l 1x44
EndSplineSet
EndChar

StartChar: uni0432
Encoding: 1074 1074 193
Width: 600
Flags: W
HStem: 0 100<0 100 100 400> 100 100<100 500 400 500 400 500 400 500> 100 300<0 100 0 100 100 400 400 500> 300 100<400 500> 400 100<0 400 100 400 100 400 100 400 100 500>
VStem: 0 100<100 400> 100 300<0 100 0 100 100 200 300 400 0 100 400 500> 400 100<0 200 100 200 100 200 300 400>
LayerCount: 2
Fore
SplineSet
400 500 m 1x8a
 400 400 l 1
 100 400 l 1
 100 500 l 1
 400 500 l 1x8a
0 400 m 1x25
 100 400 l 1
 100 100 l 1
 0 100 l 1
 0 400 l 1x25
500 300 m 1x55
 400 300 l 1
 400 400 l 1
 500 400 l 1
 500 300 l 1x55
500 200 m 1
 500 100 l 1
 400 100 l 1
 400 200 l 1
 500 200 l 1
100 0 m 1x8a
 100 100 l 1
 400 100 l 1
 400 0 l 1
 100 0 l 1x8a
EndSplineSet
EndChar

StartChar: uni0433
Encoding: 1075 1075 194
Width: 600
Flags: W
LayerCount: 2
Fore
SplineSet
0 0 m 29
 100 0 l 25
 100 400 l 25
 500 400 l 25
 500 500 l 25
 0 500 l 25
 0 0 l 29
EndSplineSet
EndChar

StartChar: uni0434
Encoding: 1076 1076 195
Width: 600
Flags: W
HStem: -20 20G<100 400>
LayerCount: 2
Fore
SplineSet
0 -100 m 25
 100 -100 l 25
 100 0 l 25
 400 0 l 25
 400 -100 l 25
 500 -100 l 25
 500 100 l 25
 400 100 l 25
 400 500 l 25
 200 500 l 1
 200 400 l 29
 300 400 l 1
 300 100 l 25
 200 100 l 25
 200 400 l 25
 100 400 l 25
 100 100 l 25
 0 100 l 25
 0 -100 l 25
EndSplineSet
EndChar

StartChar: uni0435
Encoding: 1077 1077 196
Width: 600
Flags: W
HStem: 0 100<0 100 100 500> 200 100<100 400 100 500 100 400> 400 100<0 400 100 400 100 400 100 400 100 500>
VStem: 0 100<100 200 300 400> 100 300<0 400 100 400 100 400 100 400 300 400 300 400 400 500 300 500> 400 100<300 400>
LayerCount: 2
Fore
SplineSet
100 400 m 1xe8
 100 500 l 1
 400 500 l 1
 400 400 l 1
 100 400 l 1xe8
400 400 m 1xf4
 500 400 l 1
 500 200 l 1
 100 200 l 1
 100 100 l 1
 0 100 l 1
 0 400 l 1
 100 400 l 1
 100 300 l 1
 400 300 l 1
 400 400 l 1xf4
100 0 m 1
 100 100 l 1
 500 100 l 1
 500 0 l 1
 100 0 l 1
EndSplineSet
EndChar

StartChar: uni0436
Encoding: 1078 1078 197
Width: 600
Flags: W
HStem: 0 200<0 100 400 500> 200 100<100 200 300 400> 300 200<0 100 400 500>
VStem: 0 100<0 200 300 500> 200 100<0 200 300 500> 400 100<0 200 300 500>
CounterMasks: 1 1c
LayerCount: 2
Fore
SplineSet
100 300 m 1x5c
 200 300 l 1x5c
 200 500 l 25
 300 500 l 25x3c
 300 300 l 1
 400 300 l 1x5c
 400 200 l 5x9c
 300 200 l 1x5c
 300 0 l 25
 200 0 l 25x9c
 200 200 l 1x5c
 100 200 l 1x9c
 100 300 l 1x5c
400 200 m 1x9c
 500 200 l 1
 500 0 l 1
 400 0 l 1
 400 200 l 1x9c
400 500 m 1x3c
 500 500 l 1
 500 300 l 1x3c
 400 300 l 1x5c
 400 500 l 1x3c
0 200 m 1x9c
 100 200 l 1
 100 0 l 1
 0 0 l 1
 0 200 l 1x9c
0 500 m 1x3c
 100 500 l 1x3c
 100 300 l 1x5c
 0 300 l 1
 0 500 l 1x3c
EndSplineSet
EndChar

StartChar: uni0437
Encoding: 1079 1079 198
Width: 600
Flags: W
HStem: 0 100<100 400> 100 100<0 100 400 500> 200 100<200 400> 300 100<0 100 400 500> 400 100<100 400>
VStem: 0 100<100 200 300 400> 100 300<0 100 400 500> 400 100<100 200 300 400>
LayerCount: 2
Fore
SplineSet
0 300 m 1x14
 0 400 l 1
 100 400 l 1
 100 300 l 1
 0 300 l 1x14
100 400 m 1
 100 500 l 1
 400 500 l 1x0a
 400 400 l 1x12
 100 400 l 1
400 300 m 1x21
 400 400 l 1x12
 500 400 l 1
 500 300 l 1x11
 400 300 l 1x21
200 200 m 5x21
 200 300 l 5
 400 300 l 1x21
 400 200 l 1x41
 200 200 l 5x21
400 100 m 1x82
 400 200 l 1
 500 200 l 1
 500 100 l 1x41
 400 100 l 1x82
0 200 m 1x44
 100 200 l 1x44
 100 100 l 1x84
 0 100 l 1
 0 200 l 1x44
100 100 m 1x84
 400 100 l 1
 400 0 l 1
 100 0 l 1x82
 100 100 l 1x84
EndSplineSet
EndChar

StartChar: uni0438
Encoding: 1080 1080 199
Width: 600
Flags: W
HStem: 0 21G<0 100 400 500> 200 100<200 300> 480 20G<0 100 400 500>
VStem: 0 100<0 100 200 500> 200 100<200 300> 400 100<0 300 400 500>
CounterMasks: 1 1c
LayerCount: 2
Fore
SplineSet
300 300 m 25
 300 400 l 25
 400 400 l 25
 400 500 l 29
 500 500 l 25
 500 0 l 25
 400 0 l 25
 400 300 l 25
 300 300 l 25
200 300 m 1
 300 300 l 1
 300 200 l 1
 200 200 l 1
 200 300 l 1
0 500 m 25
 100 500 l 25
 100 200 l 25
 200 200 l 25
 200 100 l 25
 100 100 l 25
 100 0 l 25
 0 0 l 25
 0 500 l 25
EndSplineSet
EndChar

StartChar: uni0439
Encoding: 1081 1081 200
Width: 600
Flags: W
HStem: 0 21G<0 100 400 500> 200 100<200 300> 480 20G<0 100 400 500> 500 100<200 300> 600 100<100 200 300 400>
VStem: 0 100<0 100 200 500> 100 100<600 700> 200 100<200 300 500 600> 300 100<600 700> 400 100<0 300 400 500>
LayerCount: 2
Fore
SplineSet
300 700 m 1xc880
 400 700 l 1
 400 600 l 1xc880
 300 600 l 5xd1
 300 700 l 1xc880
200 600 m 1xd2
 300 600 l 1
 300 500 l 1
 200 500 l 1xd1
 200 600 l 1xd2
100 700 m 1xca
 200 700 l 1xca
 200 600 l 1xd2
 100 600 l 1
 100 700 l 1xca
300 300 m 25xe140
 300 400 l 25xe080
 400 400 l 25
 400 500 l 25
 500 500 l 25
 500 0 l 25
 400 0 l 25
 400 300 l 25
 300 300 l 25xe140
200 300 m 1xc1
 300 300 l 1
 300 200 l 1
 200 200 l 1
 200 300 l 1xc1
0 500 m 25xe5
 100 500 l 25
 100 200 l 25
 200 200 l 25
 200 100 l 25
 100 100 l 25
 100 0 l 25
 0 0 l 25
 0 500 l 25xe5
EndSplineSet
EndChar

StartChar: uni043A
Encoding: 1082 1082 201
Width: 500
Flags: W
HStem: 0 100<300 400> 100 100<200 300> 300 100<200 300> 400 100<300 400>
VStem: 0 100<0 200 300 500> 200 100<100 200 300 400> 300 100<0 100 400 500>
LayerCount: 2
Fore
SplineSet
100 300 m 1x2c
 200 300 l 1
 200 200 l 1
 100 200 l 1x6c
 100 0 l 1
 0 0 l 1
 0 500 l 1
 100 500 l 1x9c
 100 300 l 1x2c
400 500 m 1x1a
 400 400 l 1x1a
 300 400 l 1x2c
 300 500 l 1
 400 500 l 1x1a
300 400 m 1x2c
 300 300 l 1
 200 300 l 1
 200 400 l 1
 300 400 l 1x2c
300 100 m 1x8c
 200 100 l 1
 200 200 l 1
 300 200 l 1x4c
 300 100 l 1x8c
400 0 m 1x8a
 300 0 l 1x8a
 300 100 l 1x8c
 400 100 l 1
 400 0 l 1x8a
EndSplineSet
EndChar

StartChar: uni043B
Encoding: 1083 1083 202
Width: 600
Flags: W
HStem: 0 100<0 100> 100 100<100 200>
VStem: 0 100<0 100> 100 100<100 200> 200 100<200 400>
LayerCount: 2
Fore
SplineSet
0 100 m 1xa0
 100 100 l 1
 100 0 l 1
 0 0 l 1
 0 100 l 1xa0
100 200 m 1x50
 200 200 l 1
 200 100 l 1x50
 100 100 l 1xa0
 100 200 l 1x50
200 400 m 1x48
 300 400 l 1
 300 200 l 1x48
 200 200 l 1x50
 200 400 l 1x48
400 0 m 25x88
 500 0 l 25
 500 500 l 25
 300 500 l 25
 300 400 l 25
 400 400 l 25
 400 0 l 25x88
EndSplineSet
EndChar

StartChar: uni043C
Encoding: 1084 1084 203
Width: 600
Flags: W
HStem: 0 21G<400 500> 200 100<200 300> 300 100<300 400> 480 20G<400 500>
VStem: 200 100<200 300> 400 100<0 300 400 500>
LayerCount: 2
Fore
SplineSet
200 300 m 1xdc
 300 300 l 5
 300 200 l 1
 200 200 l 1
 200 300 l 1xdc
500 0 m 25
 400 0 l 25
 400 300 l 25xbc
 300 300 l 25xdc
 300 400 l 25
 400 400 l 25xbc
 400 500 l 25
 500 500 l 25
 500 0 l 25
0 0 m 25
 100 0 l 25
 100 300 l 25xbc
 200 300 l 25xdc
 200 400 l 25
 100 400 l 25
 100 500 l 25
 0 500 l 25
 0 0 l 25
EndSplineSet
EndChar

StartChar: uni043D
Encoding: 1085 1085 204
Width: 600
Flags: W
LayerCount: 2
Fore
SplineSet
0 0 m 29
 100 0 l 25
 100 200 l 25
 400 200 l 25
 400 0 l 25
 500 0 l 25
 500 500 l 25
 400 500 l 25
 400 300 l 25
 100 300 l 25
 100 500 l 25
 0 500 l 25
 0 0 l 29
EndSplineSet
EndChar

StartChar: uni043E
Encoding: 1086 1086 205
Width: 600
Flags: W
HStem: 0 100<100 400 0 100> 100 300<0 100 0 100 100 400 400 500> 400 100<0 400 100 400 100 400 100 400 100 500>
VStem: 0 100<100 400> 100 300<0 100 0 100 0 100 100 400 400 500> 400 100<0 400 100 400 100 500 100 400 100 400>
LayerCount: 2
Fore
SplineSet
100 400 m 1xa8
 100 500 l 1
 400 500 l 1
 400 400 l 1
 100 400 l 1xa8
100 100 m 1x54
 0 100 l 1
 0 400 l 1
 100 400 l 1
 100 100 l 1x54
400 400 m 1
 500 400 l 1
 500 100 l 1
 400 100 l 1
 400 400 l 1
400 100 m 1xa8
 400 0 l 1
 100 0 l 1
 100 100 l 1
 400 100 l 1xa8
EndSplineSet
EndChar

StartChar: uni043F
Encoding: 1087 1087 206
Width: 600
Flags: W
LayerCount: 2
Fore
SplineSet
0 0 m 29
 100 0 l 25
 100 400 l 25
 400 400 l 25
 400 0 l 25
 500 0 l 25
 500 500 l 25
 0 500 l 25
 0 0 l 29
EndSplineSet
EndChar

StartChar: uni0440
Encoding: 1088 1088 207
Width: 600
Flags: W
VStem: 400 100<200 400>
LayerCount: 2
Fore
SplineSet
400 400 m 1
 500 400 l 1
 500 200 l 1
 400 200 l 5
 400 400 l 1
0 -100 m 25
 100 -100 l 25
 100 100 l 25
 400 100 l 25
 400 200 l 25
 100 200 l 25
 100 400 l 25
 400 400 l 25
 400 500 l 25
 0 500 l 25
 0 -100 l 25
EndSplineSet
EndChar

StartChar: uni0441
Encoding: 1089 1089 208
Width: 600
Flags: W
HStem: 0 100<0 100 100 400> 100 100<100 500 400 500 400 500 400 500> 100 300<0 100 0 100 100 400 400 500> 300 100<400 500> 400 100<0 400 100 400 100 400 100 400 100 500>
VStem: 0 100<100 400> 100 300<0 100 0 100 100 200 300 400 0 100 400 500> 400 100<0 200 100 200 100 200 300 400>
LayerCount: 2
Fore
SplineSet
400 500 m 1x8a
 400 400 l 1
 100 400 l 1
 100 500 l 1
 400 500 l 1x8a
0 400 m 1x25
 100 400 l 1
 100 100 l 1
 0 100 l 1
 0 400 l 1x25
500 300 m 1x55
 400 300 l 1
 400 400 l 1
 500 400 l 1
 500 300 l 1x55
500 200 m 1
 500 100 l 1
 400 100 l 1
 400 200 l 1
 500 200 l 1
100 0 m 1x8a
 100 100 l 1
 400 100 l 1
 400 0 l 1
 100 0 l 1x8a
EndSplineSet
EndChar

StartChar: uni0442
Encoding: 1090 1090 209
Width: 600
Flags: W
LayerCount: 2
Fore
SplineSet
200 0 m 29
 300 0 l 25
 300 400 l 25
 500 400 l 25
 500 500 l 25
 0 500 l 25
 0 400 l 25
 200 400 l 25
 200 0 l 29
EndSplineSet
EndChar

StartChar: uni0443
Encoding: 1091 1091 210
Width: 600
Flags: W
HStem: -100 100<0 400 0 400> 100 100<100 400 0 100> 200 300<0 100 0 100 0 400>
VStem: 0 100<200 500> 400 100<-100 500 0 100 100 100 200 500 0 500>
LayerCount: 2
Fore
SplineSet
100 200 m 1xb8
 0 200 l 1
 0 500 l 1
 100 500 l 1
 100 200 l 1xb8
400 500 m 1
 500 500 l 1
 500 0 l 1
 400 0 l 1
 400 100 l 1
 100 100 l 1
 100 200 l 1
 400 200 l 1xd8
 400 500 l 1
400 0 m 1
 400 -100 l 1
 0 -100 l 1
 0 0 l 1
 400 0 l 1
EndSplineSet
EndChar

StartChar: uni0444
Encoding: 1092 1092 211
Width: 600
Flags: W
HStem: 100 300<0 100 400 500>
VStem: 0 100<100 400> 400 100<100 400>
LayerCount: 2
Fore
SplineSet
100 500 m 1
 100 400 l 25
 200 400 l 1
 200 100 l 1
 100 100 l 29
 100 0 l 1
 200 0 l 25
 200 -100 l 25
 300 -100 l 25
 300 0 l 25
 400 0 l 1
 400 100 l 25
 300 100 l 1
 300 400 l 1
 400 400 l 25
 400 500 l 1
 100 500 l 1
400 400 m 1
 500 400 l 1
 500 100 l 1
 400 100 l 1
 400 400 l 1
0 400 m 1
 100 400 l 1
 100 100 l 1
 0 100 l 1
 0 400 l 1
EndSplineSet
EndChar

StartChar: uni0445
Encoding: 1093 1093 212
Width: 600
Flags: W
HStem: 0 100<0 100 0 100 400 500> 100 100<0 200 100 200 100 200 100 200 300 400> 200 100<100 200 200 300 300 400> 300 100<100 200 300 400> 400 100<0 100 0 100 0 200 400 500>
VStem: 0 100<0 100 0 100 400 500> 100 100<0 200 100 200 100 200 300 400> 200 100<100 200 100 200 200 300 300 400> 300 100<100 200 300 400> 400 100<0 100 0 100 0 200 0 100 400 500>
LayerCount: 2
Fore
SplineSet
0 400 m 1x0c40
 0 500 l 1
 100 500 l 1
 100 400 l 1
 0 400 l 1x0c40
400 400 m 1
 400 500 l 1
 500 500 l 1
 500 400 l 1
 400 400 l 1
100 300 m 1x1280
 100 400 l 1
 200 400 l 1
 200 300 l 1
 100 300 l 1x1280
300 300 m 1
 300 400 l 1
 400 400 l 1
 400 300 l 1
 300 300 l 1
200 200 m 1x21
 200 300 l 1
 300 300 l 1
 300 200 l 1
 200 200 l 1x21
100 100 m 1x4280
 100 200 l 1
 200 200 l 1
 200 100 l 1
 100 100 l 1x4280
300 100 m 1
 300 200 l 1
 400 200 l 1
 400 100 l 1
 300 100 l 1
0 0 m 1x8440
 0 100 l 1
 100 100 l 1
 100 0 l 1
 0 0 l 1x8440
400 0 m 1
 400 100 l 1
 500 100 l 1
 500 0 l 1
 400 0 l 1
EndSplineSet
EndChar

StartChar: uni0446
Encoding: 1094 1094 213
Width: 600
Flags: W
LayerCount: 2
Fore
SplineSet
0 500 m 29
 0 0 l 25
 500 0 l 25
 500 -100 l 25
 600 -100 l 25
 600 100 l 25
 500 100 l 25
 500 500 l 25
 400 500 l 25
 400 100 l 25
 100 100 l 25
 100 500 l 25
 0 500 l 29
EndSplineSet
EndChar

StartChar: uni0447
Encoding: 1095 1095 214
Width: 600
Flags: W
HStem: 0 21G<400 500> 200 100<100 400> 480 20G<0 100 400 500>
VStem: 0 100<300 500> 400 100<0 200 300 500>
LayerCount: 2
Fore
SplineSet
100 300 m 1
 0 300 l 1
 0 500 l 1
 100 500 l 1
 100 300 l 1
400 500 m 1
 500 500 l 1
 500 0 l 1
 400 0 l 1
 400 200 l 1
 100 200 l 1
 100 300 l 5
 400 300 l 1
 400 500 l 1
EndSplineSet
EndChar

StartChar: uni0448
Encoding: 1096 1096 215
Width: 600
Flags: W
LayerCount: 2
Fore
SplineSet
0 500 m 29
 0 0 l 25
 500 0 l 25
 500 500 l 25
 400 500 l 25
 400 100 l 25
 300 100 l 25
 300 500 l 25
 200 500 l 25
 200 100 l 25
 100 100 l 25
 100 500 l 25
 0 500 l 29
EndSplineSet
EndChar

StartChar: uni0449
Encoding: 1097 1097 216
Width: 700
Flags: W
HStem: -100 21G<500 600>
VStem: 500 100<-100 0>
LayerCount: 2
Fore
SplineSet
600 -100 m 5
 500 -100 l 5
 500 100 l 5
 600 100 l 5
 600 -100 l 5
0 500 m 25
 0 0 l 25
 500 0 l 25
 500 500 l 25
 400 500 l 25
 400 100 l 25
 300 100 l 25
 300 500 l 25
 200 500 l 25
 200 100 l 25
 100 100 l 25
 100 500 l 25
 0 500 l 25
EndSplineSet
EndChar

StartChar: uni044A
Encoding: 1098 1098 217
Width: 600
Flags: W
VStem: 400 100<100 300>
LayerCount: 2
Fore
SplineSet
400 300 m 1
 500 300 l 1
 500 100 l 1
 400 100 l 5
 400 300 l 1
100 0 m 25
 400 0 l 25
 400 100 l 25
 200 100 l 25
 200 300 l 25
 400 300 l 25
 400 400 l 25
 200 400 l 25
 200 500 l 25
 0 500 l 25
 0 400 l 25
 100 400 l 25
 100 0 l 25
EndSplineSet
EndChar

StartChar: uni044B
Encoding: 1099 1099 218
Width: 700
Flags: W
HStem: 0 21G<500 600> 480 20G<500 600>
VStem: 300 100<100 300> 500 100<0 500>
LayerCount: 2
Fore
SplineSet
400 100 m 1
 300 100 l 5
 300 300 l 1
 400 300 l 1
 400 100 l 1
500 500 m 25
 600 500 l 25
 600 0 l 25
 500 0 l 25
 500 500 l 25
0 0 m 25
 300 1 l 25
 300 100 l 25
 100 100 l 25
 100 300 l 25
 300 300 l 25
 300 400 l 25
 100 400 l 25
 100 500 l 25
 0 500 l 25
 0 0 l 25
EndSplineSet
EndChar

StartChar: uni044C
Encoding: 1100 1100 219
Width: 600
Flags: W
VStem: 400 100<100 300>
LayerCount: 2
Fore
SplineSet
400 300 m 1
 500 300 l 1
 500 100 l 1
 400 100 l 5
 400 300 l 1
0 500 m 25
 0 0 l 25
 400 0 l 25
 400 100 l 25
 100 100 l 25
 100 300 l 25
 400 300 l 25
 400 400 l 25
 100 400 l 25
 100 500 l 25
 0 500 l 25
EndSplineSet
EndChar

StartChar: uni044D
Encoding: 1101 1101 220
Width: 600
Flags: W
HStem: 0 100<100 400> 100 100<0 100> 200 100<200 400> 300 100<0 100> 400 100<100 400>
VStem: 0 100<100 200 300 400> 100 300<0 100 400 500> 400 100<100 200 300 400>
LayerCount: 2
Fore
SplineSet
0 300 m 1x14
 0 400 l 1
 100 400 l 1
 100 300 l 1
 0 300 l 1x14
100 400 m 1
 100 500 l 1
 400 500 l 1
 400 400 l 1x0a
 100 400 l 1
400 200 m 1x29
 400 400 l 1x2a
 500 400 l 1
 500 200 l 1
 400 200 l 1x29
200 200 m 1
 200 300 l 1
 400 300 l 1
 400 200 l 1x21
 200 200 l 1
400 100 m 1x82
 400 200 l 1
 500 200 l 1xa1
 500 100 l 1x41
 400 100 l 1x82
0 200 m 1x44
 100 200 l 1x44
 100 100 l 1x84
 0 100 l 1
 0 200 l 1x44
100 100 m 1x84
 400 100 l 1
 400 0 l 1
 100 0 l 1x82
 100 100 l 1x84
EndSplineSet
EndChar

StartChar: uni044E
Encoding: 1102 1102 221
Width: 700
Flags: W
HStem: 0 100<300 500> 400 100<300 500>
VStem: 300 200<0 100 400 500> 500 100<100 400>
LayerCount: 2
Fore
SplineSet
500 400 m 1xe0
 600 400 l 1
 600 100 l 1xd0
 500 100 l 5
 500 400 l 1xe0
300 100 m 1xe0
 500 100 l 1
 500 0 l 1
 300 0 l 1
 300 100 l 1xe0
300 500 m 1
 500 500 l 1
 500 400 l 1
 300 400 l 1
 300 500 l 1
0 500 m 25
 0 0 l 25
 100 0 l 25
 100 200 l 25
 200 200 l 25
 200 100 l 25
 300 100 l 25
 300 400 l 25
 200 400 l 25
 200 300 l 25
 100 300 l 25
 100 500 l 25
 0 500 l 25
EndSplineSet
EndChar

StartChar: uni044F
Encoding: 1103 1103 222
Width: 600
Flags: W
HStem: 0 100<0 100 100 500> 200 100<100 400 100 500 100 400> 400 100<0 400 100 400 100 400 100 400 100 500>
VStem: 0 100<100 200 300 400> 100 300<0 400 100 400 100 400 100 400 300 400 300 400 400 500 300 500> 400 100<300 400>
CounterMasks: 1 e0
LayerCount: 2
Fore
SplineSet
0 -100 m 25xf0
 100 -100 l 25
 100 0 l 25
 400 0 l 25xe8
 400 -100 l 25
 500 -100 l 25
 500 100 l 25xe4
 400 100 l 25
 400 500 l 25xe8
 200 500 l 1
 200 400 l 29
 300 400 l 1
 300 100 l 25
 200 100 l 25
 200 400 l 25
 100 400 l 25
 100 100 l 25
 0 100 l 25
 0 -100 l 25xf0
EndSplineSet
EndChar

StartChar: uni0451
Encoding: 1105 1105 223
Width: 600
Flags: W
HStem: 0 100<100 500> 200 100<100 400> 400 100<100 400> 600 100<100 200 300 400>
VStem: 0 100<100 200 300 400> 100 100<600 700> 300 100<600 700> 400 100<300 400>
LayerCount: 2
Fore
SplineSet
300 700 m 1xf2
 400 700 l 1
 400 600 l 1
 300 600 l 1
 300 700 l 1xf2
100 700 m 1xf4
 200 700 l 1
 200 600 l 1
 100 600 l 1
 100 700 l 1xf4
100 400 m 1xf9
 100 500 l 1xf4
 400 500 l 1
 400 400 l 1
 100 400 l 1xf9
400 400 m 1xf9
 500 400 l 1
 500 200 l 1
 100 200 l 1
 100 100 l 1
 0 100 l 1
 0 400 l 1
 100 400 l 1
 100 300 l 1
 400 300 l 1
 400 400 l 1xf9
100 0 m 1xf5
 100 100 l 1xf8
 500 100 l 1
 500 0 l 1
 100 0 l 1xf5
EndSplineSet
EndChar

StartChar: uni0401
Encoding: 1025 1025 224
Width: 600
Flags: W
HStem: 0 100<100 500> 400 100<100 300> 600 200<100 200 300 400> 600 100<200 300 400 500> 700 21G<100 200 300 400>
VStem: 0 100<100 400 500 600> 100 100<700 800> 300 100<700 800>
LayerCount: 2
Fore
SplineSet
300 800 m 1xe1
 400 800 l 1xe1
 400 700 l 1
 300 700 l 1xd1
 300 800 l 1xe1
100 800 m 1xe3
 200 800 l 1xe3
 200 700 l 1xd3
 100 700 l 1xcb
 100 800 l 1xe3
100 600 m 1xe5
 100 500 l 1
 300 500 l 1
 300 400 l 1
 100 400 l 1
 100 100 l 1
 500 100 l 1
 500 0 l 1
 0 0 l 1
 0 700 l 1xcd
 500 700 l 1
 500 600 l 1xd5
 100 600 l 1xe5
EndSplineSet
EndChar

StartChar: eacute
Encoding: 233 233 225
Width: 600
Flags: W
HStem: 0 100<100 500> 200 100<100 400> 400 100<100 400> 600 100<300 500>
VStem: 0 100<100 200 300 400> 400 100<300 400>
LayerCount: 2
Fore
SplineSet
300 700 m 5
 500 700 l 5
 500 600 l 5
 300 600 l 5
 300 700 l 5
100 400 m 1
 100 500 l 1
 400 500 l 1
 400 400 l 1
 100 400 l 1
400 400 m 1
 500 400 l 1
 500 200 l 1
 100 200 l 1
 100 100 l 1
 0 100 l 1
 0 400 l 1
 100 400 l 1
 100 300 l 1
 400 300 l 1
 400 400 l 1
100 0 m 1
 100 100 l 1
 500 100 l 1
 500 0 l 1
 100 0 l 1
EndSplineSet
EndChar

StartChar: adieresis
Encoding: 228 228 226
Width: 600
Flags: W
HStem: 0 100<100 400> 100 100<0 100> 400 100<100 400> 600 100<100 200 300 400>
VStem: 0 100<100 200> 100 100<600 700> 300 100<600 700> 400 100<100 200 300 400>
LayerCount: 2
Fore
SplineSet
300 700 m 1x32
 400 700 l 1
 400 600 l 1
 300 600 l 1
 300 700 l 1x32
100 700 m 1x34
 200 700 l 1
 200 600 l 1
 100 600 l 1
 100 700 l 1x34
400 500 m 1x35
 400 400 l 1
 100 400 l 1
 100 500 l 1
 400 500 l 1x35
400 400 m 1
 500 400 l 1
 500 0 l 1
 100 0 l 1xb5
 100 100 l 1
 400 100 l 1xb9
 400 200 l 1
 100 200 l 1x79
 100 300 l 1
 400 300 l 1
 400 400 l 1
0 200 m 1x78
 100 200 l 1x78
 100 100 l 1xb8
 0 100 l 1
 0 200 l 1x78
EndSplineSet
EndChar

StartChar: copyright
Encoding: 169 169 227
Width: 700
Flags: W
HStem: 0 100<100 200 400 500> 100 300<0 100 500 600> 400 100<100 200 400 500>
VStem: 0 100<100 400> 300 100<100 200> 500 100<100 400>
LayerCount: 2
Fore
SplineSet
200 400 m 1xbc
 100 400 l 1x5c
 100 500 l 1
 500 500 l 1x3c
 500 400 l 1x5c
 400 400 l 1x3c
 400 300 l 1
 300 300 l 1
 300 100 l 1x5c
 200 100 l 1
 200 400 l 1xbc
400 200 m 1
 400 100 l 1
 500 100 l 1
 500 0 l 1
 100 0 l 1
 100 100 l 1x9c
 0 100 l 1
 0 400 l 1
 100 400 l 1x5c
 100 200 l 1
 100 100 l 1
 200 100 l 1x9c
 300 100 l 1
 300 200 l 1
 400 200 l 1
500 400 m 1x5c
 600 400 l 1
 600 100 l 1x5c
 500 100 l 1x9c
 500 400 l 1x5c
EndSplineSet
EndChar

StartChar: grave
Encoding: 96 96 228
Width: 300
Flags: W
HStem: 600 100<0 100>
VStem: 0 100<600 700> 100 100<400 600>
LayerCount: 2
Fore
SplineSet
100 600 m 5xc0
 200 600 l 5
 200 400 l 5
 100 400 l 5xa0
 100 600 l 5xc0
0 700 m 5xc0
 100 700 l 5
 100 600 l 5
 0 600 l 5
 0 700 l 5xc0
EndSplineSet
EndChar

StartChar: yen
Encoding: 165 165 229
Width: 600
Flags: W
HStem: 500 100<100 200 300 400> 600 100<0 100 400 500>
VStem: 0 100<600 700> 100 100<500 600> 300 100<500 600> 400 100<600 700>
LayerCount: 2
Fore
SplineSet
0 700 m 1x60
 100 700 l 1x60
 100 600 l 1xa0
 0 600 l 5
 0 700 l 1x60
500 700 m 1x44
 500 600 l 1x44
 400 600 l 1x88
 400 700 l 1
 500 700 l 1x44
400 600 m 1x88
 400 500 l 1
 300 500 l 1
 300 600 l 1
 400 600 l 1x88
100 600 m 1xa0
 200 600 l 1
 200 500 l 1
 100 500 l 1x90
 100 600 l 1xa0
200 0 m 25
 300 0 l 25
 300 100 l 25x98
 500 100 l 25
 500 200 l 25x84
 300 200 l 25
 300 300 l 25x88
 500 300 l 25
 500 400 l 25x84
 300 400 l 25
 300 500 l 25
 200 500 l 25
 200 400 l 25x98
 0 400 l 25
 0 300 l 25xa0
 200 300 l 25
 200 200 l 25x90
 0 200 l 25
 0 100 l 25xa0
 200 100 l 25
 200 0 l 25
EndSplineSet
EndChar

StartChar: brokenbar
Encoding: 166 166 230
Width: 300
Flags: W
HStem: 0 21G<100 200> 680 20G<100 200>
VStem: 100 100<0 300 400 700>
LayerCount: 2
Fore
SplineSet
100 700 m 1
 200 700 l 1
 200 400 l 1
 100 400 l 5
 100 700 l 1
100 300 m 1
 200 300 l 1
 200 0 l 1
 100 0 l 1
 100 300 l 1
  Spiro
    100 300 v
    200 300 v
    200 0 v
    100 0 v
    0 0 z
  EndSpiro
EndSplineSet
EndChar

StartChar: dieresis
Encoding: 168 168 231
Width: 600
Flags: W
HStem: 600 100<100 200 300 400>
VStem: 100 100<600 700> 300 100<600 700>
LayerCount: 2
Fore
SplineSet
200 700 m 5
 200 600 l 5
 100 600 l 5
 100 700 l 5
 200 700 l 5
400 700 m 5
 400 600 l 5
 300 600 l 5
 300 700 l 5
 400 700 l 5
EndSplineSet
EndChar

StartChar: degree
Encoding: 176 176 232
Width: 500
Flags: W
HStem: 400 100<200 300> 500 100<100 200 300 400> 600 100<200 300>
VStem: 100 100<500 600> 200 100<400 500 600 700> 300 100<500 600>
LayerCount: 2
Fore
SplineSet
100 600 m 5x50
 200 600 l 5x50
 200 500 l 5x90
 100 500 l 5
 100 600 l 5x50
200 500 m 1x90
 300 500 l 1
 300 400 l 1
 200 400 l 1x88
 200 500 l 1x90
300 600 m 1x48
 400 600 l 1
 400 500 l 1x44
 300 500 l 1x88
 300 600 l 1x48
200 700 m 1x28
 300 700 l 1x28
 300 600 l 1x48
 200 600 l 1x50
 200 700 l 1x28
EndSplineSet
EndChar

StartChar: uni00B2
Encoding: 178 178 233
Width: 400
Flags: W
VStem: 100 200
LayerCount: 2
Fore
SplineSet
300 300 m 25
 300 400 l 25
 200 400 l 25
 200 500 l 25
 100 500 l 25
 100 300 l 25
 300 300 l 25
100 700 m 25
 100 600 l 25
 200 600 l 25
 200 500 l 25
 300 500 l 25
 300 700 l 25
 100 700 l 25
EndSplineSet
EndChar

StartChar: uni00B3
Encoding: 179 179 234
Width: 400
Flags: W
HStem: 300 100<100 200> 600 100<100 200>
VStem: 100 200<300 400 600 700> 200 100<400 600>
LayerCount: 2
Fore
SplineSet
100 700 m 25xe0
 300 700 l 25
 300 300 l 29
 100 300 l 29
 100 400 l 29xe0
 200 400 l 29
 200 600 l 25xd0
 100 600 l 25
 100 700 l 25xe0
EndSplineSet
EndChar

StartChar: acute
Encoding: 180 180 235
Width: 300
Flags: W
HStem: 600 100<100 200>
VStem: 0 100<400 600> 100 100<600 700>
LayerCount: 2
Fore
SplineSet
100 700 m 5xa0
 200 700 l 5
 200 600 l 5xa0
 100 600 l 5xc0
 100 700 l 5xa0
0 600 m 5xc0
 100 600 l 5
 100 400 l 5
 0 400 l 5
 0 600 l 5xc0
EndSplineSet
EndChar

StartChar: mu
Encoding: 181 181 236
Width: 600
Flags: W
HStem: -100 21G<0 100> 0 100<100 400> 480 20G<0 100 400 500>
VStem: 0 100<-100 0 100 500> 400 100<100 500>
LayerCount: 2
Fore
SplineSet
0 -100 m 25
 0 500 l 25
 100 500 l 25
 100 100 l 25
 400 100 l 25
 400 500 l 25
 500 500 l 25
 500 100 l 1
 400 100 l 1
 400 0 l 1
 100 0 l 1
 100 -100 l 25
 0 -100 l 25
EndSplineSet
EndChar

StartChar: uni00B9
Encoding: 185 185 237
Width: 400
Flags: W
HStem: 680 20G<200 300>
VStem: 200 100<300 700>
LayerCount: 2
Fore
SplineSet
200 700 m 1
 300 700 l 1
 300 300 l 1
 200 300 l 5
 200 700 l 1
EndSplineSet
EndChar

StartChar: onehalf
Encoding: 189 189 238
Width: 800
Flags: W
HStem: 0 100<0 100 600 700> 100 100<100 200> 200 100<200 300> 300 100<300 400 500 600> 400 100<400 500> 500 100<500 600> 600 100<600 700>
VStem: 0 100<0 100> 100 100<100 200 300 700> 200 100<200 300> 300 100<300 400> 400 100<400 500> 500 100<100 200 500 600> 600 100<200 300 600 700>
LayerCount: 2
Fore
SplineSet
700 0 m 1xa004
 500 -0 l 1
 500 200 l 1
 600 200 l 25
 600 100 l 1xa008
 700 100 l 5
 700 0 l 1xa004
500 400 m 25x1010
 700 400 l 1
 700 200 l 25x2814
 600 200 l 25x2808
 600 300 l 25x1004
 500 300 l 1x1008
 500 400 l 25x1010
100 700 m 1x1280
 200 700 l 1
 200 300 l 1x2280
 100 300 l 1
 100 700 l 1x1280
600 600 m 1x0408
 600 700 l 1
 700 700 l 1
 700 600 l 1x0204
 600 600 l 1x0408
600 600 m 1025x0408
500 500 m 1x0810
 500 600 l 1
 600 600 l 1
 600 500 l 1x0408
 500 500 l 1x0810
400 400 m 1x1020
 400 500 l 1
 500 500 l 1x0810
 500 400 l 1x1010
 400 400 l 1x1020
300 300 m 1x2040
 300 400 l 1
 400 400 l 1
 400 300 l 1x1020
 300 300 l 1x2040
200 200 m 1x4080
 200 300 l 1x2080
 300 300 l 1
 300 200 l 1x2040
 200 200 l 1x4080
100 100 m 1x81
 100 200 l 1
 200 200 l 1
 200 100 l 1x4080
 100 100 l 1x81
0 0 m 1x81
 0 100 l 1
 100 100 l 1
 100 0 l 1
 0 0 l 1x81
EndSplineSet
EndChar

StartChar: onequarter
Encoding: 188 188 239
Width: 800
Flags: W
HStem: 0 100<0 100> 100 100<100 200> 200 100<200 300> 300 100<300 400> 400 100<400 500> 500 100<500 600> 600 100<600 700>
VStem: 0 100<0 100> 100 100<100 200 300 700> 200 100<200 300> 300 100<300 400> 400 100<400 500> 500 100<500 600> 600 100<600 700>
LayerCount: 2
Fore
SplineSet
500 400 m 25x0814
 500 200 l 1x2808
 600 200 l 25x2804
 600 0 l 25
 700 0 l 25
 700 300 l 25
 600 300 l 25x9004
 600 400 l 5
 500 400 l 25x0814
100 700 m 1x1280
 200 700 l 1
 200 300 l 1x2280
 100 300 l 1
 100 700 l 1x1280
600 600 m 1x0408
 600 700 l 1
 700 700 l 1
 700 600 l 1x0204
 600 600 l 1x0408
600 600 m 1025x0408
500 500 m 1x0810
 500 600 l 1
 600 600 l 1
 600 500 l 1x0408
 500 500 l 1x0810
400 400 m 1x1020
 400 500 l 1
 500 500 l 1
 500 400 l 1x0810
 400 400 l 1x1020
300 300 m 1x2040
 300 400 l 1
 400 400 l 1
 400 300 l 1x1020
 300 300 l 1x2040
200 200 m 1x4080
 200 300 l 1x2080
 300 300 l 1
 300 200 l 1x2040
 200 200 l 1x4080
100 100 m 1x81
 100 200 l 1
 200 200 l 1
 200 100 l 1x4080
 100 100 l 1x81
0 0 m 1x81
 0 100 l 1
 100 100 l 1
 100 0 l 1
 0 0 l 1x81
EndSplineSet
EndChar

StartChar: threequarters
Encoding: 190 190 240
Width: 800
Flags: W
HStem: 0 100<0 100> 100 100<100 200> 200 100<200 300> 300 100<0 100 300 400> 400 100<400 500> 500 100<500 600> 600 100<0 100 600 700>
VStem: 0 100<0 100> 100 100<100 200 400 600> 200 100<200 300> 300 100<300 400> 400 100<400 500> 500 100<500 600> 600 100<600 700>
LayerCount: 2
Fore
SplineSet
500 400 m 25x0814
 500 200 l 1x2808
 600 200 l 25x2804
 600 0 l 25
 700 0 l 25
 700 300 l 25
 600 300 l 25x9004
 600 400 l 1
 500 400 l 25x0814
0 700 m 1x13
 200 700 l 1
 200 300 l 1x2340
 0 300 l 1
 0 400 l 1x1140
 100 400 l 1
 100 600 l 1x1280
 0 600 l 5
 0 700 l 1x13
600 600 m 1x0408
 600 700 l 1
 700 700 l 1
 700 600 l 1x0204
 600 600 l 1x0408
600 600 m 1025x0408
500 500 m 1x0810
 500 600 l 1
 600 600 l 1
 600 500 l 1x0408
 500 500 l 1x0810
400 400 m 1x1020
 400 500 l 1
 500 500 l 1
 500 400 l 1x0810
 400 400 l 1x1020
300 300 m 1x2040
 300 400 l 1
 400 400 l 1
 400 300 l 1x1020
 300 300 l 1x2040
200 200 m 1x4080
 200 300 l 1
 300 300 l 1
 300 200 l 1x2040
 200 200 l 1x4080
100 100 m 1x81
 100 200 l 1
 200 200 l 1
 200 100 l 1x4080
 100 100 l 1x81
0 0 m 1x81
 0 100 l 1
 100 100 l 1
 100 0 l 1
 0 0 l 1x81
EndSplineSet
EndChar

StartChar: yacute
Encoding: 253 253 241
Width: 600
Flags: W
HStem: -100 100<0 400> 0 21G<400 500> 100 100<100 400> 480 20G<0 100 400 500> 600 100<300 500>
VStem: 0 100<200 500> 400 100<0 100 200 500>
LayerCount: 2
Fore
SplineSet
300 700 m 1x3e
 500 700 l 1
 500 600 l 1
 300 600 l 1
 300 700 l 1x3e
100 200 m 1
 0 200 l 1
 0 500 l 1
 100 500 l 1
 100 200 l 1
400 500 m 1
 500 500 l 1
 500 0 l 1x7e
 400 0 l 1xbe
 400 100 l 1
 100 100 l 1
 100 200 l 1
 400 200 l 1
 400 500 l 1
400 0 m 1xbe
 400 -100 l 1
 0 -100 l 1
 0 0 l 1
 400 0 l 1xbe
EndSplineSet
EndChar

StartChar: Ccaron
Encoding: 268 268 242
Width: 600
Flags: W
HStem: 0 100<100 400> 100 100<400 500> 400 100<400 500> 500 100<100 200 300 400> 680 20G<200 300> 700 100<100 200 300 400>
VStem: 0 100<100 500> 100 100<700 800> 300 100<700 800> 400 100<100 200 400 500>
LayerCount: 2
Fore
SplineSet
300 800 m 1x0480
 400 800 l 1
 400 700 l 1x0480
 300 700 l 1x0880
 300 800 l 1x0480
100 800 m 1x05
 200 800 l 1x05
 200 700 l 1x09
 100 700 l 1
 100 800 l 1x05
400 600 m 1x1840
 400 500 l 1x2040
 100 500 l 1x1240
 100 600 l 1
 200 600 l 1
 200 700 l 1
 300 700 l 1
 300 600 l 1x1980
 400 600 l 1x1840
0 500 m 1x52
 100 500 l 1
 100 100 l 1x92
 0 100 l 1
 0 500 l 1x52
500 400 m 1x2040
 400 400 l 1
 400 500 l 1
 500 500 l 1
 500 400 l 1x2040
500 200 m 1x4040
 500 100 l 1x4040
 400 100 l 1x8040
 400 200 l 1
 500 200 l 1x4040
100 0 m 1x8140
 100 100 l 1x82
 400 100 l 1
 400 0 l 1
 100 0 l 1x8140
EndSplineSet
EndChar

StartChar: ncaron
Encoding: 328 328 243
Width: 600
Flags: W
HStem: 0 21G<0 100 400 500> 400 100<100 400> 600 100<200 300> 700 100<100 200 300 400>
VStem: 0 100<0 400> 100 100<700 800> 200 100<600 700> 300 100<700 800> 400 100<0 400>
LayerCount: 2
Fore
SplineSet
300 800 m 5xd1
 400 800 l 5
 400 700 l 5xd1
 300 700 l 5xe2
 300 800 l 5xd1
100 800 m 5xd4
 200 800 l 5xd4
 200 700 l 5xe4
 100 700 l 5
 100 800 l 5xd4
200 700 m 5xe4
 300 700 l 5
 300 600 l 5
 200 600 l 5xe2
 200 700 l 5xe4
400 500 m 1xc880
 400 400 l 1
 100 400 l 1
 100 0 l 1
 0 0 l 1
 0 500 l 1
 400 500 l 1xc880
400 400 m 1
 500 400 l 1
 500 0 l 1
 400 0 l 1
 400 400 l 1
EndSplineSet
EndChar

StartChar: scaron
Encoding: 353 353 244
Width: 600
Flags: W
HStem: 0 100<0 400> 100 100<400 500> 200 100<100 400> 300 100<0 100> 400 100<100 500> 600 100<200 300> 700 100<100 200 300 400>
VStem: 0 100<300 400> 100 100<700 800> 200 100<600 700> 300 100<700 800> 400 100<100 200>
LayerCount: 2
Fore
SplineSet
300 800 m 5x0220
 400 800 l 5
 400 700 l 5x0220
 300 700 l 5x0440
 300 800 l 5x0220
100 800 m 5x0280
 200 800 l 5x0280
 200 700 l 5x0480
 100 700 l 5
 100 800 l 5x0280
200 700 m 5x0480
 300 700 l 5
 300 600 l 5
 200 600 l 5x0440
 200 700 l 5x0480
100 400 m 1x1110
 100 500 l 1
 500 500 l 1
 500 400 l 1x0890
 100 400 l 1x1110
0 400 m 1x11
 100 400 l 1x11
 100 300 l 1x21
 0 300 l 1
 0 400 l 1x11
100 200 m 1x2090
 100 300 l 1
 400 300 l 1x2110
 400 200 l 1x4110
 100 200 l 1x2090
500 100 m 1x4010
 400 100 l 1x8010
 400 200 l 1
 500 200 l 1
 500 100 l 1x4010
400 100 m 1
 400 0 l 1
 0 0 l 1
 0 100 l 1x8110
 400 100 l 1
100 400 m 1x1110
 100 500 l 1
 500 500 l 1
 500 400 l 1x0890
 100 400 l 1x1110
0 400 m 1x11
 100 400 l 1x11
 100 300 l 1x21
 0 300 l 1
 0 400 l 1x11
100 200 m 1x2090
 100 300 l 1
 400 300 l 1x2110
 400 200 l 1x4110
 100 200 l 1x2090
500 100 m 1x4010
 400 100 l 1x8010
 400 200 l 1
 500 200 l 1
 500 100 l 1x4010
400 100 m 1
 400 0 l 1
 0 0 l 1
 0 100 l 1x8110
 400 100 l 1
EndSplineSet
EndChar

StartChar: tcaron
Encoding: 357 357 245
Width: 500
Flags: W
HStem: 0 100<200 300> 400 100<0 100 200 300> 680 20G<100 200>
VStem: 100 100<100 400 500 700> 200 100<0 100> 300 100<600 800>
LayerCount: 2
Fore
SplineSet
300 800 m 5xe4
 400 800 l 5
 400 600 l 5
 300 600 l 5
 300 800 l 5xe4
200 100 m 1xf4
 100 100 l 1
 100 400 l 1
 0 400 l 1
 0 500 l 1
 100 500 l 1
 100 700 l 1
 200 700 l 1
 200 500 l 1
 300 500 l 1
 300 400 l 1
 200 400 l 1
 200 100 l 1xf4
300 0 m 1xe8
 200 0 l 1xe8
 200 100 l 1xf0
 300 100 l 1
 300 0 l 1xe8
EndSplineSet
EndChar

StartChar: uni03F6
Encoding: 1014 1014 246
Width: 600
Flags: W
HStem: 0 100<100 400> 100 100<0 100> 200 100<200 400> 300 100<0 100> 400 100<100 400>
VStem: 0 100<100 200 300 400> 100 300<0 100 400 500> 400 100<100 200 300 400>
LayerCount: 2
Fore
SplineSet
0 300 m 1x14
 0 400 l 1
 100 400 l 1
 100 300 l 1
 0 300 l 1x14
100 400 m 1
 100 500 l 1
 400 500 l 1
 400 400 l 1x0a
 100 400 l 1
400 200 m 1x29
 400 400 l 1x2a
 500 400 l 1
 500 200 l 1
 400 200 l 1x29
200 200 m 1
 200 300 l 1
 400 300 l 1
 400 200 l 1x21
 200 200 l 1
400 100 m 1x82
 400 200 l 1
 500 200 l 1xa1
 500 100 l 1x41
 400 100 l 1x82
0 200 m 1x44
 100 200 l 1x44
 100 100 l 1x84
 0 100 l 1
 0 200 l 1x44
100 100 m 1x84
 400 100 l 1
 400 0 l 1
 100 0 l 1x82
 100 100 l 1x84
EndSplineSet
EndChar

StartChar: uni03F5
Encoding: 1013 1013 247
Width: 600
Flags: W
HStem: 0 100<100 400> 100 100<400 500> 200 100<100 300> 300 100<0 100 400 500> 400 100<100 400>
VStem: 0 100<100 400> 100 300<0 100 400 500> 400 100<100 200 300 400>
LayerCount: 2
Fore
SplineSet
500 200 m 1x41
 500 100 l 1x41
 400 100 l 1x82
 400 200 l 1
 500 200 l 1x41
400 100 m 1x82
 400 0 l 1
 100 0 l 1x82
 100 100 l 1x84
 400 100 l 1x82
100 300 m 1x24
 100 100 l 1xa4
 0 100 l 1
 0 300 l 1x54
 100 300 l 1x24
300 300 m 1
 300 200 l 1
 100 200 l 1
 100 300 l 1
 300 300 l 1
100 400 m 1x14
 100 300 l 1x24
 0 300 l 1
 0 400 l 1
 100 400 l 1x14
500 300 m 1x11
 400 300 l 1x11
 400 400 l 1x12
 500 400 l 1
 500 300 l 1x11
400 400 m 1x12
 100 400 l 1x14
 100 500 l 1
 400 500 l 1x0a
 400 400 l 1x12
EndSplineSet
EndChar

StartChar: Euro
Encoding: 8364 8364 248
Width: 800
Flags: W
HStem: 0 100<200 600> 100 100<600 700> 200 100<0 100 200 400> 400 100<0 100 200 400> 500 100<600 700> 600 100<200 600>
VStem: 100 100<100 200 300 400 500 600> 600 100<100 200 500 600>
LayerCount: 2
Fore
SplineSet
700 200 m 1x43
 700 100 l 1x43
 600 100 l 1x83
 600 200 l 1
 700 200 l 1x43
700 500 m 1x0b
 600 500 l 1
 600 600 l 1
 700 600 l 1
 700 500 l 1x0b
600 100 m 1x83
 600 0 l 1
 200 0 l 1
 200 100 l 1
 600 100 l 1x83
600 700 m 1x07
 600 600 l 1x0b
 200 600 l 1
 200 700 l 1
 600 700 l 1x07
100 600 m 1x37
 200 600 l 1
 200 500 l 1
 400 500 l 1
 400 400 l 1
 200 400 l 1
 200 300 l 1
 400 300 l 1
 400 200 l 1
 200 200 l 1
 200 100 l 1xb7
 100 100 l 1x43
 100 200 l 1
 0 200 l 1
 0 300 l 1
 100 300 l 1
 100 400 l 1
 0 400 l 1
 0 500 l 1
 100 500 l 5
 100 600 l 1x37
EndSplineSet
EndChar

StartChar: Yacute
Encoding: 221 221 249
Width: 600
Flags: W
HStem: 0 21G<200 300> 400 100<100 200 300 400> 500 100<0 100 400 500> 600 100<200 300> 700 100<300 400>
VStem: 0 100<500 600> 100 100<400 500> 200 100<0 400 600 700> 300 100<400 500 700 800> 400 100<500 600>
LayerCount: 2
Fore
SplineSet
300 800 m 1x8880
 400 800 l 1
 400 700 l 1x8880
 300 700 l 1x91
 300 800 l 1x8880
200 700 m 1x91
 300 700 l 1
 300 600 l 1
 200 600 l 1
 200 700 l 1x91
0 600 m 1xa4
 100 600 l 1xa4
 100 500 l 1xc4
 0 500 l 1
 0 600 l 1xa4
400 600 m 1xa040
 500 600 l 1
 500 500 l 1xa040
 400 500 l 1xc080
 400 600 l 1xa040
100 500 m 1xc4
 200 500 l 1
 200 400 l 1
 100 400 l 1xc2
 100 500 l 1xc4
300 400 m 1xc1
 300 500 l 1
 400 500 l 1
 400 400 l 1xc080
 300 400 l 1xc1
200 400 m 1xc2
 300 400 l 1
 300 0 l 1
 200 0 l 1xc1
 200 400 l 1xc2
EndSplineSet
EndChar

StartChar: Dcaron
Encoding: 270 270 250
Width: 600
Flags: W
HStem: 0 100<100 400> 480 20G<400 500> 500 100<100 200 300 400> 680 20G<200 300> 700 100<100 200 300 400>
VStem: 0 100<100 500> 100 100<700 800> 200 100<600 700> 300 100<700 800> 400 100<100 500>
LayerCount: 2
Fore
SplineSet
300 800 m 1x8880
 400 800 l 1
 400 700 l 1x8880
 300 700 l 1x91
 300 800 l 1x8880
100 800 m 1x8a
 200 800 l 1x8a
 200 700 l 1x92
 100 700 l 1
 100 800 l 1x8a
200 700 m 1xb2
 300 700 l 1
 300 600 l 1
 200 600 l 1xb1
 200 700 l 1xb2
400 100 m 1xa440
 400 0 l 1
 0 0 l 1
 0 600 l 1
 400 600 l 1xa440
 400 500 l 1xc440
 100 500 l 1
 100 100 l 1
 400 100 l 1xa440
400 500 m 1xc040
 500 500 l 1
 500 100 l 1
 400 100 l 1
 400 500 l 1xc040
EndSplineSet
EndChar

StartChar: dcaron
Encoding: 271 271 251
Width: 800
Flags: W
HStem: 0 100<100 400> 300 100<300 400> 400 100<100 300> 500 21G<600 700> 680 20G<400 500 600 700>
VStem: 0 100<100 400> 400 100<100 300 400 700> 600 100<500 700>
LayerCount: 2
Fore
SplineSet
600 700 m 5x9f
 700 700 l 5
 700 500 l 5
 600 500 l 5
 600 700 l 5x9f
400 700 m 1
 500 700 l 1
 500 0 l 1
 100 0 l 1
 100 100 l 1
 400 100 l 1
 400 300 l 1
 300 300 l 1
 300 400 l 1
 400 400 l 1xcf
 400 700 l 1
300 400 m 1
 100 400 l 1
 100 500 l 1
 300 500 l 1xaf
 300 400 l 1
100 100 m 1
 0 100 l 1
 0 400 l 1
 100 400 l 1
 100 100 l 1
EndSplineSet
EndChar

StartChar: ecaron
Encoding: 283 283 252
Width: 600
Flags: W
HStem: 0 100<100 500> 200 100<100 400> 400 100<100 400> 600 100<200 300> 700 100<100 200 300 400>
VStem: 0 100<100 200 300 400> 100 100<700 800> 200 100<600 700> 300 100<700 800> 400 100<300 400>
LayerCount: 2
Fore
SplineSet
300 800 m 5xe880
 400 800 l 5
 400 700 l 5xe880
 300 700 l 5xf1
 300 800 l 5xe880
100 800 m 5xea
 200 800 l 5xea
 200 700 l 5xf2
 100 700 l 5
 100 800 l 5xea
200 700 m 5xf2
 300 700 l 5
 300 600 l 5
 200 600 l 5xf1
 200 700 l 5xf2
100 400 m 1xe440
 100 500 l 1xe2
 400 500 l 1
 400 400 l 1
 100 400 l 1xe440
400 400 m 1xe440
 500 400 l 1
 500 200 l 1
 100 200 l 1
 100 100 l 1
 0 100 l 1
 0 400 l 1
 100 400 l 1
 100 300 l 1
 400 300 l 1
 400 400 l 1xe440
100 0 m 1xe240
 100 100 l 1xe4
 500 100 l 1
 500 0 l 1
 100 0 l 1xe240
EndSplineSet
EndChar

StartChar: Ecaron
Encoding: 282 282 253
Width: 600
Flags: W
HStem: 0 100<100 500> 300 100<100 300> 500 100<100 200 300 500> 680 20G<200 300> 700 100<100 200 300 400>
VStem: 0 100<100 300 400 500> 100 100<700 800> 200 100<600 700> 300 100<700 800>
LayerCount: 2
Fore
SplineSet
300 800 m 5xe880
 400 800 l 5
 400 700 l 5xe880
 300 700 l 5xf1
 300 800 l 5xe880
100 800 m 5xea
 200 800 l 5xea
 200 700 l 5xf2
 100 700 l 5
 100 800 l 5xea
200 700 m 5xf2
 300 700 l 5
 300 600 l 5
 200 600 l 5xf1
 200 700 l 5xf2
100 500 m 1xe480
 100 400 l 1
 300 400 l 1
 300 300 l 1
 100 300 l 1
 100 100 l 1
 500 100 l 1
 500 0 l 1
 0 0 l 1
 0 600 l 1
 500 600 l 1
 500 500 l 1
 100 500 l 1xe480
EndSplineSet
EndChar

StartChar: egrave
Encoding: 232 232 254
Width: 600
Flags: W
HStem: 0 100<100 500> 200 100<100 400> 400 100<100 400> 600 100<0 200>
VStem: 0 100<100 200 300 400> 400 100<300 400>
LayerCount: 2
Fore
SplineSet
0 700 m 5
 200 700 l 5
 200 600 l 5
 0 600 l 5
 0 700 l 5
100 400 m 1
 100 500 l 1
 400 500 l 1
 400 400 l 1
 100 400 l 1
400 400 m 1
 500 400 l 1
 500 200 l 1
 100 200 l 1
 100 100 l 1
 0 100 l 1
 0 400 l 1
 100 400 l 1
 100 300 l 1
 400 300 l 1
 400 400 l 1
100 0 m 1
 100 100 l 1
 500 100 l 1
 500 0 l 1
 100 0 l 1
EndSplineSet
EndChar

StartChar: igrave
Encoding: 236 236 255
Width: 400
Flags: W
HStem: 0 21G<100 200> 480 20G<100 200> 600 100<0 200>
VStem: 100 100<0 500>
LayerCount: 2
Fore
SplineSet
200 700 m 1
 200 600 l 1
 0 600 l 1
 0 700 l 1
 200 700 l 1
100 500 m 5
 200 500 l 5
 200 0 l 5
 100 0 l 5
 100 500 l 5
EndSplineSet
EndChar

StartChar: thorn
Encoding: 254 254 256
Width: 600
Flags: W
LayerCount: 2
Fore
SplineSet
100 600 m 1
 0 600 l 1
 0 -100 l 1
 100 -100 l 1
 100 600 l 1
100 500 m 5
 100 400 l 5
 400 400 l 1
 400 500 l 1
 100 500 l 5
500 400 m 1
 400 400 l 1
 400 100 l 1
 500 100 l 1
 500 400 l 1
400 0 m 1
 400 100 l 1
 100 100 l 1
 100 0 l 1
 400 0 l 1
EndSplineSet
EndChar

StartChar: Dcroat
Encoding: 272 272 257
Width: 700
Flags: W
HStem: 0 100<200 500> 300 100<0 100 200 400> 600 100<200 500>
VStem: 100 100<100 300 400 600> 500 100<100 600>
CounterMasks: 1 e0
LayerCount: 2
Fore
SplineSet
500 100 m 1
 500 0 l 1
 100 0 l 1
 100 300 l 1
 0 300 l 1
 0 400 l 1
 100 400 l 5
 100 700 l 1
 500 700 l 1
 500 600 l 1
 200 600 l 1
 200 400 l 1
 400 400 l 1
 400 300 l 1
 200 300 l 1
 200 100 l 1
 500 100 l 1
500 600 m 1
 600 600 l 1
 600 100 l 1
 500 100 l 1
 500 600 l 1
EndSplineSet
EndChar

StartChar: dcroat
Encoding: 273 273 258
Width: 600
Flags: W
HStem: 0 100<100 400> 300 100<300 400> 400 100<100 300> 500 100<300 400 500 600> 680 20G<400 500>
VStem: 0 100<100 400> 400 100<100 300 400 500 600 700>
LayerCount: 2
Fore
SplineSet
400 700 m 1x9e
 500 700 l 1
 500 600 l 1
 600 600 l 1
 600 500 l 1
 500 500 l 5
 500 0 l 1
 100 0 l 1
 100 100 l 1
 400 100 l 1
 400 300 l 1
 300 300 l 1
 300 400 l 1
 400 400 l 1
 400 500 l 1xde
 300 500 l 1xae
 300 600 l 1
 400 600 l 1
 400 700 l 1x9e
300 400 m 1
 100 400 l 1
 100 500 l 1
 300 500 l 1xae
 300 400 l 1
100 100 m 1
 0 100 l 1
 0 400 l 1
 100 400 l 1
 100 100 l 1
EndSplineSet
EndChar

StartChar: Aacute
Encoding: 193 193 259
Width: 600
Flags: W
HStem: 0 21G<0 100 400 500> 300 100<100 400> 480 20G<0 100 400 500> 500 100<100 400> 700 100<300 500>
VStem: 0 100<0 300 400 500> 400 100<0 300 400 500>
LayerCount: 2
Fore
SplineSet
300 800 m 5xce
 500 800 l 5
 500 700 l 5
 300 700 l 5
 300 800 l 5xce
100 500 m 1xee
 100 600 l 1
 400 600 l 1xde
 400 500 l 1
 100 500 l 1xee
400 500 m 1xee
 500 500 l 1
 500 0 l 1
 400 0 l 1
 400 300 l 1
 100 300 l 1
 100 0 l 1
 0 0 l 1
 0 500 l 1
 100 500 l 1
 100 400 l 1
 400 400 l 1
 400 500 l 1xee
EndSplineSet
EndChar

StartChar: Eacute
Encoding: 201 201 260
Width: 600
Flags: W
HStem: 0 100<100 500> 300 100<100 300> 500 100<100 500> 700 100<300 500>
VStem: 0 100<100 300 400 500>
LayerCount: 2
Fore
SplineSet
300 800 m 5
 500 800 l 5
 500 700 l 5
 300 700 l 5
 300 800 l 5
100 500 m 1
 100 400 l 1
 300 400 l 1
 300 300 l 1
 100 300 l 1
 100 100 l 1
 500 100 l 1
 500 0 l 1
 0 0 l 1
 0 600 l 1
 500 600 l 1
 500 500 l 1
 100 500 l 1
EndSplineSet
EndChar

StartChar: Iacute
Encoding: 205 205 261
Width: 500
Flags: W
HStem: 0 100<0 100 200 300> 500 100<0 100 200 300> 700 100<200 400>
VStem: 0 300<0 100 500 600>
LayerCount: 2
Fore
SplineSet
200 800 m 5
 400 800 l 5
 400 700 l 5
 200 700 l 5
 200 800 l 5
200 100 m 1
 300 100 l 1
 300 0 l 1
 0 0 l 1
 0 100 l 1
 100 100 l 1
 100 500 l 1
 0 500 l 1
 0 600 l 1
 300 600 l 1
 300 500 l 1
 200 500 l 1
 200 100 l 1
EndSplineSet
EndChar

StartChar: Uacute
Encoding: 218 218 262
Width: 600
Flags: W
HStem: 0 100<100 400> 700 100<300 500>
VStem: 0 100<100 600> 400 100<100 600>
LayerCount: 2
Fore
SplineSet
300 800 m 5
 500 800 l 5
 500 700 l 5
 300 700 l 5
 300 800 l 5
100 100 m 1
 0 100 l 1
 0 600 l 1
 100 600 l 1
 100 100 l 1
400 600 m 1
 500 600 l 1
 500 100 l 1
 400 100 l 1
 400 600 l 1
400 100 m 1
 400 0 l 1
 100 0 l 1
 100 100 l 1
 400 100 l 1
EndSplineSet
EndChar

StartChar: Oacute
Encoding: 211 211 263
Width: 600
Flags: W
HStem: 0 100<100 400> 480 20G<0 100 400 500> 500 100<100 400> 700 100<300 500>
VStem: 0 100<100 500> 100 300<0 100 500 600> 400 100<100 500>
LayerCount: 2
Fore
SplineSet
300 800 m 5x92
 500 800 l 5
 500 700 l 5
 300 700 l 5
 300 800 l 5x92
100 500 m 1xd8
 100 600 l 1
 400 600 l 1xb4
 400 500 l 1xd4
 100 500 l 1xd8
100 100 m 1xd8
 0 100 l 1
 0 500 l 1
 100 500 l 1
 100 100 l 1xd8
400 500 m 1xd4
 500 500 l 1
 500 100 l 1xd2
 400 100 l 1
 400 500 l 1xd4
400 100 m 1x94
 400 0 l 1
 100 0 l 1x94
 100 100 l 1x98
 400 100 l 1x94
EndSplineSet
EndChar

StartChar: Odieresis
Encoding: 214 214 264
Width: 600
Flags: W
HStem: 0 100<100 400> 480 20G<0 100 400 500> 500 100<100 400> 700 100<100 200 300 400>
VStem: 0 100<100 500> 100 100<700 800> 300 100<700 800> 400 100<100 500>
LayerCount: 2
Fore
SplineSet
200 800 m 5x94
 200 700 l 5
 100 700 l 5
 100 800 l 5
 200 800 l 5x94
400 800 m 5x92
 400 700 l 5
 300 700 l 5
 300 800 l 5
 400 800 l 5x92
100 500 m 1xd9
 100 600 l 1
 400 600 l 1xb5
 400 500 l 1
 100 500 l 1xd9
100 100 m 1xd8
 0 100 l 1
 0 500 l 1
 100 500 l 1
 100 100 l 1xd8
400 500 m 1xd1
 500 500 l 1
 500 100 l 1
 400 100 l 1
 400 500 l 1xd1
400 100 m 1
 400 0 l 1
 100 0 l 1x95
 100 100 l 1x98
 400 100 l 1
EndSplineSet
EndChar

StartChar: multiply
Encoding: 215 215 265
Width: 800
Flags: W
HStem: 100 100<100 200 500 600> 200 100<200 300 400 500> 300 100<300 400> 400 100<200 300 400 500> 500 100<100 200 500 600>
VStem: 100 100<100 200 500 600> 200 100<200 300 400 500> 300 100<300 400> 400 100<200 300 400 500> 500 100<100 200 500 600>
LayerCount: 2
Fore
SplineSet
100 600 m 5x0c
 200 600 l 5x0c
 200 500 l 5x14
 100 500 l 5
 100 600 l 5x0c
200 500 m 1x14
 300 500 l 1x12
 300 400 l 1x22
 200 400 l 1x12
 200 500 l 1x14
400 300 m 1x41
 500 300 l 1x4080
 500 200 l 1x8080
 400 200 l 1x4080
 400 300 l 1x41
500 200 m 1x8080
 600 200 l 1
 600 100 l 1
 500 100 l 1x8040
 500 200 l 1x8080
500 600 m 1x0840
 600 600 l 1
 600 500 l 1x0840
 500 500 l 1x1080
 500 600 l 1x0840
400 500 m 1x1080
 500 500 l 1
 500 400 l 1x1080
 400 400 l 1x21
 400 500 l 1x1080
300 400 m 1x22
 400 400 l 1x21
 400 300 l 1x41
 300 300 l 1x42
 300 400 l 1x22
200 300 m 1x42
 300 300 l 1
 300 200 l 1x42
 200 200 l 1x84
 200 300 l 1x42
100 200 m 1x84
 200 200 l 1
 200 100 l 1
 100 100 l 1
 100 200 l 1x84
EndSplineSet
EndChar

StartChar: Thorn
Encoding: 222 222 266
Width: 600
Flags: W
HStem: -100 21G<0 100> 0 100<100 400> 480 20G<400 500> 500 100<100 400> 680 20G<0 100>
VStem: 0 100<-100 0 100 500 600 700> 400 100<100 500>
LayerCount: 2
Fore
SplineSet
400 500 m 1xee
 500 500 l 1
 500 100 l 1
 400 100 l 5
 400 500 l 1xee
400 0 m 1
 100 0 l 1
 100 -100 l 1
 0 -100 l 1
 0 700 l 1
 100 700 l 1
 100 600 l 1
 400 600 l 1xde
 400 500 l 1xee
 100 500 l 1xde
 100 100 l 1
 400 100 l 1
 400 0 l 1
EndSplineSet
EndChar

StartChar: Ncaron
Encoding: 327 327 267
Width: 600
Flags: W
HStem: 0 21G<0 100 400 500> 300 100<200 300> 600 100<200 300> 700 100<100 200 300 400>
VStem: 0 100<0 400 500 600> 100 100<700 800> 200 100<300 400 600 700> 300 100<700 800> 400 100<0 200 300 600>
LayerCount: 2
Fore
SplineSet
300 800 m 5xd1
 400 800 l 5
 400 700 l 5xd1
 300 700 l 5xe2
 300 800 l 5xd1
100 800 m 5xd4
 200 800 l 5xd4
 200 700 l 5xe4
 100 700 l 5
 100 800 l 5xd4
200 700 m 5xe4
 300 700 l 5
 300 600 l 5
 200 600 l 5xe2
 200 700 l 5xe4
100 500 m 1xea
 200 500 l 1
 200 400 l 1
 100 400 l 1
 100 0 l 1
 0 0 l 1
 0 600 l 1
 100 600 l 1
 100 500 l 1xea
400 600 m 1xe280
 500 600 l 1
 500 0 l 1
 400 0 l 1
 400 200 l 1xe280
 300 200 l 1xe1
 300 300 l 1
 400 300 l 1
 400 600 l 1xe280
200 400 m 1
 300 400 l 1
 300 300 l 1
 200 300 l 1
 200 400 l 1
EndSplineSet
EndChar

StartChar: Racute
Encoding: 340 340 268
Width: 600
Flags: W
HStem: 0 21G<0 100 400 500> 400 100<400 500> 500 100<100 400> 700 100<300 500>
VStem: 0 100<0 300 400 500> 400 100<0 300 400 500>
LayerCount: 2
Fore
SplineSet
300 800 m 5x9c
 500 800 l 5
 500 700 l 5
 300 700 l 5
 300 800 l 5x9c
400 400 m 1xdc
 400 300 l 1
 100 300 l 1
 100 0 l 1
 0 0 l 1
 0 600 l 1
 400 600 l 1xbc
 400 500 l 1xdc
 100 500 l 1xbc
 100 400 l 1
 400 400 l 1xdc
500 400 m 1xdc
 400 400 l 1
 400 500 l 1
 500 500 l 1
 500 400 l 1xdc
400 300 m 1
 500 300 l 1
 500 0 l 1
 400 0 l 1
 400 300 l 1
EndSplineSet
EndChar

StartChar: racute
Encoding: 341 341 269
Width: 600
Flags: W
HStem: 0 21G<0 100> 300 100<100 200 400 500> 400 100<200 400> 600 100<300 500>
VStem: 0 100<0 300 400 500> 400 100<300 400>
LayerCount: 2
Fore
SplineSet
500 700 m 5x9c
 500 600 l 5
 300 600 l 5
 300 700 l 5
 500 700 l 5x9c
100 500 m 1xbc
 100 400 l 1
 200 400 l 1
 200 300 l 1
 100 300 l 1xdc
 100 0 l 1
 0 0 l 1
 0 500 l 1
 100 500 l 1xbc
400 500 m 1xbc
 400 400 l 1
 200 400 l 1xdc
 200 500 l 1
 400 500 l 1xbc
400 400 m 1
 500 400 l 1
 500 300 l 1
 400 300 l 1
 400 400 l 1
EndSplineSet
EndChar

StartChar: Rcaron
Encoding: 344 344 270
Width: 600
Flags: W
HStem: 0 21G<0 100 400 500> 400 100<400 500> 500 100<100 200 300 400> 680 20G<200 300> 700 100<100 200 300 400>
VStem: 0 100<0 300 400 500> 100 100<700 800> 200 100<600 700> 300 100<700 800> 400 100<0 300 400 500>
LayerCount: 2
Fore
SplineSet
300 800 m 5x8880
 400 800 l 5
 400 700 l 5x8880
 300 700 l 5x91
 300 800 l 5x8880
100 800 m 5x8a
 200 800 l 5x8a
 200 700 l 5x92
 100 700 l 5
 100 800 l 5x8a
200 700 m 5xb2
 300 700 l 5
 300 600 l 5
 200 600 l 5xb1
 200 700 l 5xb2
400 400 m 1xc440
 400 300 l 1
 100 300 l 1
 100 0 l 1
 0 0 l 1
 0 600 l 1
 400 600 l 1xa440
 400 500 l 1xc440
 100 500 l 1xa440
 100 400 l 1
 400 400 l 1xc440
500 400 m 1xc040
 400 400 l 1
 400 500 l 1
 500 500 l 1
 500 400 l 1xc040
400 300 m 1
 500 300 l 1
 500 0 l 1
 400 0 l 1
 400 300 l 1
EndSplineSet
EndChar

StartChar: rcaron
Encoding: 345 345 271
Width: 600
Flags: W
HStem: 0 21G<0 100> 300 100<100 200 400 500> 400 100<200 400> 600 100<200 300> 700 100<100 200 300 400>
VStem: 0 100<0 300 400 500> 100 100<700 800> 200 100<600 700> 300 100<700 800> 400 100<300 400>
LayerCount: 2
Fore
SplineSet
300 800 m 5x8880
 400 800 l 5
 400 700 l 5x8880
 300 700 l 5x91
 300 800 l 5x8880
100 800 m 5x8a
 200 800 l 5x8a
 200 700 l 5x92
 100 700 l 5
 100 800 l 5x8a
200 700 m 5x92
 300 700 l 5
 300 600 l 5
 200 600 l 5x91
 200 700 l 5x92
100 500 m 1xa5
 100 400 l 1
 200 400 l 1
 200 300 l 1
 100 300 l 1xc5
 100 0 l 1
 0 0 l 1
 0 500 l 1
 100 500 l 1xa5
400 500 m 1xa140
 400 400 l 1
 200 400 l 1xc140
 200 500 l 1
 400 500 l 1xa140
400 400 m 1
 500 400 l 1
 500 300 l 1
 400 300 l 1
 400 400 l 1
EndSplineSet
EndChar

StartChar: Scaron
Encoding: 352 352 272
Width: 600
Flags: W
HStem: 0 100<100 400> 100 100<0 100> 300 100<100 400> 400 100<0 100> 500 100<100 200 300 500> 680 20G<200 300> 700 100<100 200 300 400>
VStem: 0 100<100 200 400 500> 100 100<700 800> 200 100<600 700> 300 100<700 800> 400 100<100 300>
LayerCount: 2
Fore
SplineSet
300 800 m 5x0220
 400 800 l 5
 400 700 l 5x0220
 300 700 l 5x0440
 300 800 l 5x0220
100 800 m 5x0280
 200 800 l 5x0280
 200 700 l 5x0480
 100 700 l 5
 100 800 l 5x0280
200 700 m 5x0c80
 300 700 l 5
 300 600 l 5
 200 600 l 5x0c40
 200 700 l 5x0c80
100 500 m 1x1110
 100 600 l 1
 500 600 l 1
 500 500 l 1x0890
 100 500 l 1x1110
0 500 m 1x11
 100 500 l 1x11
 100 400 l 1x21
 0 400 l 1
 0 500 l 1x11
100 300 m 1x2090
 100 400 l 1x21
 400 400 l 1
 400 300 l 1
 100 300 l 1x2090
400 300 m 1xa010
 500 300 l 1
 500 100 l 1x6010
 400 100 l 1
 400 300 l 1xa010
0 200 m 1x41
 100 200 l 1x41
 100 100 l 1x81
 0 100 l 1
 0 200 l 1x41
400 100 m 1x8110
 400 0 l 1
 100 0 l 1x8090
 100 100 l 1
 400 100 l 1x8110
EndSplineSet
EndChar

StartChar: Tcaron
Encoding: 356 356 273
Width: 600
Flags: W
HStem: 0 21G<200 300> 500 100<0 200 300 500> 680 20G<200 300> 700 100<100 200 300 400>
VStem: 100 100<700 800> 200 100<0 500 600 700> 300 100<700 800>
LayerCount: 2
Fore
SplineSet
300 800 m 5xd2
 400 800 l 5
 400 700 l 5xd2
 300 700 l 5xe4
 300 800 l 5xd2
100 800 m 5xd8
 200 800 l 5xd8
 200 700 l 5xe8
 100 700 l 5
 100 800 l 5xd8
200 700 m 5xe8
 300 700 l 5
 300 600 l 5
 200 600 l 5xe4
 200 700 l 5xe8
500 600 m 1
 500 500 l 1
 300 500 l 1
 300 0 l 1
 200 0 l 1
 200 500 l 1
 0 500 l 1
 0 600 l 1
 500 600 l 1
EndSplineSet
EndChar

StartChar: Lacute
Encoding: 313 313 274
Width: 600
Flags: W
HStem: 0 100<100 500 100 500>
VStem: 0 100<100 700 100 700 100 700>
LayerCount: 2
Fore
SplineSet
200 800 m 5
 400 800 l 5
 400 700 l 5
 200 700 l 5
 200 800 l 5
500 100 m 1
 500 0 l 1
 0 0 l 1
 0 700 l 1
 100 700 l 1
 100 100 l 1
 500 100 l 1
EndSplineSet
EndChar

StartChar: Lcaron
Encoding: 317 317 275
Width: 600
Flags: W
HStem: 0 100<100 500 100 500>
VStem: 0 100<100 700 100 700 100 700>
LayerCount: 2
Fore
SplineSet
200 800 m 5
 300 800 l 5
 300 600 l 5
 200 600 l 5
 200 800 l 5
500 100 m 1
 500 0 l 1
 0 0 l 1
 0 700 l 1
 100 700 l 1
 100 100 l 1
 500 100 l 1
EndSplineSet
EndChar

StartChar: lacute
Encoding: 314 314 276
Width: 500
Flags: W
HStem: 0 100<100 200 0 100>
VStem: 0 100<100 700> 100 100<0 100 0 100 0 100 0 700>
LayerCount: 2
Fore
SplineSet
200 800 m 5xa0
 400 800 l 5
 400 700 l 5
 200 700 l 5
 200 800 l 5xa0
100 100 m 1xc0
 0 100 l 1
 0 700 l 1
 100 700 l 1
 100 100 l 1xc0
100 100 m 1
 200 100 l 1
 200 0 l 1
 100 0 l 1xa0
 100 100 l 1
EndSplineSet
EndChar

StartChar: lcaron
Encoding: 318 318 277
Width: 400
Flags: W
HStem: 0 100<100 200 0 100>
VStem: 0 100<100 700> 100 100<0 100 0 100 0 100 0 700>
LayerCount: 2
Fore
SplineSet
200 800 m 5xa0
 300 800 l 5
 300 600 l 5
 200 600 l 5
 200 800 l 5xa0
100 100 m 1xc0
 0 100 l 1
 0 700 l 1
 100 700 l 1
 100 100 l 1xc0
100 100 m 1
 200 100 l 1
 200 0 l 1
 100 0 l 1xa0
 100 100 l 1
EndSplineSet
EndChar

StartChar: Uring
Encoding: 366 366 278
Width: 600
Flags: W
HStem: 0 100<100 400> 500 100<200 300> 600 100<100 200 300 400> 700 100<200 300>
VStem: 0 100<100 600> 100 100<600 700> 200 100<500 600 700 800> 300 100<600 700> 400 100<100 600>
LayerCount: 2
Fore
SplineSet
300 700 m 5xa2
 400 700 l 5
 400 600 l 5xa1
 300 600 l 5xc2
 300 700 l 5xa2
200 600 m 5xc4
 300 600 l 5
 300 500 l 5
 200 500 l 5xc2
 200 600 l 5xc4
100 700 m 5xa4
 200 700 l 5xa4
 200 600 l 5xc4
 100 600 l 5xa8
 100 700 l 5xa4
200 800 m 5x92
 300 800 l 5x92
 300 700 l 5xa2
 200 700 l 5xa4
 200 800 l 5x92
100 100 m 1xa8
 0 100 l 1
 0 600 l 1
 100 600 l 1
 100 100 l 1xa8
400 600 m 1xa1
 500 600 l 1
 500 100 l 1
 400 100 l 1xa080
 400 600 l 1xa1
400 100 m 1
 400 0 l 1
 100 0 l 1x8480
 100 100 l 1x88
 400 100 l 1
EndSplineSet
EndChar

StartChar: zcaron
Encoding: 382 382 279
Width: 600
Flags: W
HStem: 0 100<0 100 200 500> 200 100<200 300> 400 100<0 300 400 500> 600 100<200 300> 700 100<100 200 300 400>
VStem: 100 100<100 200 700 800> 200 100<200 300 600 700> 300 100<300 400 700 800>
LayerCount: 2
Fore
SplineSet
300 800 m 5xe9
 400 800 l 5
 400 700 l 5xe9
 300 700 l 5xf2
 300 800 l 5xe9
100 800 m 5xec
 200 800 l 5xec
 200 700 l 5xf4
 100 700 l 5
 100 800 l 5xec
200 700 m 5xf4
 300 700 l 5
 300 600 l 5
 200 600 l 5xf2
 200 700 l 5xf4
400 400 m 1xe1
 400 300 l 1xe1
 300 300 l 1xe2
 300 400 l 1
 0 400 l 1
 0 500 l 1
 500 500 l 1
 500 400 l 1
 400 400 l 1xe1
300 300 m 1xe2
 300 200 l 1xe2
 200 200 l 1xe4
 200 300 l 1
 300 300 l 1xe2
100 200 m 1xe4
 200 200 l 1
 200 100 l 1
 500 100 l 1
 500 0 l 1
 0 0 l 1
 0 100 l 1
 100 100 l 1
 100 200 l 1xe4
EndSplineSet
EndChar

StartChar: Zcaron
Encoding: 381 381 280
Width: 600
Flags: W
HStem: 0 100<100 500> 200 100<100 300> 300 100<300 400> 500 100<0 200 300 400> 680 20G<200 300> 700 100<100 200 300 400>
VStem: 0 100<100 200> 100 100<700 800> 200 100<600 700> 300 100<300 400 700 800> 400 100<400 500>
LayerCount: 2
Fore
SplineSet
300 800 m 5x9440
 400 800 l 5
 400 700 l 5x9440
 300 700 l 5x9880
 300 800 l 5x9440
100 800 m 5x95
 200 800 l 5x95
 200 700 l 5x99
 100 700 l 5
 100 800 l 5x95
200 700 m 5x99
 300 700 l 5
 300 600 l 5
 200 600 l 5x9880
 200 700 l 5x99
500 600 m 1xb220
 500 400 l 1xb220
 400 400 l 1xb040
 400 500 l 1
 0 500 l 1
 0 600 l 1
 500 600 l 1xb220
300 300 m 1xd040
 300 400 l 1
 400 400 l 1
 400 300 l 1xb040
 300 300 l 1xd040
200 200 m 1xd080
 200 300 l 1xd080
 300 300 l 1
 300 200 l 1xd040
 200 200 l 1xd080
100 200 m 1xd280
 100 300 l 1xd1
 200 300 l 1
 200 200 l 1
 100 200 l 1xd280
0 200 m 1xd220
 100 200 l 1
 100 100 l 1
 500 100 l 1
 500 0 l 1
 0 0 l 1
 0 200 l 1xd220
EndSplineSet
EndChar

StartChar: Alpha
Encoding: 913 913 281
Width: 600
Flags: W
HStem: 400 100<100 400 100 400> 600 100<0 400 100 400 100 400 100 400 100 500>
VStem: 0 100<0 400 500 600> 100 300<0 400 0 400 0 500 500 600 600 700> 400 100<0 400 400 400 500 600 0 700 0 600 0 600>
LayerCount: 2
Fore
SplineSet
100 600 m 1xd0
 100 700 l 1
 400 700 l 1
 400 600 l 1
 100 600 l 1xd0
400 600 m 1xe8
 500 600 l 1
 500 0 l 1
 400 0 l 1
 400 400 l 1
 100 400 l 1
 100 0 l 1
 0 0 l 1
 0 600 l 1
 100 600 l 1
 100 500 l 1
 400 500 l 1
 400 600 l 1xe8
EndSplineSet
EndChar

StartChar: Beta
Encoding: 914 914 282
Width: 600
Flags: W
HStem: 0 100<100 400> 300 100<100 400> 600 100<100 400>
VStem: 0 400<0 100 300 400 600 700> 0 100<100 300 400 600> 400 100<100 300 400 600>
LayerCount: 2
Fore
SplineSet
400 600 m 1xf0
 500 600 l 1
 500 400 l 1xe4
 400 400 l 1
 400 600 l 1xf0
400 400 m 1xf0
 400 300 l 1xf0
 100 300 l 1
 100 100 l 1xe8
 400 100 l 1
 400 0 l 1
 0 0 l 1
 0 700 l 1
 400 700 l 1
 400 600 l 1xf0
 100 600 l 1
 100 400 l 1xe8
 400 400 l 1xf0
400 500 m 1025xe4
400 300 m 1xf0
 500 300 l 1
 500 100 l 1xe4
 400 100 l 1
 400 300 l 1xf0
EndSplineSet
EndChar

StartChar: Gamma
Encoding: 915 915 283
Width: 600
Flags: W
LayerCount: 2
Fore
SplineSet
100 0 m 1
 100 100 l 1
 100 400 l 1
 100 500 l 1
 100 600 l 1
 500 600 l 1
 500 700 l 1
 0 700 l 1
 0 0 l 1
 100 0 l 1
EndSplineSet
EndChar

StartChar: uni0394
Encoding: 916 916 284
Width: 600
Flags: W
HStem: 0 200<0 100 400 500> 0 100<100 400> 600 100<200 300>
VStem: 0 100<100 200> 100 100<200 600> 200 100<600 700> 300 100<200 600> 400 100<100 200>
LayerCount: 2
Fore
SplineSet
200 700 m 1x24
 300 700 l 1
 300 600 l 1x24
 200 600 l 5x28
 200 700 l 1x24
300 200 m 1xa2
 300 600 l 1xa4
 400 600 l 1
 400 200 l 1
 300 200 l 1xa2
200 200 m 1xa8
 100 200 l 1xb0
 100 600 l 1
 200 600 l 1
 200 200 l 1xa8
0 200 m 1
 100 200 l 1xb1
 100 100 l 1
 400 100 l 1x71
 400 200 l 1xa2
 500 200 l 1
 500 0 l 1xa1
 0 0 l 1
 0 200 l 1
EndSplineSet
EndChar

StartChar: Epsilon
Encoding: 917 917 285
Width: 600
Flags: W
HStem: 0 100<100 500 100 500> 400 100<100 300 100 300> 600 100<100 100 100 500>
VStem: 0 100<100 400 500 600>
LayerCount: 2
Fore
SplineSet
100 600 m 1
 100 500 l 1
 300 500 l 1
 300 400 l 1
 100 400 l 1
 100 100 l 1
 500 100 l 1
 500 0 l 1
 0 0 l 1
 0 700 l 1
 500 700 l 1
 500 600 l 1
 100 600 l 1
EndSplineSet
EndChar

StartChar: Zeta
Encoding: 918 918 286
Width: 600
Flags: W
HStem: 0 100<100 500 100 500> 200 100<0 200 100 200 100 200 100 200> 300 100<100 300 200 300 200 300 200 300> 400 100<200 400 300 400 300 400 300 400> 600 100<0 400 0 500>
VStem: 0 100<100 200 100 200 100 200> 100 100<100 300 200 300 200 300> 200 100<200 400 300 400 300 400> 300 100<300 500 400 500 400 500> 400 100<500 600 600 600>
LayerCount: 2
Fore
SplineSet
500 700 m 1xdd40
 500 500 l 1
 400 500 l 1
 400 600 l 1
 0 600 l 1
 0 700 l 1
 500 700 l 1xdd40
300 400 m 1xdc80
 300 500 l 1
 400 500 l 1
 400 400 l 1
 300 400 l 1xdc80
200 300 m 1xad40
 200 400 l 1
 300 400 l 1
 300 300 l 1
 200 300 l 1xad40
100 200 m 1xda40
 100 300 l 1
 200 300 l 1
 200 200 l 1
 100 200 l 1xda40
0 200 m 1xdd40
 100 200 l 1
 100 100 l 1
 500 100 l 1
 500 0 l 1
 0 0 l 1
 0 200 l 1xdd40
EndSplineSet
EndChar

StartChar: Eta
Encoding: 919 919 287
Width: 600
Flags: W
HStem: 400 100<100 400 100 400>
VStem: 0 100<0 400 500 700> 400 100<0 400 400 400 500 700 0 700>
LayerCount: 2
Fore
SplineSet
400 700 m 1
 500 700 l 1
 500 0 l 1
 400 0 l 1
 400 400 l 1
 100 400 l 1
 100 0 l 1
 0 0 l 1
 0 700 l 1
 100 700 l 1
 100 500 l 1
 400 500 l 1
 400 700 l 1
EndSplineSet
EndChar

StartChar: Kappa
Encoding: 922 922 288
Width: 600
Flags: W
HStem: 0 300<0 400 300 400 400 500> 300 100<300 400 100 300> 400 100<100 300 100 300 300 400> 500 100<100 400 300 400 300 400 300 400> 600 100<400 500>
VStem: 0 100<0 400 500 700> 300 100<300 400 500 600> 400 100<0 300 0 300 0 300 0 400 600 700>
LayerCount: 2
Fore
SplineSet
300 500 m 1x2d
 300 400 l 1
 100 400 l 1
 100 0 l 1
 0 0 l 1
 0 700 l 1
 100 700 l 1
 100 500 l 1
 300 500 l 1x2d
500 700 m 1
 500 600 l 1
 400 600 l 1
 400 700 l 1
 500 700 l 1
400 600 m 1x56
 400 500 l 1
 300 500 l 1
 300 600 l 1
 400 600 l 1x56
400 300 m 1
 300 300 l 1
 300 400 l 1
 400 400 l 1
 400 300 l 1
400 300 m 1
 500 300 l 1
 500 0 l 1
 400 0 l 1xad
 400 300 l 1
EndSplineSet
EndChar

StartChar: Lambda
Encoding: 923 923 289
Width: 600
Flags: W
HStem: 0 200<0 100 400 500> 600 100<200 300>
VStem: 0 100<0 200> 100 100<200 600> 200 100<600 700> 300 100<200 600> 400 100<0 200>
LayerCount: 2
Fore
SplineSet
500 0 m 1xc2
 400 0 l 1xc2
 400 200 l 1xc4
 500 200 l 5
 500 0 l 1xc2
0 0 m 1xe0
 0 200 l 1
 100 200 l 1
 100 0 l 1
 0 0 l 1xe0
200 700 m 1xc8
 300 700 l 1
 300 600 l 1xc8
 200 600 l 1xd0
 200 700 l 1xc8
300 200 m 1xc4
 300 600 l 1xc8
 400 600 l 1
 400 200 l 1
 300 200 l 1xc4
200 200 m 1xd0
 100 200 l 1xe0
 100 600 l 1
 200 600 l 1
 200 200 l 1xd0
EndSplineSet
EndChar

StartChar: Mu
Encoding: 924 924 290
Width: 600
Flags: W
HStem: 400 100<100 200 200 300> 500 100<100 200 100 200 100 300 300 400>
VStem: 0 100<0 500 600 700> 200 100<400 500 400 500 500 600 400 500> 400 100<0 500 500 500 600 700 0 700>
LayerCount: 2
Fore
SplineSet
100 600 m 1x78
 200 600 l 1
 200 500 l 1
 100 500 l 1
 100 0 l 1
 0 0 l 1
 0 700 l 1
 100 700 l 1
 100 600 l 1x78
400 700 m 1
 500 700 l 1
 500 0 l 1
 400 0 l 1
 400 500 l 1
 300 500 l 1
 300 600 l 1
 400 600 l 1
 400 700 l 1
200 400 m 1xb8
 200 500 l 1
 300 500 l 1
 300 400 l 1
 200 400 l 1xb8
EndSplineSet
EndChar

StartChar: Nu
Encoding: 925 925 291
Width: 600
Flags: W
HStem: 0 21G<0 100 400 500> 300 100<200 300> 680 20G<0 100 400 500>
VStem: 0 100<0 400 500 700> 200 100<300 400> 400 100<0 200 300 700>
CounterMasks: 1 1c
LayerCount: 2
Fore
SplineSet
100 500 m 5
 200 500 l 5
 200 400 l 5
 100 400 l 5
 100 0 l 1
 0 0 l 1
 0 700 l 1
 100 700 l 1
 100 500 l 5
400 700 m 1
 500 700 l 1
 500 0 l 1
 400 0 l 1
 400 200 l 5
 300 200 l 5
 300 300 l 5
 400 300 l 5
 400 700 l 1
200 400 m 5
 300 400 l 5
 300 300 l 5
 200 300 l 5
 200 400 l 5
EndSplineSet
EndChar

StartChar: Xi
Encoding: 926 926 292
Width: 600
Flags: W
HStem: 0 100<0 500> 300 100<100 400> 600 100<0 500>
CounterMasks: 1 e0
LayerCount: 2
Fore
SplineSet
100 400 m 5
 400 400 l 5
 400 300 l 5
 100 300 l 5
 100 400 l 5
0 700 m 1
 500 700 l 1
 500 600 l 1
 0 600 l 1
 0 700 l 1
0 0 m 1
 0 100 l 1
 500 100 l 1
 500 0 l 1
 0 0 l 1
EndSplineSet
EndChar

StartChar: Omicron
Encoding: 927 927 293
Width: 600
Flags: W
HStem: 0 100<100 400 0 100> 600 100<0 400 100 400 100 400 100 400 100 500>
VStem: 0 100<100 600> 100 300<0 100 0 100 0 100 100 600 600 700> 400 100<0 600 100 600 100 700 100 600 100 600>
LayerCount: 2
Fore
SplineSet
100 600 m 1xd0
 100 700 l 1
 400 700 l 1
 400 600 l 1
 100 600 l 1xd0
100 100 m 1xe8
 0 100 l 1
 0 600 l 1
 100 600 l 1
 100 100 l 1xe8
400 600 m 1
 500 600 l 1
 500 100 l 1
 400 100 l 1
 400 600 l 1
400 100 m 1xd0
 400 0 l 1
 100 0 l 1
 100 100 l 1
 400 100 l 1xd0
EndSplineSet
EndChar

StartChar: Pi
Encoding: 928 928 294
Width: 600
Flags: W
HStem: 0 21G<0 100 400 500> 600 100<100 400>
VStem: 0 100<0 600> 400 100<0 600>
LayerCount: 2
Fore
SplineSet
100 600 m 17
 100 500 l 1
 100 400 l 1
 100 100 l 1
 100 0 l 1
 0 0 l 1
 0 700 l 1
 500 700 l 1
 500 0 l 5
 400 0 l 25
 400 600 l 1
 100 600 l 17
EndSplineSet
EndChar

StartChar: Rho
Encoding: 929 929 295
Width: 600
Flags: W
HStem: 0 21G<0 100> 300 100<100 400> 600 100<100 400>
VStem: 0 100<0 300 400 600> 400 100<400 600>
LayerCount: 2
Fore
SplineSet
400 400 m 1
 400 300 l 1
 100 300 l 1
 100 0 l 1
 0 0 l 1
 0 700 l 1
 400 700 l 1
 400 600 l 1
 100 600 l 1
 100 400 l 1
 400 400 l 1
400 600 m 1
 500 600 l 1
 500 400 l 5
 400 400 l 1
 400 600 l 1
EndSplineSet
EndChar

StartChar: Theta
Encoding: 920 920 296
Width: 700
Flags: W
HStem: 0 100<100 500> 300 100<200 400> 600 100<100 500>
VStem: 0 100<100 600> 500 100<100 600>
CounterMasks: 1 e0
LayerCount: 2
Fore
SplineSet
200 400 m 1
 400 400 l 1
 400 300 l 1
 200 300 l 5
 200 400 l 1
100 600 m 1
 100 700 l 1
 500 700 l 1
 500 600 l 1
 100 600 l 1
100 100 m 1
 0 100 l 1
 0 600 l 1
 100 600 l 1
 100 100 l 1
500 600 m 1
 600 600 l 1
 600 100 l 1
 500 100 l 1
 500 600 l 1
500 100 m 1
 500 0 l 1
 100 0 l 1
 100 100 l 1
 500 100 l 1
EndSplineSet
EndChar

StartChar: Tau
Encoding: 932 932 297
Width: 600
Flags: W
HStem: 600 100<0 200 0 500 300 500 300 300>
VStem: 200 100<0 600 0 600>
LayerCount: 2
Fore
SplineSet
500 700 m 1
 500 600 l 1
 300 600 l 1
 300 0 l 1
 200 0 l 1
 200 600 l 1
 0 600 l 1
 0 700 l 1
 500 700 l 1
EndSplineSet
EndChar

StartChar: Upsilon
Encoding: 933 933 298
Width: 600
Flags: W
HStem: 500 100<100 200 0 100 300 400> 600 100<0 100 0 100 0 200 400 500>
VStem: 0 100<600 700> 100 100<500 600> 200 100<0 500 500 600 0 500 0 500> 300 100<0 600 500 600 500 600> 400 100<500 700 600 700 600 700>
LayerCount: 2
Fore
SplineSet
0 700 m 1x6a
 100 700 l 1
 100 600 l 1
 0 600 l 1
 0 700 l 1x6a
400 700 m 1
 500 700 l 1
 500 600 l 1
 400 600 l 1
 400 700 l 1
100 600 m 1x94
 200 600 l 1
 200 500 l 1
 100 500 l 1
 100 600 l 1x94
300 500 m 1
 300 600 l 1
 400 600 l 1
 400 500 l 1
 300 500 l 1
200 500 m 1xaa
 300 500 l 1
 300 0 l 1
 200 0 l 1
 200 500 l 1xaa
EndSplineSet
EndChar

StartChar: Phi
Encoding: 934 934 299
Width: 600
Flags: W
HStem: 0 21G<200 300> 200 300<0 100 400 500> 500 100<100 200 300 400> 680 20G<200 300>
VStem: 0 100<200 500> 100 100<500 600> 200 100<0 100 200 500 600 700> 400 100<200 500>
LayerCount: 2
Fore
SplineSet
400 500 m 1xd1
 500 500 l 1
 500 200 l 1
 400 200 l 1
 400 500 l 1xd1
0 500 m 1xd9
 100 500 l 1
 100 200 l 1
 0 200 l 5
 0 500 l 1xd9
300 100 m 25xd3
 400 100 l 25
 400 200 l 25
 300 200 l 25
 300 100 l 25xd3
100 100 m 1xd5
 200 100 l 25
 200 200 l 1
 100 200 l 25xdb
 100 100 l 1xd5
100 600 m 25xb5
 200 600 l 25
 200 500 l 25xb5
 100 500 l 25xd9
 100 600 l 25xb5
300 600 m 25xb3
 400 600 l 25xb3
 400 500 l 25xd3
 300 500 l 25
 300 600 l 25xb3
200 700 m 1
 300 700 l 1
 300 0 l 1
 200 0 l 1
 200 700 l 1
EndSplineSet
EndChar

StartChar: Chi
Encoding: 935 935 300
Width: 600
Flags: W
HStem: 0 300<0 100 0 100 400 500> 300 100<0 200 100 200 100 200 100 200 300 400> 400 100<100 200 100 200 200 300 100 200 300 400> 500 100<100 200 0 100 300 400> 600 100<0 100 0 100 0 200 400 500>
VStem: 0 100<0 300 0 300 600 700> 100 100<0 400 300 400 300 400 500 600> 200 100<300 400 300 400 400 500 500 600> 300 100<300 400 500 600> 400 100<0 300 0 300 0 300 0 400 600 700>
LayerCount: 2
Fore
SplineSet
0 700 m 1x0c40
 100 700 l 1
 100 600 l 1
 0 600 l 1
 0 700 l 1x0c40
500 700 m 1
 500 600 l 1
 400 600 l 1
 400 700 l 1
 500 700 l 1
100 600 m 1x1280
 200 600 l 1
 200 500 l 1
 100 500 l 1
 100 600 l 1x1280
400 600 m 1
 400 500 l 1
 300 500 l 1
 300 600 l 1
 400 600 l 1
200 500 m 1x21
 300 500 l 1
 300 400 l 1
 200 400 l 1
 200 500 l 1x21
100 300 m 1x4280
 100 400 l 1
 200 400 l 1
 200 300 l 1
 100 300 l 1x4280
400 300 m 1
 300 300 l 1
 300 400 l 1
 400 400 l 1
 400 300 l 1
0 300 m 1x8440
 100 300 l 1
 100 0 l 1
 0 0 l 1
 0 300 l 1x8440
400 300 m 1
 500 300 l 1
 500 0 l 1
 400 0 l 1
 400 300 l 1
EndSplineSet
EndChar

StartChar: Psi
Encoding: 936 936 301
Width: 600
Flags: W
HStem: 0 21G<200 300> 200 100<100 200 300 400> 680 20G<0 100 200 300 400 500>
VStem: 0 100<300 700> 200 100<0 200 300 700> 400 100<300 700>
CounterMasks: 1 1c
LayerCount: 2
Fore
SplineSet
0 700 m 1
 100 700 l 1
 100 300 l 1
 0 300 l 1
 0 700 l 1
500 700 m 1
 500 300 l 1
 400 300 l 1
 400 700 l 5
 500 700 l 1
200 0 m 1
 200 200 l 1
 100 200 l 1
 100 300 l 1
 200 300 l 1
 200 700 l 1
 300 700 l 1
 300 300 l 1
 400 300 l 1
 400 200 l 1
 300 200 l 1
 300 0 l 1
 200 0 l 1
EndSplineSet
EndChar

StartChar: Iota
Encoding: 921 921 302
Width: 400
Flags: W
HStem: 0 100<0 100 200 300 0 100> 600 100<0 100 0 300 200 200 200 300>
VStem: 100 100<100 600>
LayerCount: 2
Fore
SplineSet
200 100 m 1
 300 100 l 1
 300 0 l 1
 0 0 l 1
 0 100 l 1
 100 100 l 1
 100 600 l 1
 0 600 l 1
 0 700 l 1
 300 700 l 1
 300 600 l 1
 200 600 l 1
 200 100 l 1
EndSplineSet
EndChar

StartChar: alpha
Encoding: 945 945 303
Width: 700
Flags: W
HStem: 0 100<100 400 500 600> 100 300<0 100 400 500> 400 100<100 400>
VStem: 0 100<100 400> 100 300<0 100 400 500> 400 100<100 400> 500 100<0 100>
LayerCount: 2
Fore
SplineSet
600 0 m 1x82
 500 0 l 1x82
 500 100 l 1x84
 600 100 l 5
 600 0 l 1x82
100 100 m 1x90
 400 100 l 1
 400 0 l 1
 100 0 l 1x88
 100 100 l 1x90
400 400 m 1x48
 500 400 l 1x44
 500 100 l 1x84
 400 100 l 1x88
 400 400 l 1x48
100 500 m 1x28
 400 500 l 1x28
 400 400 l 1x48
 100 400 l 1x50
 100 500 l 1x28
0 100 m 1x50
 0 400 l 1
 100 400 l 1x50
 100 100 l 1x90
 0 100 l 1x50
EndSplineSet
EndChar

StartChar: beta
Encoding: 946 946 304
Width: 600
Flags: W
HStem: -100 21G<0 100> 0 100<100 400> 400 100<400 500> 500 100<100 400>
VStem: 0 400<0 100 300 400 500 600> 0 100<-100 0 100 300 400 500> 400 100<100 300 400 500>
LayerCount: 2
Fore
SplineSet
500 400 m 1xe2
 400 400 l 1
 400 500 l 1xe8
 500 500 l 1
 500 400 l 1xe2
500 100 m 1xc2
 400 100 l 5
 400 300 l 1xc8
 500 300 l 1
 500 100 l 1xc2
0 -100 m 1xe4
 0 600 l 1
 400 600 l 1xd8
 400 500 l 1xe8
 100 500 l 1xd4
 100 400 l 1xe4
 400 400 l 1
 400 300 l 1xe8
 100 300 l 1
 100 100 l 1xe4
 400 100 l 1
 400 0 l 1xe8
 100 0 l 1
 100 -100 l 1
 0 -100 l 1xe4
EndSplineSet
EndChar

StartChar: gamma
Encoding: 947 947 305
Width: 600
Flags: W
HStem: -100 100<0 400 0 400> 100 100<100 400 0 100> 200 300<0 100 0 100 0 400>
VStem: 0 100<200 500> 400 100<-100 500 0 100 100 100 200 500 0 500>
LayerCount: 2
Fore
SplineSet
100 200 m 1xb8
 0 200 l 1
 0 500 l 1
 100 500 l 1
 100 200 l 1xb8
400 500 m 1
 500 500 l 1
 500 0 l 1
 400 0 l 1
 400 100 l 1
 100 100 l 1
 100 200 l 1
 400 200 l 1xd8
 400 500 l 1
400 0 m 1
 400 -100 l 1
 0 -100 l 1
 0 0 l 1
 400 0 l 1
EndSplineSet
EndChar

StartChar: delta
Encoding: 948 948 306
Width: 600
Flags: W
HStem: 0 100<100 400> 100 200<0 100 400 500> 300 100<100 400> 400 100<0 100> 500 100<100 500>
VStem: 0 100<100 300 400 500> 100 300<0 100 300 400> 400 100<100 300>
LayerCount: 2
Fore
SplineSet
100 600 m 1x0a
 500 600 l 1
 500 500 l 1x09
 100 500 l 5x15
 100 600 l 1x0a
0 400 m 1x14
 0 500 l 1
 100 500 l 1x14
 100 400 l 1x24
 0 400 l 1x14
100 300 m 1x44
 100 400 l 1x24
 400 400 l 1x22
 400 300 l 1x42
 100 300 l 1x44
500 100 m 1x41
 400 100 l 1x82
 400 300 l 1x42
 500 300 l 1
 500 100 l 1x41
100 100 m 1x84
 400 100 l 1
 400 0 l 1
 100 0 l 1x82
 100 100 l 1x84
0 300 m 1x44
 100 300 l 1x44
 100 100 l 1x84
 0 100 l 1
 0 300 l 1x44
EndSplineSet
EndChar

StartChar: epsilon
Encoding: 949 949 307
Width: 600
Flags: W
LayerCount: 2
Fore
SplineSet
500 400 m 5
 500 500 l 5
 100 500 l 5
 100 400 l 5
 500 400 l 5
100 300 m 5
 100 400 l 5
 0 400 l 5
 0 300 l 5
 100 300 l 5
400 200 m 5
 400 300 l 5
 100 300 l 5
 100 200 l 5
 400 200 l 5
100 100 m 5
 100 200 l 5
 0 200 l 5
 0 100 l 5
 100 100 l 5
500 100 m 5
 100 100 l 5
 100 0 l 5
 500 0 l 5
 500 100 l 5
EndSplineSet
EndChar

StartChar: eta
Encoding: 951 951 308
Width: 600
Flags: W
HStem: 400 100<100 400 100 100 0 500>
VStem: 0 100<0 400 0 500> 400 100<0 400 0 500 0 400 0 400>
LayerCount: 2
Fore
SplineSet
400 500 m 1
 400 400 l 1
 100 400 l 1
 100 0 l 1
 0 0 l 1
 0 500 l 1
 400 500 l 1
400 400 m 1
 500 400 l 1
 500 0 l 1
 400 0 l 1
 400 400 l 1
EndSplineSet
EndChar

StartChar: theta
Encoding: 952 952 309
Width: 500
Flags: W
HStem: 0 100<100 300> 300 100<100 300> 600 100<100 300>
VStem: 0 100<100 300 400 600> 100 200<0 100 600 700> 300 100<100 600>
CounterMasks: 1 e0
LayerCount: 2
Fore
SplineSet
100 400 m 1xf4
 300 400 l 5
 300 300 l 5
 100 300 l 1
 100 400 l 1xf4
100 600 m 1
 100 700 l 1
 300 700 l 5
 300 600 l 5xe8
 100 600 l 1
100 100 m 1xf0
 0 100 l 1
 0 600 l 1
 100 600 l 1
 100 100 l 1xf0
300 600 m 5xe8
 400 600 l 5
 400 100 l 5xe4
 300 100 l 5
 300 600 l 5xe8
300 100 m 5xe8
 300 0 l 5
 100 0 l 1xe8
 100 100 l 1xf0
 300 100 l 5xe8
EndSplineSet
EndChar

StartChar: uni03BC
Encoding: 956 956 310
Width: 600
Flags: W
HStem: -100 21G<0 100> 0 100<100 400> 480 20G<0 100 400 500>
VStem: 0 100<-100 0 100 500> 400 100<100 500>
LayerCount: 2
Fore
SplineSet
0 -100 m 25
 0 500 l 25
 100 500 l 25
 100 100 l 25
 400 100 l 25
 400 500 l 25
 500 500 l 25
 500 100 l 1
 400 100 l 1
 400 0 l 1
 100 0 l 1
 100 -100 l 25
 0 -100 l 25
EndSplineSet
EndChar

StartChar: psi
Encoding: 968 968 311
Width: 600
Flags: W
HStem: -100 21G<200 300> 0 100<100 200 300 400> 480 20G<0 100 200 300 400 500>
VStem: 0 100<100 500> 200 100<-100 0 100 500> 400 100<100 500>
CounterMasks: 1 1c
LayerCount: 2
Fore
SplineSet
0 500 m 1
 100 500 l 1
 100 100 l 1
 0 100 l 1
 0 500 l 1
500 500 m 1
 500 100 l 1
 400 100 l 1
 400 500 l 1
 500 500 l 1
200 -100 m 1
 200 0 l 1
 100 0 l 1
 100 100 l 1
 200 100 l 1
 200 500 l 1
 300 500 l 1
 300 100 l 1
 400 100 l 1
 400 0 l 1
 300 0 l 1
 300 -100 l 1
 200 -100 l 1
EndSplineSet
EndChar

StartChar: chi
Encoding: 967 967 312
Width: 600
Flags: W
HStem: -100 200<0 100 400 500> 100 100<100 200 300 400> 200 100<200 300> 300 100<100 200 300 400> 400 200<0 100 400 500>
VStem: 0 100<-100 100 400 600> 100 100<100 200 300 400> 200 100<200 300> 300 100<100 200 300 400> 400 100<-100 100 400 600>
LayerCount: 2
Fore
SplineSet
0 400 m 1x0c
 0 600 l 5
 100 600 l 5x0c
 100 400 l 1x14
 0 400 l 1x0c
400 400 m 1x1080
 400 600 l 5
 500 600 l 5
 500 400 l 1x0840
 400 400 l 1x1080
100 300 m 1x12
 100 400 l 1x14
 200 400 l 1x12
 200 300 l 1x22
 100 300 l 1x12
300 300 m 1x21
 300 400 l 1
 400 400 l 1
 400 300 l 1x1080
 300 300 l 1x21
200 200 m 1x42
 200 300 l 1x22
 300 300 l 1x21
 300 200 l 1x41
 200 200 l 1x42
100 100 m 1x84
 100 200 l 1
 200 200 l 1
 200 100 l 1x42
 100 100 l 1x84
300 100 m 1x4080
 300 200 l 1x41
 400 200 l 1x4080
 400 100 l 1x8080
 300 100 l 1x4080
0 -100 m 1x84
 0 100 l 1
 100 100 l 1
 100 -100 l 1
 0 -100 l 1x84
400 -100 m 1x8040
 400 100 l 1x8080
 500 100 l 1
 500 -100 l 1
 400 -100 l 1x8040
EndSplineSet
EndChar

StartChar: upsilon
Encoding: 965 965 313
Width: 600
Flags: W
HStem: 400 100<300 400>
VStem: 300 100<400 500>
LayerCount: 2
Fore
SplineSet
300 500 m 1
 400 500 l 1
 400 400 l 1
 300 400 l 5
 300 500 l 1
400 0 m 1
 400 100 l 1
 100 100 l 1
 100 500 l 1
 0 500 l 1
 0 0 l 1
 400 0 l 1
400 100 m 1
 500 100 l 1
 500 400 l 1
 400 400 l 1
 400 100 l 1
EndSplineSet
EndChar

StartChar: tau
Encoding: 964 964 314
Width: 600
Flags: W
HStem: 0 100<300 400>
VStem: 300 100<0 100>
LayerCount: 2
Fore
SplineSet
400 0 m 1
 300 0 l 1
 300 100 l 1
 400 100 l 5
 400 0 l 1
200 100 m 25
 300 100 l 25
 300 400 l 25
 500 400 l 25
 500 500 l 25
 0 500 l 25
 0 400 l 25
 200 400 l 25
 200 100 l 25
EndSplineSet
EndChar

StartChar: sigma
Encoding: 963 963 315
Width: 700
Flags: W
LayerCount: 2
Fore
SplineSet
600 500 m 5
 500 500 l 5
 500 400 l 5
 600 400 l 5
 600 500 l 5
100 400 m 5
 400 400 l 5
 400 500 l 5
 100 500 l 5
 100 400 l 5
400 100 m 5
 500 100 l 5
 500 400 l 5
 400 400 l 5
 400 100 l 5
100 0 m 5
 400 0 l 5
 400 100 l 5
 100 100 l 5
 100 0 l 5
0 400 m 5
 0 100 l 5
 100 100 l 5
 100 400 l 5
 0 400 l 5
EndSplineSet
EndChar

StartChar: pi
Encoding: 960 960 316
Width: 700
Flags: W
HStem: 0 100<500 600>
VStem: 500 100<0 100>
LayerCount: 2
Fore
SplineSet
600 0 m 5
 500 0 l 5
 500 100 l 5
 600 100 l 5
 600 0 l 5
100 0 m 9
 200 0 l 25
 200 400 l 25
 400 400 l 29
 400 100 l 29
 500 100 l 21
 500 400 l 5
 600 400 l 5
 600 500 l 13
 0 500 l 17
 0 400 l 1
 100 400 l 1
 100 0 l 9
EndSplineSet
EndChar

StartChar: omicron
Encoding: 959 959 317
Width: 600
Flags: W
HStem: 0 100<100 400 0 100> 100 300<0 100 0 100 100 400 400 500> 400 100<0 400 100 400 100 400 100 400 100 500>
VStem: 0 100<100 400> 100 300<0 100 0 100 0 100 100 400 400 500> 400 100<0 400 100 400 100 500 100 400 100 400>
LayerCount: 2
Fore
SplineSet
100 400 m 1xa8
 100 500 l 1
 400 500 l 1
 400 400 l 1
 100 400 l 1xa8
100 100 m 1x54
 0 100 l 1
 0 400 l 1
 100 400 l 1
 100 100 l 1x54
400 400 m 1
 500 400 l 1
 500 100 l 1
 400 100 l 1
 400 400 l 1
400 100 m 1xa8
 400 0 l 1
 100 0 l 1
 100 100 l 1
 400 100 l 1xa8
EndSplineSet
EndChar

StartChar: nu
Encoding: 957 957 318
Width: 600
Flags: W
HStem: 0 100<200 300> 100 100<100 200 300 400> 400 100<300 400>
VStem: 0 100<200 500> 100 100<100 200> 200 100<0 100> 300 100<100 200 400 500> 400 100<200 400>
LayerCount: 2
Fore
SplineSet
300 500 m 1x22
 400 500 l 1
 400 400 l 1
 300 400 l 1
 300 500 l 1x22
100 200 m 1x70
 0 200 l 1
 0 500 l 1
 100 500 l 1
 100 200 l 1x70
400 400 m 1x62
 500 400 l 1
 500 200 l 1x61
 400 200 l 1
 400 400 l 1x62
100 200 m 1x70
 200 200 l 1x68
 200 100 l 1xa8
 100 100 l 1x68
 100 200 l 1x70
300 100 m 1xa4
 300 200 l 1
 400 200 l 1
 400 100 l 1x62
 300 100 l 1xa4
200 0 m 1xa4
 200 100 l 1xa8
 300 100 l 1
 300 0 l 1
 200 0 l 1xa4
EndSplineSet
EndChar

StartChar: kappa
Encoding: 954 954 319
Width: 500
Flags: W
HStem: 0 100<300 400> 100 100<200 300> 300 100<200 300> 400 100<300 400>
VStem: 0 100<0 200 300 500> 200 100<100 200 300 400> 300 100<0 100 400 500>
LayerCount: 2
Fore
SplineSet
100 300 m 1x2c
 200 300 l 1
 200 200 l 1
 100 200 l 1x6c
 100 0 l 1
 0 0 l 1
 0 500 l 1
 100 500 l 1x9c
 100 300 l 1x2c
400 500 m 1x1a
 400 400 l 1x1a
 300 400 l 1x2c
 300 500 l 1
 400 500 l 1x1a
300 400 m 1x2c
 300 300 l 1
 200 300 l 1
 200 400 l 1
 300 400 l 1x2c
300 100 m 1x8c
 200 100 l 1
 200 200 l 1
 300 200 l 1x4c
 300 100 l 1x8c
400 0 m 1x8a
 300 0 l 1x8a
 300 100 l 1x8c
 400 100 l 1
 400 0 l 1x8a
EndSplineSet
EndChar

StartChar: Sigma
Encoding: 931 931 320
Width: 600
Flags: W
HStem: 0 100<100 500> 200 100<100 200> 300 100<200 300> 400 100<100 200> 500 21G<0 100> 600 100<100 500>
VStem: 0 100<100 200 500 600> 100 100<200 300 400 500> 200 100<300 400>
LayerCount: 2
Fore
SplineSet
100 200 m 1xc6
 100 300 l 1
 200 300 l 1
 200 200 l 1xc5
 100 200 l 1xc6
100 500 m 1x96
 200 500 l 1x95
 200 400 l 1xa5
 100 400 l 1x95
 100 500 l 1x96
200 400 m 1xa5
 300 400 l 1
 300 300 l 1xa480
 200 300 l 1xc5
 200 400 l 1xa5
0 700 m 1x8e
 500 700 l 1
 500 600 l 1
 100 600 l 1
 100 500 l 1x96
 0 500 l 1
 0 700 l 1x8e
0 0 m 1
 0 200 l 1
 100 200 l 5xc6
 100 100 l 1
 500 100 l 1
 500 0 l 1
 0 0 l 1
EndSplineSet
EndChar

StartChar: xi
Encoding: 958 958 321
Width: 600
Flags: W
HStem: -200 100<300 400> -100 100<400 500>
VStem: 300 100<-200 -100> 400 100<-100 0>
LayerCount: 2
Fore
SplineSet
300 -200 m 1xa0
 300 -100 l 1
 400 -100 l 1
 400 -200 l 5
 300 -200 l 1xa0
500 -100 m 1x50
 400 -100 l 1xa0
 400 0 l 1
 500 0 l 1
 500 -100 l 1x50
400 600 m 1x10
 400 700 l 1
 100 700 l 1
 100 600 l 1
 400 600 l 1x10
100 400 m 1
 100 600 l 1
 0 600 l 1
 0 400 l 1
 100 400 l 1
300 300 m 1x20
 300 400 l 1
 100 400 l 1
 100 300 l 1
 300 300 l 1x20
100 100 m 1
 100 300 l 1
 0 300 l 1
 0 100 l 1
 100 100 l 1
400 100 m 1x50
 100 100 l 1
 100 0 l 1
 400 0 l 1
 400 100 l 1x50
EndSplineSet
EndChar

StartChar: zeta
Encoding: 950 950 322
Width: 600
Flags: W
HStem: -200 100<300 400> -100 100<400 500> 400 100<200 300> 500 21G<300 400> 600 100<0 300 400 500>
VStem: 200 100<400 500> 300 100<-200 -100 500 600> 400 100<-100 0>
LayerCount: 2
Fore
SplineSet
500 700 m 1x29
 500 600 l 1x29
 400 600 l 1
 400 500 l 1x1a
 300 500 l 1x2c
 300 600 l 1x2a
 0 600 l 1
 0 700 l 5
 500 700 l 1x29
300 500 m 1x2c
 300 400 l 1
 200 400 l 1
 200 500 l 1
 300 500 l 1x2c
300 -200 m 1x8a
 300 -100 l 1
 400 -100 l 1
 400 -200 l 1
 300 -200 l 1x8a
500 -100 m 1x49
 400 -100 l 1x8a
 400 0 l 1
 500 0 l 1
 500 -100 l 1x49
200 300 m 1x2c
 200 400 l 1
 100 400 l 1
 100 300 l 1
 200 300 l 1x2c
100 100 m 1
 100 300 l 1
 0 300 l 1
 0 100 l 1
 100 100 l 1
400 100 m 1x49
 100 100 l 1
 100 0 l 1
 400 0 l 1
 400 100 l 1x49
EndSplineSet
EndChar

StartChar: iota
Encoding: 953 953 323
Width: 300
Flags: W
HStem: 0 100<100 200> 480 20G<0 100>
VStem: 0 100<100 500> 100 100<0 100>
LayerCount: 2
Fore
SplineSet
200 0 m 1xd0
 100 0 l 5xd0
 100 100 l 1xe0
 200 100 l 1
 200 0 l 1xd0
0 500 m 1xe0
 100 500 l 1
 100 100 l 1
 0 100 l 1
 0 500 l 1xe0
EndSplineSet
EndChar

